<svg width="20" height="20" viewBox="0 0 20 20" fill="none" xmlns="http://www.w3.org/2000/svg">
<g clip-path="url(#clip0_214_1594)">
<path d="M16.0031 12.7083L13.8864 12.4667C13.3781 12.4083 12.8781 12.5833 12.5197 12.9417L10.9864 14.475C8.62806 13.275 6.69473 11.35 5.49473 8.98333L7.03639 7.44167C7.39473 7.08333 7.56973 6.58333 7.51139 6.075L7.26973 3.975C7.16973 3.13333 6.4614 2.5 5.61139 2.5H4.16973C3.22806 2.5 2.44473 3.28333 2.50306 4.225C2.94473 11.3417 8.6364 17.025 15.7447 17.4667C16.6864 17.525 17.4697 16.7417 17.4697 15.8V14.3583C17.4781 13.5167 16.8447 12.8083 16.0031 12.7083Z" fill="#1A6B4F"/>
</g>
<defs>
<clipPath id="clip0_214_1594">
<rect width="20" height="20" fill="white"/>
</clipPath>
</defs>
</svg>
