<svg width="107" height="37" viewBox="0 0 107 37" fill="none" xmlns="http://www.w3.org/2000/svg">
<g clip-path="url(#clip0_223_13710)">
<rect y="13.058" width="104" height="24" rx="4" transform="rotate(-7.21296 0 13.058)" fill="#D4863A"/>
<path d="M17.471 26.9745L16.3561 18.1648L22.511 17.3858L22.7129 18.9811L18.3913 19.528L18.6836 21.8376L22.4575 21.36L22.6519 22.8957L18.878 23.3733L19.3044 26.7425L17.471 26.9745ZM25.1325 26.0049L24.0176 17.1951L27.5891 16.7431C28.2399 16.6608 28.81 16.7055 29.2995 16.8774C29.7969 17.0483 30.1942 17.3206 30.4915 17.6942C30.7967 18.0669 30.9829 18.519 31.0502 19.0508C31.1236 19.6302 31.041 20.1567 30.8026 20.6304C30.5632 21.0961 30.1862 21.4624 29.6716 21.7291L32.0494 25.1295L30.0136 25.3871L27.8342 22.2157L26.5365 22.3799L26.9659 25.7728L25.1325 26.0049ZM27.7657 18.3295L26.0514 18.5465L26.3467 20.8799L28.061 20.6629C28.4658 20.6117 28.7692 20.4604 28.9712 20.209C29.1733 19.9577 29.2537 19.6693 29.2125 19.3439C29.1703 19.0105 29.0201 18.7473 28.7618 18.5542C28.5025 18.3532 28.1705 18.2783 27.7657 18.3295ZM33.6079 24.9322L32.493 16.1225L38.5645 15.3541L38.7664 16.9494L34.5282 17.4857L34.7783 19.462L38.4689 18.9949L38.6633 20.5306L34.9727 20.9977L35.2394 23.1049L39.5371 22.561L39.739 24.1563L33.6079 24.9322ZM41.2462 23.9655L40.1312 15.1558L46.2028 14.3874L46.4047 15.9827L42.1665 16.519L42.4166 18.4953L46.1072 18.0282L46.3016 19.5639L42.611 20.031L42.8777 22.1382L47.1754 21.5943L47.3773 23.1896L41.2462 23.9655ZM52.2473 22.5732L51.6311 17.7041L50.631 17.8306L50.4487 16.3901L51.4487 16.2636L51.3855 15.7636C51.3563 15.5334 51.3564 15.2794 51.3858 15.0015C51.4151 14.7236 51.4936 14.4516 51.6212 14.1855C51.7567 13.9183 51.9618 13.6908 52.2363 13.5028C52.5099 13.3069 52.8769 13.1798 53.3372 13.1216C53.5912 13.0894 53.8 13.0832 53.9638 13.1028C54.1345 13.1134 54.2198 13.1187 54.2198 13.1187L54.381 14.3926C54.381 14.3926 54.3324 14.3907 54.2352 14.3869C54.1379 14.383 54.0377 14.3877 53.9345 14.4007C53.6091 14.4419 53.395 14.5658 53.2921 14.7723C53.1892 14.9789 53.1569 15.2329 53.195 15.5345L53.2583 16.0345L54.5321 15.8733L54.7145 17.3138L53.4406 17.4751L54.0569 22.3442L52.2473 22.5732ZM59.4125 21.7874C58.7062 21.8768 58.0879 21.8018 57.5576 21.5625C57.0264 21.3152 56.5987 20.9621 56.2745 20.5032C55.9572 20.0353 55.7619 19.5117 55.6886 18.9323C55.6153 18.353 55.6745 17.8012 55.8662 17.2769C56.0648 16.7438 56.3911 16.2953 56.845 15.9314C57.2979 15.5596 57.8775 15.329 58.5839 15.2396C59.2902 15.1502 59.909 15.2291 60.4403 15.4764C60.9705 15.7157 61.3943 16.0693 61.7115 16.5372C62.0357 16.9961 62.2345 17.5152 62.3078 18.0946C62.3811 18.674 62.3185 19.2303 62.1198 19.7634C61.9281 20.2876 61.6058 20.7357 61.1529 21.1075C60.699 21.4713 60.1189 21.698 59.4125 21.7874ZM59.2257 20.3111C59.5432 20.271 59.7985 20.154 59.9917 19.9602C60.1928 19.7654 60.3359 19.5255 60.4208 19.2406C60.5047 18.9478 60.5265 18.6426 60.4863 18.3251C60.4451 17.9997 60.348 17.7096 60.1948 17.4549C60.0416 17.2001 59.8433 17.0034 59.6 16.8649C59.3646 16.7253 59.0882 16.6756 58.7707 16.7158C58.4532 16.756 58.1939 16.8735 57.9928 17.0683C57.7917 17.2631 57.6486 17.5029 57.5637 17.7878C57.4868 18.0718 57.4689 18.3764 57.5101 18.7018C57.5502 19.0193 57.6435 19.3099 57.7897 19.5736C57.9429 19.8284 58.1412 20.025 58.3845 20.1636C58.6278 20.3021 58.9082 20.3513 59.2257 20.3111ZM64.0071 21.0849L63.2086 14.7752L65.0063 14.5477L65.1223 15.4644L65.1818 15.4569C65.2321 15.2812 65.3107 15.1059 65.4176 14.9311C65.5245 14.7563 65.6826 14.6033 65.8917 14.472C66.1009 14.3407 66.3801 14.2529 66.7293 14.2087C66.9039 14.1866 67.0443 14.1809 67.1505 14.1917C67.2557 14.1945 67.3083 14.1959 67.3083 14.1959L67.5343 15.9817C67.5343 15.9817 67.4733 15.9773 67.3512 15.9686C67.2371 15.9588 67.0887 15.9655 66.9062 15.9886C66.3427 16.0599 65.9416 16.2679 65.703 16.6126C65.4634 16.9493 65.3873 17.463 65.4747 18.1535L65.8167 20.8559L64.0071 21.0849ZM74.5214 19.7542L74.1402 16.7423L70.3112 11.3362L72.3231 11.0816L74.8189 14.7452L76.3232 10.5754L78.3352 10.3207L75.9736 16.5102L76.3548 19.5222L74.5214 19.7542ZM82.3739 18.8814C81.6675 18.9708 81.0492 18.8958 80.519 18.6565C79.9878 18.4093 79.56 18.0562 79.2358 17.5972C78.9186 17.1294 78.7233 16.6057 78.65 16.0264C78.5766 15.447 78.6358 14.8952 78.8275 14.371C79.0262 13.8378 79.3524 13.3893 79.8063 13.0254C80.2592 12.6536 80.8389 12.423 81.5452 12.3336C82.2516 12.2442 82.8704 12.3231 83.4017 12.5704C83.9319 12.8097 84.3556 13.1633 84.6729 13.6312C84.9971 14.0901 85.1958 14.6093 85.2692 15.1886C85.3425 15.768 85.2798 16.3243 85.0812 16.8574C84.8895 17.3817 84.5672 17.8297 84.1143 18.2015C83.6604 18.5654 83.0803 18.792 82.3739 18.8814ZM82.1871 17.4052C82.5046 17.365 82.7599 17.248 82.9531 17.0542C83.1542 16.8594 83.2972 16.6196 83.3821 16.3346C83.466 16.0418 83.4879 15.7366 83.4477 15.4192C83.4065 15.0938 83.3093 14.8037 83.1561 14.5489C83.0029 14.2941 82.8047 14.0974 82.5613 13.9589C82.326 13.8193 82.0495 13.7697 81.7321 13.8098C81.4146 13.85 81.1553 13.9675 80.9542 14.1623C80.753 14.3571 80.61 14.597 80.5251 14.8819C80.4482 15.1658 80.4303 15.4704 80.4714 15.7958C80.5116 16.1133 80.6048 16.4039 80.7511 16.6676C80.9043 16.9224 81.1026 17.1191 81.3459 17.2576C81.5892 17.3962 81.8696 17.4453 82.1871 17.4052ZM88.9479 18.0494C88.5035 18.1056 88.1223 18.0571 87.8046 17.9038C87.4948 17.7495 87.2483 17.5226 87.0653 17.2232C86.8812 16.9159 86.7636 16.5599 86.7124 16.1551L86.17 11.8693L87.9676 11.6418L88.4648 15.5704C88.503 15.872 88.6135 16.108 88.7964 16.2784C88.9782 16.4409 89.2239 16.5025 89.5334 16.4633C89.7953 16.4302 89.9936 16.3406 90.1284 16.1945C90.271 16.0474 90.3655 15.8702 90.4118 15.6627C90.4581 15.4552 90.4672 15.2404 90.4391 15.0182L89.9796 11.3871L91.7891 11.1581L92.5877 17.4678L90.7781 17.6968L90.6651 16.8039L90.5937 16.813C90.4899 17.0761 90.3087 17.3329 90.0501 17.5833C89.7995 17.8328 89.4321 17.9881 88.9479 18.0494Z" fill="white"/>
</g>
<defs>
<clipPath id="clip0_223_13710">
<rect y="13.058" width="104" height="24" rx="4" transform="rotate(-7.21296 0 13.058)" fill="white"/>
</clipPath>
</defs>
</svg>
