<svg width="56" height="56" viewBox="0 0 56 56" fill="none" xmlns="http://www.w3.org/2000/svg">
<path opacity="0.5" d="M38.778 47.0192C39.2314 49.4427 37.3091 51.8356 37.3091 51.8356C37.3091 51.8356 34.6523 50.2992 34.1989 47.8757C33.7455 45.4521 35.6679 43.0593 35.6679 43.0593C35.6679 43.0593 38.3246 44.5957 38.778 47.0192Z" fill="url(#paint0_linear_249_14695)"/>
<path opacity="0.5" d="M32.3134 50.5149C34.7687 50.2905 36.9713 52.428 36.9713 52.428C36.9713 52.428 35.1928 54.9296 32.7378 55.1541C30.2825 55.3785 28.0799 53.241 28.0799 53.241C28.0799 53.241 29.8582 50.7398 32.3134 50.5149Z" fill="url(#paint1_linear_249_14695)"/>
<path opacity="0.5" d="M27.7771 46.9117C30.2425 46.9105 32.2427 49.2387 32.2427 49.2387C32.2427 49.2387 30.2454 51.5688 27.7796 51.5698C25.3142 51.571 23.314 49.2428 23.314 49.2428C23.314 49.2428 25.3114 46.9127 27.7771 46.9117Z" fill="url(#paint2_linear_249_14695)"/>
<path opacity="0.5" d="M24.685 42.3372C27.0956 42.8554 28.5605 45.5523 28.5605 45.5523C28.5605 45.5523 26.1169 47.4095 23.7064 46.8913C21.2959 46.3731 19.8309 43.6762 19.8309 43.6762C19.8309 43.6762 22.2745 41.819 24.685 42.3372Z" fill="url(#paint3_linear_249_14695)"/>
<path opacity="0.5" d="M22.549 37.2855C24.767 38.362 25.5481 41.3305 25.5481 41.3305C25.5481 41.3305 22.7329 42.5528 20.515 41.4763C18.2971 40.3998 17.516 37.4313 17.516 37.4313C17.516 37.4313 20.3311 36.209 22.549 37.2855Z" fill="url(#paint4_linear_249_14695)"/>
<path opacity="0.5" d="M21.6744 31.4621C23.4238 33.199 23.2009 36.2604 23.2009 36.2604C23.2009 36.2604 20.1413 36.505 18.3921 34.7676C16.6422 33.0305 16.8655 29.9693 16.8655 29.9693C16.8655 29.9693 19.9245 29.7249 21.6744 31.4621Z" fill="url(#paint5_linear_249_14695)"/>
<path opacity="0.5" d="M21.7664 25.7188C23.1624 27.751 22.3741 30.7172 22.3741 30.7172C22.3741 30.7172 19.3225 30.3886 17.9265 28.3564C16.5305 26.3242 17.3187 23.3581 17.3187 23.3581C17.3187 23.3581 20.3704 23.6866 21.7664 25.7188Z" fill="url(#paint6_linear_249_14695)"/>
<path opacity="0.5" d="M23.0911 20.0747C23.873 22.4131 22.2976 25.0468 22.2976 25.0468C22.2976 25.0468 19.4546 23.8899 18.6731 21.5517C17.8911 19.2133 19.4665 16.5796 19.4665 16.5796C19.4665 16.5796 22.3092 17.7363 23.0911 20.0747Z" fill="url(#paint7_linear_249_14695)"/>
<path opacity="0.5" d="M25.4207 14.7258C25.7017 17.1754 23.6152 19.4263 23.6152 19.4263C23.6152 19.4263 21.0733 17.7061 20.7927 15.2567C20.5117 12.8072 22.5982 10.5562 22.5982 10.5562C22.5982 10.5562 25.1397 12.2762 25.4207 14.7258Z" fill="url(#paint8_linear_249_14695)"/>
<path opacity="0.5" d="M28.6346 9.51452C28.564 11.979 26.1787 13.9103 26.1787 13.9103C26.1787 13.9103 23.9079 11.8457 23.9781 9.38102C24.0486 6.91655 26.4339 4.98523 26.4339 4.98523C26.4339 4.98523 28.7051 7.05006 28.6346 9.51452Z" fill="url(#paint9_linear_249_14695)"/>
<path opacity="0.5" d="M34.524 43.3882C34.6962 45.8478 32.5119 48.0044 32.5119 48.0044C32.5119 48.0044 30.0491 46.1729 29.8769 43.7133C29.7047 41.2538 31.8888 39.0976 31.8888 39.0976C31.8888 39.0976 34.3518 40.9287 34.524 43.3882Z" fill="url(#paint10_linear_249_14695)"/>
<path opacity="0.5" d="M31.257 38.8067C30.7039 41.2094 27.9858 42.6348 27.9858 42.6348C27.9858 42.6348 26.1643 40.1648 26.7171 37.7619C27.2703 35.3592 29.9884 33.9338 29.9884 33.9338C29.9884 33.9338 31.8102 36.404 31.257 38.8067Z" fill="url(#paint11_linear_249_14695)"/>
<path opacity="0.5" d="M29.0658 33.4068C28.1428 35.6928 25.2345 36.6742 25.2345 36.6742C25.2345 36.6742 23.823 33.9487 24.7463 31.6623C25.6693 29.3763 28.5776 28.3949 28.5776 28.3949C28.5776 28.3949 29.9889 31.1208 29.0658 33.4068Z" fill="url(#paint12_linear_249_14695)"/>
<path opacity="0.5" d="M28.2858 27.4173C27.0096 29.5265 23.9819 30.031 23.9819 30.031C23.9819 30.031 23.0239 27.1152 24.3003 25.0055C25.5768 22.8959 28.6042 22.3918 28.6042 22.3918C28.6042 22.3918 29.5623 25.3076 28.2858 27.4173Z" fill="url(#paint13_linear_249_14695)"/>
<path opacity="0.5" d="M29.1326 21.3853C27.4266 23.1654 24.3618 22.9964 24.3618 22.9964C24.3618 22.9964 24.0633 19.9415 25.7694 18.162C27.4754 16.3818 30.5402 16.5509 30.5402 16.5509C30.5402 16.5509 30.839 19.6053 29.1326 21.3853Z" fill="url(#paint14_linear_249_14695)"/>
<path opacity="0.5" d="M31.6656 14.7726C30.0256 16.4838 27.0793 16.3216 27.0793 16.3216C27.0793 16.3216 26.7924 13.3852 28.4326 11.6737C30.0725 9.96257 33.0188 10.1247 33.0188 10.1247C33.0188 10.1247 33.3056 13.0615 31.6656 14.7726Z" fill="url(#paint15_linear_249_14695)"/>
<path opacity="0.5" d="M33.617 8.06524C32.2977 10.0343 29.368 10.3841 29.368 10.3841C29.368 10.3841 28.5774 7.54137 29.8967 5.57233C31.216 3.60328 34.1457 3.25344 34.1457 3.25344C34.1457 3.25344 34.9367 6.09641 33.617 8.06524Z" fill="url(#paint16_linear_249_14695)"/>
<path opacity="0.5" d="M27.2048 14.0713C23.6478 20.3192 22.5339 27.7278 24.28 34.7224C26.0866 41.9585 30.7806 48.1421 37.2072 51.9043C37.3834 52.0076 37.5422 52.4571 37.2315 52.2751C27.2506 46.4321 21.5707 34.956 23.3441 23.4646C23.873 20.0365 25.0592 16.7577 26.7734 13.7469C26.8851 13.5515 27.2935 13.9149 27.2048 14.0713Z" fill="url(#paint17_linear_249_14695)"/>
<defs>
<linearGradient id="paint0_linear_249_14695" x1="33.7683" y1="49.7913" x2="38.1603" y2="50.6252" gradientUnits="userSpaceOnUse">
<stop stop-color="#C2712E"/>
<stop offset="1" stop-color="#D4963F"/>
</linearGradient>
<linearGradient id="paint1_linear_249_14695" x1="29.8799" y1="54.5083" x2="35.0273" y2="54.7168" gradientUnits="userSpaceOnUse">
<stop stop-color="#C2712E"/>
<stop offset="1" stop-color="#D4963F"/>
</linearGradient>
<linearGradient id="paint2_linear_249_14695" x1="25.1297" y1="50.7454" x2="30.4478" y2="50.7083" gradientUnits="userSpaceOnUse">
<stop stop-color="#C2712E"/>
<stop offset="1" stop-color="#D4963F"/>
</linearGradient>
<linearGradient id="paint3_linear_249_14695" x1="21.5185" y1="45.8623" x2="27.0492" y2="45.3778" gradientUnits="userSpaceOnUse">
<stop stop-color="#C2712E"/>
<stop offset="1" stop-color="#D4963F"/>
</linearGradient>
<linearGradient id="paint4_linear_249_14695" x1="18.8274" y1="40.5137" x2="24.4344" y2="39.7982" gradientUnits="userSpaceOnUse">
<stop stop-color="#C2712E"/>
<stop offset="1" stop-color="#D4963F"/>
</linearGradient>
<linearGradient id="paint5_linear_249_14695" x1="17.3479" y1="34.3234" x2="22.9059" y2="33.7617" gradientUnits="userSpaceOnUse">
<stop stop-color="#C2712E"/>
<stop offset="1" stop-color="#D4963F"/>
</linearGradient>
<linearGradient id="paint6_linear_249_14695" x1="17.1891" y1="28.4267" x2="22.6107" y2="28.1994" gradientUnits="userSpaceOnUse">
<stop stop-color="#C2712E"/>
<stop offset="1" stop-color="#D4963F"/>
</linearGradient>
<linearGradient id="paint7_linear_249_14695" x1="18.224" y1="22.7507" x2="23.0715" y2="23.2679" gradientUnits="userSpaceOnUse">
<stop stop-color="#C2712E"/>
<stop offset="1" stop-color="#D4963F"/>
</linearGradient>
<linearGradient id="paint8_linear_249_14695" x1="20.3408" y1="17.5359" x2="24.5241" y2="18.4721" gradientUnits="userSpaceOnUse">
<stop stop-color="#C2712E"/>
<stop offset="1" stop-color="#D4963F"/>
</linearGradient>
<linearGradient id="paint9_linear_249_14695" x1="23.4478" y1="12.3336" x2="27.3015" y2="13.3859" gradientUnits="userSpaceOnUse">
<stop stop-color="#C2712E"/>
<stop offset="1" stop-color="#D4963F"/>
</linearGradient>
<linearGradient id="paint10_linear_249_14695" x1="29.4053" y1="46.2108" x2="33.473" y2="47.1934" gradientUnits="userSpaceOnUse">
<stop stop-color="#C2712E"/>
<stop offset="1" stop-color="#D4963F"/>
</linearGradient>
<linearGradient id="paint11_linear_249_14695" x1="26.0203" y1="41.5001" x2="29.6021" y2="42.6161" gradientUnits="userSpaceOnUse">
<stop stop-color="#C2712E"/>
<stop offset="1" stop-color="#D4963F"/>
</linearGradient>
<linearGradient id="paint12_linear_249_14695" x1="23.8855" y1="35.8954" x2="27.3662" y2="37.0298" gradientUnits="userSpaceOnUse">
<stop stop-color="#C2712E"/>
<stop offset="1" stop-color="#D4963F"/>
</linearGradient>
<linearGradient id="paint13_linear_249_14695" x1="23.2568" y1="29.6123" x2="26.7121" y2="30.7512" gradientUnits="userSpaceOnUse">
<stop stop-color="#C2712E"/>
<stop offset="1" stop-color="#D4963F"/>
</linearGradient>
<linearGradient id="paint14_linear_249_14695" x1="24.4609" y1="23.0536" x2="27.9964" y2="24.1783" gradientUnits="userSpaceOnUse">
<stop stop-color="#C2712E"/>
<stop offset="1" stop-color="#D4963F"/>
</linearGradient>
<linearGradient id="paint15_linear_249_14695" x1="27.1745" y1="16.3766" x2="30.5731" y2="17.4578" gradientUnits="userSpaceOnUse">
<stop stop-color="#C2712E"/>
<stop offset="1" stop-color="#D4963F"/>
</linearGradient>
<linearGradient id="paint16_linear_249_14695" x1="28.8412" y1="10.08" x2="32.168" y2="11.1739" gradientUnits="userSpaceOnUse">
<stop stop-color="#C2712E"/>
<stop offset="1" stop-color="#D4963F"/>
</linearGradient>
<linearGradient id="paint17_linear_249_14695" x1="20.1171" y1="42.3941" x2="40.9804" y2="45.3674" gradientUnits="userSpaceOnUse">
<stop stop-color="#C2712E"/>
<stop offset="1" stop-color="#D4963F"/>
</linearGradient>
</defs>
</svg>
