<svg width="56" height="56" viewBox="0 0 56 56" fill="none" xmlns="http://www.w3.org/2000/svg">
<path opacity="0.5" d="M17.2926 47.019C16.8391 49.4425 18.7615 51.8354 18.7615 51.8354C18.7615 51.8354 21.4182 50.299 21.8716 47.8755C22.3251 45.4519 20.4027 43.059 20.4027 43.059C20.4027 43.059 17.746 44.5955 17.2926 47.019Z" fill="url(#paint0_linear_249_14716)"/>
<path opacity="0.5" d="M23.7572 50.5147C21.3018 50.2903 19.0993 52.4278 19.0993 52.4278C19.0993 52.4278 20.8778 54.9294 23.3327 55.1539C25.788 55.3783 27.9906 53.2408 27.9906 53.2408C27.9906 53.2408 26.2123 50.7396 23.7572 50.5147Z" fill="url(#paint1_linear_249_14716)"/>
<path opacity="0.5" d="M28.2934 46.9115C25.828 46.9103 23.8278 49.2385 23.8278 49.2385C23.8278 49.2385 25.8252 51.5686 28.291 51.5696C30.7564 51.5708 32.7566 49.2426 32.7566 49.2426C32.7566 49.2426 30.7592 46.9125 28.2934 46.9115Z" fill="url(#paint2_linear_249_14716)"/>
<path opacity="0.5" d="M31.3855 42.337C28.975 42.8552 27.5101 45.5521 27.5101 45.5521C27.5101 45.5521 29.9536 47.4093 32.3642 46.8911C34.7747 46.3728 36.2396 43.676 36.2396 43.676C36.2396 43.676 33.7961 41.8188 31.3855 42.337Z" fill="url(#paint3_linear_249_14716)"/>
<path opacity="0.5" d="M33.5213 37.2853C31.3033 38.3618 30.5222 41.3303 30.5222 41.3303C30.5222 41.3303 33.3374 42.5526 35.5553 41.4761C37.7732 40.3996 38.5543 37.4311 38.5543 37.4311C38.5543 37.4311 35.7392 36.2088 33.5213 37.2853Z" fill="url(#paint4_linear_249_14716)"/>
<path opacity="0.5" d="M34.3955 31.4619C32.646 33.1988 32.8689 36.2602 32.8689 36.2602C32.8689 36.2602 35.9285 36.5048 37.6778 34.7674C39.4276 33.0303 39.2043 29.9691 39.2043 29.9691C39.2043 29.9691 36.1453 29.7247 34.3955 31.4619Z" fill="url(#paint5_linear_249_14716)"/>
<path opacity="0.5" d="M34.3037 25.7186C32.9077 27.7508 33.6959 30.717 33.6959 30.717C33.6959 30.717 36.7476 30.3884 38.1436 28.3562C39.5396 26.3241 38.7513 23.3579 38.7513 23.3579C38.7513 23.3579 35.6997 23.6865 34.3037 25.7186Z" fill="url(#paint6_linear_249_14716)"/>
<path opacity="0.5" d="M32.9795 20.0745C32.1975 22.4129 33.773 25.0466 33.773 25.0466C33.773 25.0466 36.616 23.8897 37.3975 21.5515C38.1794 19.213 36.604 16.5793 36.604 16.5793C36.604 16.5793 33.7614 17.7361 32.9795 20.0745Z" fill="url(#paint7_linear_249_14716)"/>
<path opacity="0.5" d="M30.6499 14.7256C30.3689 17.1752 32.4554 19.4261 32.4554 19.4261C32.4554 19.4261 34.9972 17.7059 35.2778 15.2565C35.5588 12.8069 33.4723 10.556 33.4723 10.556C33.4723 10.556 30.9309 12.276 30.6499 14.7256Z" fill="url(#paint8_linear_249_14716)"/>
<path opacity="0.5" d="M27.4353 9.51431C27.5058 11.9788 29.8911 13.9101 29.8911 13.9101C29.8911 13.9101 32.1619 11.8455 32.0918 9.3808C32.0212 6.91633 29.6359 4.98502 29.6359 4.98502C29.6359 4.98502 27.3647 7.04984 27.4353 9.51431Z" fill="url(#paint9_linear_249_14716)"/>
<path opacity="0.5" d="M21.5464 43.388C21.3742 45.8475 23.5584 48.0041 23.5584 48.0041C23.5584 48.0041 26.0212 46.1726 26.1934 43.7131C26.3656 41.2536 24.1816 39.0973 24.1816 39.0973C24.1816 39.0973 21.7185 40.9284 21.5464 43.388Z" fill="url(#paint10_linear_249_14716)"/>
<path opacity="0.5" d="M24.8135 38.8065C25.3667 41.2092 28.0848 42.6346 28.0848 42.6346C28.0848 42.6346 29.9062 40.1646 29.3535 37.7617C28.8003 35.359 26.0822 33.9336 26.0822 33.9336C26.0822 33.9336 24.2604 36.4038 24.8135 38.8065Z" fill="url(#paint11_linear_249_14716)"/>
<path opacity="0.5" d="M27.0042 33.4066C27.9273 35.6926 30.8356 36.674 30.8356 36.674C30.8356 36.674 32.247 33.9486 31.3238 31.6622C30.4007 29.3762 27.4924 28.3948 27.4924 28.3948C27.4924 28.3948 26.0812 31.1206 27.0042 33.4066Z" fill="url(#paint12_linear_249_14716)"/>
<path opacity="0.5" d="M27.7847 27.4171C29.061 29.5263 32.0886 30.0308 32.0886 30.0308C32.0886 30.0308 33.0467 27.1149 31.7703 25.0053C30.4938 22.8956 27.4664 22.3916 27.4664 22.3916C27.4664 22.3916 26.5083 25.3074 27.7847 27.4171Z" fill="url(#paint13_linear_249_14716)"/>
<path opacity="0.5" d="M26.9375 21.3851C28.6435 23.1653 31.7082 22.9962 31.7082 22.9962C31.7082 22.9962 32.0068 19.9413 30.3007 18.1618C28.5947 16.3816 25.5299 16.5507 25.5299 16.5507C25.5299 16.5507 25.2311 19.6052 26.9375 21.3851Z" fill="url(#paint14_linear_249_14716)"/>
<path opacity="0.5" d="M24.405 14.7725C26.045 16.4836 28.9912 16.3214 28.9912 16.3214C28.9912 16.3214 29.2782 13.385 27.638 11.6735C25.998 9.96238 23.0518 10.1245 23.0518 10.1245C23.0518 10.1245 22.765 13.0613 24.405 14.7725Z" fill="url(#paint15_linear_249_14716)"/>
<path opacity="0.5" d="M22.4536 8.06502C23.7729 10.0341 26.7026 10.3839 26.7026 10.3839C26.7026 10.3839 27.4932 7.54116 26.1739 5.57211C24.8546 3.60307 21.9249 3.25323 21.9249 3.25323C21.9249 3.25323 21.1339 6.0962 22.4536 8.06502Z" fill="url(#paint16_linear_249_14716)"/>
<path opacity="0.5" d="M28.8658 14.0711C32.4227 20.319 33.5367 27.7276 31.7906 34.7222C29.9839 41.9583 25.29 48.1419 18.8633 51.9041C18.6871 52.0074 18.5283 52.4569 18.839 52.2749C28.82 46.4319 34.4998 34.9558 32.7265 23.4644C32.1975 20.0363 31.0114 16.7575 29.2972 13.7467C29.1854 13.5513 28.777 13.9147 28.8658 14.0711Z" fill="url(#paint17_linear_249_14716)"/>
<defs>
<linearGradient id="paint0_linear_249_14716" x1="22.3023" y1="49.7911" x2="17.9102" y2="50.625" gradientUnits="userSpaceOnUse">
<stop stop-color="#C2712E"/>
<stop offset="1" stop-color="#D4963F"/>
</linearGradient>
<linearGradient id="paint1_linear_249_14716" x1="26.1907" y1="54.5081" x2="21.0432" y2="54.7166" gradientUnits="userSpaceOnUse">
<stop stop-color="#C2712E"/>
<stop offset="1" stop-color="#D4963F"/>
</linearGradient>
<linearGradient id="paint2_linear_249_14716" x1="30.9409" y1="50.7452" x2="25.6228" y2="50.7081" gradientUnits="userSpaceOnUse">
<stop stop-color="#C2712E"/>
<stop offset="1" stop-color="#D4963F"/>
</linearGradient>
<linearGradient id="paint3_linear_249_14716" x1="34.5521" y1="45.8621" x2="29.0214" y2="45.3775" gradientUnits="userSpaceOnUse">
<stop stop-color="#C2712E"/>
<stop offset="1" stop-color="#D4963F"/>
</linearGradient>
<linearGradient id="paint4_linear_249_14716" x1="37.2429" y1="40.5136" x2="31.6359" y2="39.798" gradientUnits="userSpaceOnUse">
<stop stop-color="#C2712E"/>
<stop offset="1" stop-color="#D4963F"/>
</linearGradient>
<linearGradient id="paint5_linear_249_14716" x1="38.7219" y1="34.3232" x2="33.1639" y2="33.7615" gradientUnits="userSpaceOnUse">
<stop stop-color="#C2712E"/>
<stop offset="1" stop-color="#D4963F"/>
</linearGradient>
<linearGradient id="paint6_linear_249_14716" x1="38.8809" y1="28.4266" x2="33.4594" y2="28.1992" gradientUnits="userSpaceOnUse">
<stop stop-color="#C2712E"/>
<stop offset="1" stop-color="#D4963F"/>
</linearGradient>
<linearGradient id="paint7_linear_249_14716" x1="37.8465" y1="22.7505" x2="32.9991" y2="23.2677" gradientUnits="userSpaceOnUse">
<stop stop-color="#C2712E"/>
<stop offset="1" stop-color="#D4963F"/>
</linearGradient>
<linearGradient id="paint8_linear_249_14716" x1="35.7297" y1="17.5357" x2="31.5464" y2="18.4719" gradientUnits="userSpaceOnUse">
<stop stop-color="#C2712E"/>
<stop offset="1" stop-color="#D4963F"/>
</linearGradient>
<linearGradient id="paint9_linear_249_14716" x1="32.622" y1="12.3334" x2="28.7683" y2="13.3857" gradientUnits="userSpaceOnUse">
<stop stop-color="#C2712E"/>
<stop offset="1" stop-color="#D4963F"/>
</linearGradient>
<linearGradient id="paint10_linear_249_14716" x1="26.665" y1="46.2105" x2="22.5973" y2="47.1931" gradientUnits="userSpaceOnUse">
<stop stop-color="#C2712E"/>
<stop offset="1" stop-color="#D4963F"/>
</linearGradient>
<linearGradient id="paint11_linear_249_14716" x1="30.0503" y1="41.4999" x2="26.4684" y2="42.6159" gradientUnits="userSpaceOnUse">
<stop stop-color="#C2712E"/>
<stop offset="1" stop-color="#D4963F"/>
</linearGradient>
<linearGradient id="paint12_linear_249_14716" x1="32.1846" y1="35.8952" x2="28.7038" y2="37.0296" gradientUnits="userSpaceOnUse">
<stop stop-color="#C2712E"/>
<stop offset="1" stop-color="#D4963F"/>
</linearGradient>
<linearGradient id="paint13_linear_249_14716" x1="32.8138" y1="29.6121" x2="29.3584" y2="30.751" gradientUnits="userSpaceOnUse">
<stop stop-color="#C2712E"/>
<stop offset="1" stop-color="#D4963F"/>
</linearGradient>
<linearGradient id="paint14_linear_249_14716" x1="31.6092" y1="23.0534" x2="28.0737" y2="24.1781" gradientUnits="userSpaceOnUse">
<stop stop-color="#C2712E"/>
<stop offset="1" stop-color="#D4963F"/>
</linearGradient>
<linearGradient id="paint15_linear_249_14716" x1="28.8961" y1="16.3764" x2="25.4974" y2="17.4577" gradientUnits="userSpaceOnUse">
<stop stop-color="#C2712E"/>
<stop offset="1" stop-color="#D4963F"/>
</linearGradient>
<linearGradient id="paint16_linear_249_14716" x1="27.2293" y1="10.0798" x2="23.9026" y2="11.1737" gradientUnits="userSpaceOnUse">
<stop stop-color="#C2712E"/>
<stop offset="1" stop-color="#D4963F"/>
</linearGradient>
<linearGradient id="paint17_linear_249_14716" x1="35.9534" y1="42.3939" x2="15.0902" y2="45.3672" gradientUnits="userSpaceOnUse">
<stop stop-color="#C2712E"/>
<stop offset="1" stop-color="#D4963F"/>
</linearGradient>
</defs>
</svg>
