<svg width="329" height="26" viewBox="0 0 329 26" fill="none" xmlns="http://www.w3.org/2000/svg">
<path d="M0.5 13H55.5" stroke="url(#paint0_linear_223_12967)" stroke-linecap="round"/>
<path d="M270.96 0.5C272.322 0.5 272.98 2.16907 271.983 3.09766L262.234 12.1826C262.028 12.3749 262.021 12.7 262.22 12.9004L272.168 22.9443C273.106 23.8912 272.435 25.4996 271.103 25.5H57.9062C56.5716 25.5 55.9013 23.8874 56.8428 22.9414L66.3867 13.3525C66.5805 13.1575 66.5805 12.8425 66.3867 12.6475L56.8428 3.05859C55.9013 2.11263 56.5716 0.5 57.9062 0.5H270.96Z" fill="url(#paint1_linear_223_12967)" stroke="white"/>
<path d="M85.4502 17.0299L85.4174 9.62996L86.9673 9.61858L88.996 13.8138L91.0172 9.58883L92.5472 9.57759L92.58 16.9775L91.43 16.986L91.4049 11.326L89.5519 15.1597L88.462 15.1677L86.575 11.3415L86.6002 17.0214L85.4502 17.0299ZM96.2488 11.5504C96.5821 11.548 96.859 11.5993 97.0795 11.7043C97.3066 11.8093 97.4871 11.9314 97.6211 12.0704C97.755 12.2094 97.8522 12.3287 97.9127 12.4282L97.9727 12.4278L97.9692 11.6378L99.1091 11.6294L99.1327 16.9294L97.9927 16.9378L97.9892 16.1478L97.9292 16.1482C97.8696 16.2486 97.7735 16.3693 97.6408 16.5103C97.5081 16.6513 97.3286 16.776 97.1024 16.8843C96.8829 16.9926 96.6065 17.0479 96.2732 17.0504C95.8732 17.0533 95.5229 16.9792 95.2222 16.8281C94.9281 16.6703 94.6806 16.4621 94.4794 16.2035C94.2782 15.9383 94.1269 15.6428 94.0255 15.3169C93.9307 14.9909 93.8825 14.6579 93.881 14.3179C93.8795 13.9779 93.9247 13.6442 94.0166 13.3169C94.1151 12.9895 94.2638 12.695 94.4627 12.4336C94.6615 12.1654 94.9072 11.9536 95.1999 11.7982C95.4991 11.6359 95.8488 11.5534 96.2488 11.5504ZM96.503 12.4986C96.1763 12.501 95.9034 12.593 95.6842 12.7746C95.465 12.9496 95.2993 13.1741 95.1872 13.4483C95.0817 13.7224 95.0297 14.0095 95.031 14.3094C95.0323 14.6094 95.0869 14.8957 95.1948 15.1683C95.3094 15.4408 95.477 15.6662 95.6978 15.8446C95.9186 16.0163 96.1923 16.101 96.519 16.0986C96.8456 16.0962 97.1152 16.0075 97.3278 15.8326C97.547 15.651 97.7093 15.4231 97.8147 15.149C97.9269 14.8749 97.9823 14.5878 97.9809 14.2878C97.9796 13.9878 97.9217 13.7015 97.8071 13.429C97.6992 13.1565 97.5349 12.9344 97.3142 12.7626C97.1 12.5842 96.8296 12.4962 96.503 12.4986ZM100.567 16.9188L100.533 9.31892L101.673 9.31054L101.693 13.7205L103.673 11.5959L105.073 11.5856L102.774 14.0226L105.167 16.885L103.757 16.8954L101.696 14.4105L101.707 16.9105L100.567 16.9188ZM108.231 16.9625C107.784 16.9658 107.397 16.892 107.07 16.7411C106.749 16.5834 106.481 16.3754 106.267 16.117C106.059 15.8518 105.901 15.5563 105.793 15.2304C105.692 14.9045 105.64 14.5715 105.639 14.2315C105.637 13.8982 105.686 13.5678 105.784 13.2404C105.883 12.913 106.035 12.6152 106.24 12.3471C106.446 12.0789 106.708 11.8669 107.027 11.7113C107.347 11.5489 107.723 11.4661 108.156 11.463C108.623 11.4595 109.033 11.5632 109.388 11.7739C109.749 11.9779 110.03 12.2859 110.232 12.6977C110.44 13.1029 110.546 13.6088 110.548 14.2155L110.55 14.5255L106.79 14.5531C106.818 14.9595 106.957 15.3085 107.205 15.6001C107.453 15.8916 107.793 16.0357 108.227 16.0326C108.473 16.0307 108.676 15.9892 108.836 15.9081C108.996 15.8202 109.119 15.7227 109.205 15.6154C109.291 15.5081 109.35 15.4143 109.383 15.334C109.423 15.2537 109.443 15.2136 109.443 15.2136L110.503 15.2058C110.503 15.2058 110.486 15.2659 110.454 15.3862C110.421 15.4998 110.358 15.6436 110.266 15.8176C110.18 15.9915 110.054 16.1658 109.888 16.3404C109.722 16.5149 109.503 16.6632 109.23 16.7852C108.957 16.9005 108.624 16.9597 108.231 16.9625ZM106.796 13.753L109.446 13.7335C109.418 13.2671 109.276 12.9248 109.022 12.7066C108.774 12.4885 108.484 12.3806 108.15 12.383C107.777 12.3858 107.468 12.5114 107.222 12.7599C106.976 13.0017 106.835 13.3327 106.796 13.753ZM116.42 16.9024C116 16.9055 115.663 16.8313 115.409 16.6798C115.155 16.5283 114.971 16.3264 114.856 16.0739C114.748 15.8146 114.694 15.535 114.692 15.235L114.68 12.4351L113.75 12.4419L113.746 11.5219L114.676 11.5151L114.67 10.1951L115.81 10.1867L115.816 11.5067L117.056 11.4976L117.06 12.4176L115.82 12.4267L115.832 15.2067C115.835 15.7067 116.112 15.9546 116.666 15.9506C116.806 15.9495 116.936 15.9386 117.055 15.9177C117.175 15.8968 117.235 15.8864 117.235 15.8864L117.239 16.8164C117.239 16.8164 117.156 16.8303 116.99 16.8582C116.83 16.886 116.64 16.9008 116.42 16.9024ZM118.506 16.7871L118.472 9.18713L119.612 9.17876L119.626 12.2487L119.686 12.2483C119.732 12.1546 119.812 12.0407 119.924 11.9065C120.037 11.7657 120.193 11.6412 120.393 11.5331C120.599 11.4249 120.859 11.3697 121.172 11.3674C121.565 11.3645 121.896 11.452 122.163 11.6301C122.431 11.8081 122.632 12.0466 122.766 12.3457C122.908 12.6446 122.979 12.9741 122.981 13.3341L122.996 16.7541L121.856 16.7624L121.841 13.4625C121.84 13.1425 121.749 12.8731 121.568 12.6545C121.393 12.4357 121.133 12.3277 120.786 12.3302C120.513 12.3322 120.29 12.4039 120.117 12.5451C119.951 12.6797 119.829 12.8573 119.75 13.0778C119.67 13.2918 119.631 13.522 119.633 13.7687L119.646 16.7787L118.506 16.7871ZM126.56 11.3278C126.894 11.3253 127.171 11.3766 127.391 11.4817C127.618 11.5867 127.799 11.7087 127.933 11.8477C128.067 11.9867 128.164 12.106 128.224 12.2056L128.284 12.2051L128.281 11.4151L129.421 11.4068L129.444 16.7067L128.304 16.7151L128.301 15.9251L128.241 15.9255C128.181 16.026 128.085 16.1467 127.952 16.2877C127.82 16.4286 127.64 16.5533 127.414 16.6616C127.195 16.7699 126.918 16.8253 126.585 16.8277C126.185 16.8307 125.835 16.7566 125.534 16.6054C125.24 16.4476 124.992 16.2394 124.791 15.9809C124.59 15.7157 124.439 15.4201 124.337 15.0942C124.242 14.7682 124.194 14.4352 124.193 14.0952C124.191 13.7552 124.236 13.4216 124.328 13.0942C124.427 12.7668 124.576 12.4724 124.774 12.2109C124.973 11.9428 125.219 11.731 125.512 11.5755C125.811 11.4133 126.16 11.3307 126.56 11.3278ZM126.815 12.2759C126.488 12.2783 126.215 12.3703 125.996 12.5519C125.777 12.7269 125.611 12.9514 125.499 13.2256C125.393 13.4997 125.341 13.7868 125.343 14.0868C125.344 14.3868 125.399 14.673 125.506 14.9456C125.621 15.2181 125.789 15.4435 126.01 15.6219C126.23 15.7936 126.504 15.8783 126.831 15.8759C127.157 15.8735 127.427 15.7848 127.639 15.6099C127.859 15.4283 128.021 15.2005 128.126 14.9263C128.239 14.6522 128.294 14.3651 128.293 14.0651C128.291 13.7651 128.233 13.4789 128.119 13.2064C128.011 12.9338 127.847 12.7117 127.626 12.54C127.412 12.3615 127.141 12.2735 126.815 12.2759ZM132.933 16.7811C132.513 16.7842 132.176 16.71 131.922 16.5585C131.668 16.407 131.484 16.205 131.369 15.9525C131.262 15.6933 131.207 15.4137 131.206 15.1137L131.193 12.3138L130.263 12.3206L130.259 11.4006L131.189 11.3938L131.183 10.0738L132.323 10.0654L132.329 11.3854L133.569 11.3763L133.573 12.2963L132.333 12.3054L132.346 15.0854C132.348 15.5853 132.626 15.8333 133.179 15.8293C133.319 15.8282 133.449 15.8173 133.569 15.7964C133.689 15.7755 133.749 15.7651 133.749 15.7651L133.753 16.6951C133.753 16.6951 133.669 16.709 133.503 16.7369C133.343 16.7647 133.153 16.7795 132.933 16.7811ZM137.224 16.6496L137.2 11.3496L138.34 11.3412L138.343 12.0412L138.383 12.0409C138.482 11.8335 138.638 11.649 138.851 11.4875C139.07 11.3192 139.386 11.2335 139.8 11.2305C139.926 11.2296 140.033 11.2355 140.12 11.2482C140.213 11.2608 140.26 11.2671 140.26 11.2671L140.265 12.3671C140.265 12.3671 140.215 12.3608 140.115 12.3482C140.015 12.3356 139.901 12.3298 139.775 12.3307C139.308 12.3341 138.952 12.4701 138.706 12.7386C138.468 13.0003 138.35 13.4245 138.352 14.0112L138.364 16.6412L137.224 16.6496ZM143.415 16.7041C142.969 16.7074 142.582 16.6335 142.254 16.4826C141.934 16.3249 141.666 16.1169 141.451 15.8585C141.244 15.5933 141.086 15.2978 140.978 14.9719C140.876 14.646 140.825 14.313 140.823 13.9731C140.822 13.6397 140.87 13.3094 140.969 12.982C141.067 12.6546 141.219 12.3568 141.425 12.0886C141.63 11.8204 141.893 11.6085 142.212 11.4528C142.531 11.2904 142.908 11.2077 143.341 11.2045C143.808 11.2011 144.218 11.3047 144.572 11.5155C144.933 11.7195 145.215 12.0274 145.416 12.4393C145.625 12.8444 145.73 13.3503 145.733 13.957L145.734 14.267L141.975 14.2946C142.003 14.7011 142.141 15.0501 142.389 15.3416C142.637 15.6331 142.978 15.7773 143.411 15.7741C143.658 15.7723 143.861 15.7308 144.021 15.6496C144.18 15.5618 144.303 15.4642 144.389 15.3569C144.475 15.2496 144.535 15.1558 144.568 15.0756C144.608 14.9953 144.628 14.9551 144.628 14.9551L145.687 14.9473C145.687 14.9473 145.671 15.0075 145.638 15.1277C145.605 15.2413 145.543 15.3851 145.45 15.5591C145.364 15.7331 145.238 15.9073 145.073 16.0819C144.907 16.2564 144.687 16.4047 144.414 16.5267C144.142 16.6421 143.809 16.7012 143.415 16.7041ZM141.981 13.4945L144.631 13.4751C144.602 13.0086 144.461 12.6663 144.206 12.4482C143.959 12.23 143.668 12.1221 143.335 12.1246C142.962 12.1273 142.652 12.2529 142.407 12.5014C142.161 12.7432 142.019 13.0742 141.981 13.4945ZM149.202 16.6616C148.782 16.6646 148.445 16.5905 148.191 16.439C147.937 16.2875 147.753 16.0855 147.638 15.833C147.531 15.5738 147.476 15.2942 147.475 14.9942L147.462 12.1942L146.532 12.2011L146.528 11.2811L147.458 11.2743L147.452 9.95426L148.592 9.94589L148.598 11.2659L149.838 11.2568L149.842 12.1768L148.602 12.1859L148.615 14.9658C148.617 15.4658 148.895 15.7138 149.448 15.7097C149.588 15.7087 149.718 15.6978 149.838 15.6769C149.958 15.656 150.018 15.6455 150.018 15.6455L150.022 16.5755C150.022 16.5755 149.938 16.5895 149.772 16.6174C149.612 16.6452 149.422 16.6599 149.202 16.6616ZM151.871 10.3318C151.664 10.3333 151.494 10.2646 151.36 10.1256C151.226 9.98654 151.158 9.8237 151.158 9.63704C151.157 9.44371 151.223 9.27988 151.355 9.14557C151.488 9.0046 151.658 8.93335 151.864 8.93183C152.071 8.93031 152.241 8.99906 152.375 9.13808C152.516 9.27038 152.587 9.4332 152.588 9.62653C152.588 9.81986 152.519 9.98704 152.38 10.1281C152.247 10.2624 152.077 10.3303 151.871 10.3318ZM151.338 16.5459L151.315 11.2459L152.455 11.2375L152.478 16.5375L151.338 16.5459ZM153.942 16.5267L153.919 11.2268L155.059 11.2184L155.062 11.9184L155.102 11.9181C155.201 11.7107 155.357 11.5262 155.569 11.3647C155.788 11.1964 156.105 11.1107 156.518 11.1077C156.645 11.1068 156.751 11.1126 156.838 11.1253C156.932 11.138 156.978 11.1443 156.978 11.1443L156.983 12.2443C156.983 12.2443 156.933 12.238 156.833 12.2254C156.733 12.2128 156.62 12.207 156.493 12.2079C156.026 12.2113 155.67 12.3473 155.425 12.6158C155.186 12.8775 155.068 13.3017 155.07 13.8884L155.082 16.5184L153.942 16.5267ZM160.134 16.5813C159.687 16.5845 159.3 16.5107 158.973 16.3598C158.652 16.2021 158.384 15.9941 158.17 15.7357C157.962 15.4705 157.804 15.175 157.696 14.8491C157.594 14.5232 157.543 14.1902 157.541 13.8502C157.54 13.5169 157.588 13.1865 157.687 12.8591C157.786 12.5317 157.938 12.234 158.143 11.9658C158.349 11.6976 158.611 11.4857 158.93 11.33C159.25 11.1676 159.626 11.0849 160.059 11.0817C160.526 11.0783 160.936 11.1819 161.291 11.3926C161.651 11.5967 161.933 11.9046 162.135 12.3165C162.343 12.7216 162.449 13.2275 162.451 13.8342L162.453 14.1442L158.693 14.1718C158.721 14.5783 158.86 14.9272 159.108 15.2188C159.355 15.5103 159.696 15.6545 160.129 15.6513C160.376 15.6495 160.579 15.608 160.739 15.5268C160.898 15.4389 161.021 15.3414 161.108 15.2341C161.194 15.1268 161.253 15.033 161.286 14.9528C161.326 14.8725 161.346 14.8323 161.346 14.8323L162.406 14.8245C162.406 14.8245 162.389 14.8846 162.357 15.0049C162.324 15.1185 162.261 15.2623 162.168 15.4363C162.083 15.6103 161.957 15.7845 161.791 15.9591C161.625 16.1336 161.406 16.2819 161.133 16.4039C160.86 16.5193 160.527 16.5784 160.134 16.5813ZM158.699 13.3717L161.349 13.3523C161.321 12.8858 161.179 12.5435 160.925 12.3254C160.677 12.1072 160.387 11.9993 160.053 12.0017C159.68 12.0045 159.37 12.1301 159.125 12.3786C158.879 12.6204 158.737 12.9514 158.699 13.3717ZM163.678 16.4552L163.655 11.1553L164.795 11.1469L164.798 11.8969L164.838 11.8966C164.897 11.7895 164.984 11.6689 165.096 11.5347C165.216 11.4005 165.372 11.286 165.565 11.1912C165.758 11.0898 166.001 11.038 166.294 11.0359C166.687 11.033 167.015 11.1239 167.275 11.3087C167.536 11.4934 167.731 11.7387 167.859 12.0444L167.879 12.0443C168.017 11.7766 168.22 11.5384 168.485 11.3298C168.751 11.1212 169.104 11.0152 169.544 11.012C169.917 11.0093 170.234 11.0969 170.495 11.275C170.756 11.4464 170.95 11.6817 171.078 11.9808C171.213 12.2731 171.281 12.6059 171.283 12.9793L171.298 16.3992L170.158 16.4076L170.144 13.1476C170.142 12.801 170.057 12.5183 169.89 12.2995C169.722 12.0807 169.475 11.9725 169.148 11.9749C168.882 11.9769 168.665 12.0518 168.499 12.1997C168.34 12.3475 168.224 12.5317 168.152 12.7523C168.079 12.9661 168.044 13.1831 168.045 13.4031L168.058 16.423L166.918 16.4314L166.904 13.1714C166.902 12.8248 166.817 12.5421 166.65 12.3233C166.482 12.1045 166.235 11.9963 165.908 11.9987C165.642 12.0007 165.425 12.0756 165.259 12.2235C165.1 12.3713 164.984 12.5555 164.912 12.7761C164.839 12.9899 164.804 13.2069 164.805 13.4269L164.818 16.4468L163.678 16.4552ZM175.084 16.4714C174.638 16.4747 174.251 16.4009 173.923 16.25C173.603 16.0923 173.335 15.8843 173.121 15.6258C172.913 15.3607 172.755 15.0652 172.647 14.7393C172.545 14.4134 172.494 14.0804 172.492 13.7404C172.491 13.4071 172.539 13.0767 172.638 12.7493C172.736 12.4219 172.888 12.1241 173.094 11.8559C173.299 11.5878 173.562 11.3758 173.881 11.2201C174.2 11.0578 174.577 10.975 175.01 10.9718C175.477 10.9684 175.887 11.0721 176.241 11.2828C176.602 11.4868 176.884 11.7948 177.085 12.2066C177.294 12.6118 177.399 13.1177 177.402 13.7243L177.404 14.0343L173.644 14.062C173.672 14.4684 173.81 14.8174 174.058 15.1089C174.306 15.4005 174.647 15.5446 175.08 15.5414C175.327 15.5396 175.53 15.4981 175.69 15.417C175.849 15.3291 175.972 15.2315 176.058 15.1242C176.145 15.0169 176.204 14.9232 176.237 14.8429C176.277 14.7626 176.297 14.7225 176.297 14.7225L177.357 14.7147C177.357 14.7147 177.34 14.7748 177.307 14.8951C177.275 15.0086 177.212 15.1524 177.119 15.3265C177.033 15.5004 176.907 15.6747 176.742 15.8492C176.576 16.0238 176.356 16.1721 176.084 16.2941C175.811 16.4094 175.478 16.4685 175.084 16.4714ZM173.65 13.2619L176.3 13.2424C176.271 12.776 176.13 12.4337 175.875 12.2155C175.628 11.9973 175.337 11.8895 175.004 11.8919C174.631 11.8947 174.321 12.0203 174.076 12.2687C173.83 12.5106 173.688 12.8416 173.65 13.2619ZM178.629 16.3454L178.605 11.0454L179.745 11.0371L179.749 11.8071L179.809 11.8066C179.855 11.7129 179.935 11.599 180.047 11.4649C180.16 11.324 180.316 11.1995 180.516 11.0914C180.722 10.9832 180.982 10.928 181.295 10.9257C181.688 10.9228 182.019 11.0104 182.286 11.1884C182.554 11.3664 182.755 11.605 182.889 11.904C183.031 12.203 183.102 12.5324 183.104 12.8924L183.119 16.3124L181.979 16.3208L181.964 13.0208C181.963 12.7008 181.872 12.4315 181.691 12.2128C181.516 11.9941 181.256 11.886 180.909 11.8885C180.636 11.8905 180.413 11.9622 180.24 12.1035C180.074 12.238 179.952 12.4156 179.872 12.6362C179.793 12.8501 179.754 13.0804 179.756 13.327L179.769 16.337L178.629 16.3454ZM186.603 16.3868C186.183 16.3899 185.846 16.3157 185.592 16.1642C185.338 16.0128 185.154 15.8108 185.04 15.5583C184.932 15.2991 184.877 15.0195 184.876 14.7195L184.864 11.9195L183.934 11.9263L183.93 11.0063L184.86 10.9995L184.854 9.67951L185.994 9.67113L186 10.9911L187.239 10.982L187.244 11.902L186.004 11.9111L186.016 14.6911C186.018 15.1911 186.296 15.439 186.849 15.435C186.989 15.434 187.119 15.423 187.239 15.4021C187.359 15.3812 187.419 15.3708 187.419 15.3708L187.423 16.3008C187.423 16.3008 187.34 16.3147 187.173 16.3426C187.013 16.3705 186.823 16.3852 186.603 16.3868ZM191.003 18.2145L190.971 10.9546L192.111 10.9462L192.114 11.7362L192.174 11.7358C192.24 11.6353 192.337 11.5146 192.463 11.3737C192.595 11.2327 192.771 11.108 192.991 10.9998C193.217 10.8914 193.5 10.836 193.84 10.8335C194.234 10.8306 194.581 10.9081 194.881 11.0659C195.182 11.217 195.43 11.4252 195.624 11.6904C195.825 11.949 195.973 12.2412 196.068 12.5672C196.169 12.8931 196.221 13.2261 196.222 13.5661C196.224 13.9061 196.175 14.2398 196.077 14.5672C195.985 14.8945 195.84 15.1923 195.641 15.4604C195.449 15.7218 195.203 15.9336 194.904 16.0958C194.604 16.2514 194.258 16.3306 193.865 16.3335C193.525 16.336 193.241 16.2847 193.014 16.1797C192.793 16.0747 192.616 15.9526 192.482 15.8136C192.355 15.6745 192.258 15.5553 192.191 15.4557L192.131 15.4562L192.143 18.2062L191.003 18.2145ZM192.122 13.5962C192.124 13.8962 192.178 14.1825 192.286 14.455C192.401 14.7275 192.565 14.953 192.779 15.1314C193 15.3031 193.274 15.3878 193.6 15.3854C193.934 15.3829 194.207 15.2943 194.419 15.1194C194.638 14.9377 194.801 14.7099 194.906 14.4358C195.018 14.1616 195.074 13.8745 195.072 13.5745C195.071 13.2745 195.013 12.9883 194.899 12.7158C194.791 12.4432 194.626 12.2211 194.406 12.0494C194.191 11.871 193.918 11.783 193.584 11.7854C193.258 11.7878 192.985 11.8798 192.766 12.0614C192.553 12.2363 192.391 12.4609 192.279 12.735C192.173 13.0091 192.121 13.2962 192.122 13.5962ZM197.547 16.2064L197.523 8.60641L198.653 8.59811L198.687 16.198L197.547 16.2064ZM202.349 10.771C202.683 10.7686 202.96 10.8199 203.18 10.9249C203.407 11.0299 203.588 11.1519 203.722 11.2909C203.856 11.43 203.953 11.5492 204.013 11.6488L204.073 11.6484L204.07 10.8584L205.21 10.85L205.233 16.1499L204.093 16.1583L204.09 15.3683L204.03 15.3688C203.97 15.4692 203.874 15.5899 203.741 15.7309C203.609 15.8719 203.429 15.9965 203.203 16.1049C202.984 16.2131 202.707 16.2685 202.374 16.271C201.974 16.2739 201.624 16.1998 201.323 16.0487C201.029 15.8908 200.781 15.6826 200.58 15.4241C200.379 15.1589 200.228 14.8634 200.126 14.5374C200.031 14.2114 199.983 13.8785 199.982 13.5385C199.98 13.1985 200.025 12.8648 200.117 12.5374C200.216 12.21 200.364 11.9156 200.563 11.6542C200.762 11.386 201.008 11.1742 201.301 11.0187C201.6 10.8565 201.949 10.7739 202.349 10.771ZM202.604 11.7192C202.277 11.7216 202.004 11.8136 201.785 11.9952C201.566 12.1701 201.4 12.3947 201.288 12.6689C201.182 12.943 201.13 13.23 201.132 13.53C201.133 13.83 201.188 14.1163 201.295 14.3888C201.41 14.6613 201.578 14.8868 201.798 15.0652C202.019 15.2369 202.293 15.3215 202.62 15.3191C202.946 15.3167 203.216 15.2281 203.428 15.0532C203.648 14.8716 203.81 14.6437 203.915 14.3696C204.028 14.0954 204.083 13.8083 204.082 13.5083C204.08 13.2084 204.022 12.9221 203.908 12.6496C203.8 12.3771 203.636 12.1549 203.415 11.9832C203.201 11.8048 202.93 11.7168 202.604 11.7192ZM206.568 16.1401L206.544 10.8402L207.684 10.8318L207.688 11.6018L207.748 11.6014C207.794 11.5077 207.873 11.3938 207.986 11.2596C208.099 11.1188 208.255 10.9943 208.454 10.8862C208.661 10.778 208.92 10.7227 209.234 10.7204C209.627 10.7175 209.957 10.8051 210.225 10.9832C210.492 11.1612 210.693 11.3997 210.828 11.6987C210.969 11.9977 211.041 12.3272 211.042 12.6872L211.058 16.1072L209.918 16.1155L209.903 12.8156C209.901 12.4956 209.81 12.2262 209.629 12.0076C209.455 11.7888 209.195 11.6807 208.848 11.6833C208.575 11.6853 208.352 11.7569 208.179 11.8982C208.013 12.0328 207.89 12.2103 207.811 12.4309C207.732 12.6448 207.693 12.8751 207.694 13.1218L207.708 16.1318L206.568 16.1401ZM217.003 16.1635C216.583 16.1666 216.246 16.0924 215.992 15.9409C215.738 15.7894 215.554 15.5875 215.439 15.335C215.332 15.0757 215.277 14.7961 215.276 14.4961L215.263 11.6962L214.333 11.703L214.329 10.783L215.259 10.7762L215.253 9.45619L216.393 9.44781L216.399 10.7678L217.639 10.7587L217.643 11.6787L216.403 11.6878L216.416 14.4678C216.418 14.9678 216.695 15.2157 217.249 15.2117C217.389 15.2106 217.519 15.1997 217.639 15.1788C217.759 15.1579 217.819 15.1475 217.819 15.1475L217.823 16.0775C217.823 16.0775 217.739 16.0914 217.573 16.1193C217.413 16.1471 217.223 16.1619 217.003 16.1635ZM221.413 16.1311C220.833 16.1353 220.343 16.0089 219.942 15.7519C219.547 15.4948 219.246 15.157 219.037 14.7385C218.835 14.32 218.733 13.8741 218.731 13.4007C218.729 12.9274 218.827 12.48 219.025 12.0585C219.23 11.637 219.529 11.2948 219.921 11.0319C220.32 10.769 220.809 10.6354 221.389 10.6311C221.962 10.6269 222.446 10.7534 222.841 11.0105C223.242 11.2675 223.543 11.6053 223.745 12.0239C223.954 12.4423 224.059 12.8882 224.061 13.3616C224.063 13.8349 223.962 14.2823 223.757 14.7038C223.559 15.1253 223.26 15.4675 222.862 15.7304C222.469 15.9933 221.987 16.1269 221.413 16.1311ZM221.409 15.1611C221.736 15.1587 222.009 15.0734 222.228 14.9051C222.454 14.7367 222.623 14.5155 222.735 14.2413C222.854 13.9671 222.912 13.6767 222.911 13.37C222.91 13.0567 222.848 12.7671 222.727 12.5014C222.613 12.2289 222.442 12.0101 222.214 11.8451C221.994 11.6801 221.72 11.5987 221.393 11.6011C221.067 11.6035 220.79 11.6889 220.564 11.8572C220.338 12.0256 220.169 12.2468 220.057 12.521C219.945 12.7885 219.89 13.0789 219.891 13.3922C219.893 13.6989 219.95 13.9885 220.065 14.261C220.18 14.5334 220.351 14.7522 220.578 14.9172C220.805 15.0822 221.082 15.1635 221.409 15.1611ZM227.549 16.086C227.149 16.089 226.799 16.0149 226.498 15.8637C226.204 15.7059 225.956 15.4977 225.755 15.2392C225.554 14.974 225.403 14.6784 225.301 14.3525C225.206 14.0265 225.158 13.6935 225.157 13.3535C225.155 13.0135 225.2 12.6799 225.292 12.3525C225.391 12.0251 225.54 11.7307 225.738 11.4692C225.937 11.2011 226.183 10.9893 226.476 10.8338C226.775 10.6716 227.125 10.589 227.525 10.5861C227.858 10.5836 228.135 10.6349 228.355 10.74C228.582 10.845 228.763 10.967 228.897 11.106C229.031 11.245 229.128 11.3643 229.188 11.4639L229.248 11.4634L229.235 8.37346L230.375 8.36508L230.408 15.965L229.268 15.9734L229.265 15.1834L229.205 15.1838C229.145 15.2843 229.049 15.405 228.917 15.546C228.784 15.6869 228.604 15.8116 228.378 15.9199C228.159 16.0282 227.882 16.0836 227.549 16.086ZM227.795 15.1342C228.121 15.1318 228.391 15.0431 228.604 14.8682C228.823 14.6866 228.985 14.4588 229.09 14.1846C229.203 13.9105 229.258 13.6234 229.257 13.3234C229.255 13.0234 229.197 12.7372 229.083 12.4647C228.975 12.1921 228.811 11.97 228.59 11.7983C228.376 11.6198 228.105 11.5318 227.779 11.5342C227.452 11.5366 227.179 11.6286 226.96 11.8102C226.741 11.9852 226.575 12.2097 226.463 12.4839C226.357 12.758 226.305 13.0451 226.307 13.3451C226.308 13.6451 226.363 13.9313 226.471 14.2039C226.585 14.4764 226.753 14.7018 226.974 14.8802C227.194 15.0519 227.468 15.1366 227.795 15.1342ZM234.077 10.5379C234.41 10.5355 234.687 10.5868 234.908 10.6918C235.135 10.7968 235.315 10.9188 235.449 11.0579C235.583 11.1969 235.681 11.3162 235.741 11.4157L235.801 11.4153L235.797 10.6253L236.937 10.6169L236.961 15.9169L235.821 15.9252L235.817 15.1353L235.757 15.1357C235.698 15.2361 235.602 15.3568 235.469 15.4978C235.336 15.6388 235.157 15.7635 234.931 15.8718C234.711 15.9801 234.435 16.0354 234.101 16.0379C233.701 16.0408 233.351 15.9667 233.05 15.8156C232.756 15.6578 232.509 15.4496 232.308 15.191C232.107 14.9258 231.955 14.6303 231.854 14.3044C231.759 13.9784 231.711 13.6454 231.709 13.3054C231.708 12.9654 231.753 12.6317 231.845 12.3044C231.943 11.977 232.092 11.6825 232.291 11.4211C232.49 11.1529 232.736 10.9411 233.028 10.7856C233.327 10.6234 233.677 10.5409 234.077 10.5379ZM234.331 11.4861C234.005 11.4885 233.732 11.5805 233.513 11.7621C233.293 11.9371 233.128 12.1616 233.015 12.4358C232.91 12.7099 232.858 12.9969 232.859 13.2969C232.861 13.5969 232.915 13.8832 233.023 14.1558C233.138 14.4283 233.305 14.6537 233.526 14.8321C233.747 15.0038 234.021 15.0885 234.347 15.0861C234.674 15.0837 234.944 14.995 235.156 14.8201C235.375 14.6385 235.538 14.4106 235.643 14.1365C235.755 13.8623 235.811 13.5753 235.809 13.2753C235.808 12.9753 235.75 12.689 235.635 12.4165C235.528 12.144 235.363 11.9219 235.142 11.7501C234.928 11.5717 234.658 11.4837 234.331 11.4861ZM238.437 17.8561C238.271 17.8573 238.134 17.8516 238.027 17.8391C237.921 17.8265 237.867 17.8203 237.867 17.8203L237.863 16.8703C237.863 16.8703 237.916 16.8732 238.023 16.8791C238.13 16.8916 238.247 16.8974 238.373 16.8965C238.74 16.8938 239.04 16.8216 239.272 16.6799C239.512 16.5448 239.714 16.3067 239.879 15.9654L237.835 10.6103L238.995 10.6018L240.443 14.5613L241.855 10.5808L243.035 10.5721L241.058 15.8268C240.795 16.5154 240.457 17.0245 240.045 17.3542C239.633 17.6839 239.097 17.8512 238.437 17.8561Z" fill="#F6F1E4"/>
<path d="M273.5 13H328.5" stroke="url(#paint2_linear_223_12967)" stroke-linecap="round"/>
<defs>
<linearGradient id="paint0_linear_223_12967" x1="55.5" y1="13.5" x2="0.5" y2="13.5" gradientUnits="userSpaceOnUse">
<stop stop-color="#C58A1F"/>
<stop offset="1" stop-color="#170B01" stop-opacity="0"/>
</linearGradient>
<linearGradient id="paint1_linear_223_12967" x1="207.97" y1="25" x2="195.658" y2="-19.6012" gradientUnits="userSpaceOnUse">
<stop stop-color="#9D5315"/>
<stop offset="1" stop-color="#D4963F"/>
</linearGradient>
<linearGradient id="paint2_linear_223_12967" x1="273.5" y1="13.5" x2="328.5" y2="13.5" gradientUnits="userSpaceOnUse">
<stop stop-color="#C58A1F"/>
<stop offset="1" stop-color="#170B01" stop-opacity="0"/>
</linearGradient>
</defs>
</svg>
