<svg width="329" height="26" viewBox="0 0 329 26" fill="none" xmlns="http://www.w3.org/2000/svg">
<path d="M0.5 13H55.5" stroke="url(#paint0_linear_223_12967)" stroke-linecap="round"/>
<path d="M270.96 0.5C272.322 0.5 272.98 2.16907 271.983 3.09766L262.234 12.1826C262.028 12.3749 262.021 12.7 262.22 12.9004L272.168 22.9443C273.106 23.8912 272.435 25.4996 271.103 25.5H57.9062C56.5716 25.5 55.9013 23.8874 56.8428 22.9414L66.3867 13.3525C66.5805 13.1575 66.5805 12.8425 66.3867 12.6475L56.8428 3.05859C55.9013 2.11263 56.5716 0.5 57.9062 0.5H270.96Z" fill="url(#paint1_linear_223_12967)" stroke="white"/>
<path d="M94.0386 16.9816L94.0294 14.9217L91.5794 10.3996L93.2993 10.3869L94.7236 13.6165L94.7836 13.6161L96.1692 10.3658L97.8692 10.3533L95.4793 14.901L95.4885 16.971L94.0386 16.9816ZM101.184 17.0692C100.704 17.0727 100.274 17.0025 99.893 16.8586C99.5123 16.7081 99.1847 16.4905 98.9101 16.2058C98.6421 15.9145 98.4339 15.5593 98.2853 15.1404C98.1435 14.7148 98.0713 14.2286 98.0689 13.682C98.0654 12.902 98.1992 12.2576 98.4703 11.749C98.7413 11.2336 99.113 10.8476 99.5852 10.5907C100.064 10.3272 100.603 10.1933 101.203 10.1889C101.67 10.1854 102.094 10.259 102.474 10.4095C102.855 10.5534 103.179 10.771 103.447 11.0624C103.722 11.347 103.933 11.7055 104.082 12.1377C104.231 12.5633 104.306 13.0528 104.309 13.6061C104.311 14.1728 104.24 14.67 104.095 15.0977C103.95 15.5255 103.739 15.887 103.46 16.1824C103.188 16.4711 102.859 16.6902 102.473 16.8397C102.087 16.9892 101.657 17.0657 101.184 17.0692ZM101.219 15.9189C101.572 15.9163 101.868 15.8274 102.108 15.6523C102.347 15.4772 102.529 15.2259 102.654 14.8983C102.78 14.5707 102.841 14.1702 102.839 13.6969C102.837 13.2036 102.768 12.7841 102.633 12.4384C102.505 12.0927 102.317 11.8307 102.07 11.6525C101.822 11.4677 101.522 11.3765 101.169 11.3791C100.822 11.3817 100.526 11.4739 100.28 11.6557C100.041 11.8308 99.8551 12.0855 99.7233 12.4198C99.5981 12.754 99.5366 13.1678 99.5388 13.6612C99.5404 14.0212 99.5785 14.3442 99.6531 14.6303C99.7343 14.9098 99.8454 15.1456 99.9862 15.3379C100.127 15.5302 100.301 15.6756 100.508 15.7741C100.715 15.8726 100.952 15.9208 101.219 15.9189ZM108.461 17.0157C108.054 17.0187 107.69 16.978 107.37 16.8937C107.056 16.816 106.782 16.7013 106.548 16.5497C106.314 16.3914 106.117 16.2029 105.956 15.9841C105.802 15.7585 105.684 15.5061 105.603 15.2267C105.528 14.9472 105.49 14.6408 105.488 14.3075L105.471 10.2975L106.921 10.2869L106.938 14.2468C106.94 14.5868 106.994 14.8698 107.102 15.0956C107.216 15.3148 107.384 15.4769 107.604 15.582C107.825 15.687 108.105 15.7383 108.445 15.7358C108.791 15.7332 109.075 15.6778 109.294 15.5695C109.52 15.4612 109.686 15.2967 109.792 15.0759C109.904 14.8484 109.96 14.5646 109.958 14.2246L109.941 10.2647L111.371 10.2542L111.388 14.2641C111.392 15.1308 111.148 15.8059 110.657 16.2895C110.173 16.7664 109.44 17.0085 108.461 17.0157ZM112.815 16.8437L112.786 10.2438L115.466 10.2241C115.826 10.2214 116.153 10.249 116.446 10.3069C116.74 10.3581 117 10.4361 117.227 10.5411C117.454 10.6462 117.645 10.7781 117.799 10.937C117.96 11.0891 118.08 11.2682 118.161 11.4743C118.242 11.6737 118.283 11.8968 118.284 12.1434C118.285 12.3768 118.25 12.5904 118.177 12.7842C118.105 12.9714 117.995 13.1356 117.849 13.2766C117.703 13.4177 117.521 13.5357 117.301 13.6307C117.081 13.719 116.825 13.7808 116.532 13.8163L116.532 13.9663C116.873 13.9972 117.143 14.0752 117.343 14.2004C117.551 14.3189 117.711 14.481 117.826 14.6868C117.947 14.8926 118.051 15.1485 118.139 15.4546L118.545 16.8016L116.955 16.8133L116.64 15.5656C116.578 15.2994 116.491 15.0933 116.377 14.9475C116.263 14.795 116.119 14.6894 115.945 14.6307C115.772 14.5653 115.562 14.5335 115.315 14.5353L114.245 14.5431L114.255 16.8331L112.815 16.8437ZM114.24 13.4632L115.38 13.4548C115.833 13.4515 116.183 13.3622 116.429 13.1871C116.675 13.0119 116.797 12.741 116.795 12.3744C116.794 12.0144 116.676 11.7519 116.442 11.5869C116.214 11.4153 115.871 11.3311 115.411 11.3345L114.231 11.3432L114.24 13.4632ZM121.907 16.7769L121.877 10.177L124.047 10.161L125.909 15.1175L125.959 15.1171L127.737 10.1339L129.807 10.1187L129.837 16.7187L128.467 16.7287L128.534 11.5881L128.424 11.5889L126.447 16.7436L125.247 16.7524L123.254 11.6269L123.144 11.6277L123.257 16.767L121.907 16.7769ZM134.162 16.8269C133.682 16.8304 133.251 16.7602 132.871 16.6164C132.49 16.4658 132.162 16.2482 131.888 15.9636C131.62 15.6722 131.411 15.3171 131.263 14.8981C131.121 14.4725 131.049 13.9864 131.046 13.4397C131.043 12.6597 131.177 12.0154 131.448 11.5067C131.719 10.9914 132.091 10.6053 132.563 10.3485C133.042 10.085 133.581 9.951 134.181 9.94659C134.648 9.94317 135.071 10.0167 135.452 10.1673C135.833 10.3111 136.157 10.5288 136.425 10.8201C136.7 11.1048 136.911 11.4632 137.06 11.8955C137.208 12.3211 137.284 12.8105 137.286 13.3639C137.289 13.9305 137.218 14.4277 137.073 14.8555C136.928 15.2832 136.716 15.6448 136.438 15.9402C136.166 16.2288 135.837 16.4479 135.451 16.5974C135.065 16.7469 134.635 16.8234 134.162 16.8269ZM134.196 15.6766C134.55 15.674 134.846 15.5852 135.085 15.4101C135.324 15.235 135.507 14.9836 135.632 14.656C135.757 14.3284 135.819 13.928 135.817 13.4547C135.814 12.9613 135.746 12.5418 135.611 12.1961C135.483 11.8504 135.295 11.5884 135.048 11.4103C134.8 11.2254 134.5 11.1343 134.146 11.1369C133.8 11.1394 133.503 11.2316 133.258 11.4134C133.018 11.5885 132.833 11.8432 132.701 12.1775C132.576 12.5118 132.514 12.9256 132.516 13.4189C132.518 13.7789 132.556 14.102 132.631 14.3881C132.712 14.6675 132.823 14.9033 132.964 15.0957C133.105 15.288 133.279 15.4333 133.486 15.5318C133.693 15.6303 133.93 15.6786 134.196 15.6766ZM138.518 16.6549L138.488 10.055L140.368 10.0411L143.379 14.6891L143.489 14.6883L143.378 10.019L144.778 10.0087L144.807 16.6087L143.107 16.6212L139.926 11.7544L139.816 11.7552L139.928 16.6445L138.518 16.6549ZM146.271 16.5979L146.242 9.99799L147.692 9.98734L147.721 16.5873L146.271 16.5979ZM147.271 16.5906L147.266 15.4206L151.356 15.3906L151.361 16.5605L147.271 16.5906ZM147.259 13.7906L147.254 12.7206L150.844 12.6943L150.849 13.7642L147.259 13.7906ZM147.247 11.1506L147.242 9.99065L151.312 9.96075L151.317 11.1207L147.247 11.1506ZM154.33 16.5387L154.321 14.4788L151.871 9.95665L153.591 9.94401L155.015 13.1736L155.075 13.1732L156.461 9.92293L158.161 9.91044L155.771 14.4581L155.78 16.5281L154.33 16.5387ZM158.625 16.6372C158.312 16.6395 158.075 16.5746 157.914 16.4424C157.761 16.3102 157.683 16.1041 157.682 15.8241C157.68 15.5374 157.756 15.3269 157.909 15.1924C158.068 15.0579 158.305 14.9895 158.618 14.9872C158.938 14.9848 159.175 15.0498 159.329 15.182C159.49 15.3141 159.57 15.5235 159.572 15.8102C159.574 16.3569 159.259 16.6325 158.625 16.6372ZM164.593 16.4633L164.584 14.4034L162.134 9.88125L163.854 9.86861L165.278 13.0982L165.338 13.0978L166.724 9.84753L168.424 9.83504L166.034 14.3827L166.043 16.4527L164.593 16.4633ZM171.739 16.5508C171.259 16.5544 170.828 16.4842 170.448 16.3403C170.067 16.1898 169.739 15.9722 169.465 15.6875C169.197 15.3962 168.989 15.041 168.84 14.6221C168.698 14.1965 168.626 13.7103 168.624 13.1637C168.62 12.3837 168.754 11.7393 169.025 11.2307C169.296 10.7153 169.668 10.3293 170.14 10.0724C170.619 9.80892 171.158 9.67495 171.758 9.67055C172.225 9.66712 172.648 9.74067 173.029 9.89122C173.41 10.0351 173.734 10.2527 174.002 10.5441C174.277 10.8287 174.488 11.1872 174.637 11.6194C174.785 12.045 174.861 12.5345 174.863 13.0878C174.866 13.6545 174.795 14.1517 174.65 14.5794C174.505 15.0072 174.293 15.3687 174.015 15.6641C173.743 15.9528 173.414 16.1719 173.028 16.3214C172.642 16.4709 172.212 16.5474 171.739 16.5508ZM171.774 15.4006C172.127 15.398 172.423 15.3091 172.662 15.134C172.902 14.9589 173.084 14.7076 173.209 14.38C173.334 14.0524 173.396 13.6519 173.394 13.1786C173.392 12.6853 173.323 12.2658 173.188 11.9201C173.06 11.5744 172.872 11.3124 172.625 11.1342C172.377 10.9494 172.077 10.8582 171.723 10.8608C171.377 10.8634 171.08 10.9556 170.835 11.1374C170.595 11.3125 170.41 11.5672 170.278 11.9015C170.153 12.2357 170.091 12.6495 170.094 13.1429C170.095 13.5029 170.133 13.8259 170.208 14.112C170.289 14.3914 170.4 14.6273 170.541 14.8196C170.682 15.0119 170.856 15.1573 171.063 15.2558C171.27 15.3543 171.507 15.4025 171.774 15.4006ZM179.015 16.4974C178.609 16.5004 178.245 16.4597 177.925 16.3754C177.611 16.2977 177.337 16.183 177.103 16.0314C176.869 15.8731 176.672 15.6846 176.511 15.4658C176.356 15.2402 176.239 14.9878 176.157 14.7083C176.083 14.4289 176.045 14.1225 176.043 13.7892L176.025 9.7792L177.475 9.76855L177.493 13.7285C177.494 14.0685 177.549 14.3514 177.657 14.5773C177.771 14.7965 177.938 14.9586 178.159 15.0636C178.379 15.1687 178.66 15.22 179 15.2175C179.346 15.2149 179.629 15.1595 179.849 15.0512C180.075 14.9429 180.241 14.7783 180.347 14.5576C180.459 14.3301 180.514 14.0463 180.513 13.7063L180.495 9.74637L181.925 9.73586L181.943 13.7458C181.947 14.6125 181.703 15.2876 181.212 15.7712C180.727 16.2481 179.995 16.4902 179.015 16.4974ZM183.37 16.3254L183.341 9.72546L186.021 9.70578C186.381 9.70313 186.707 9.73073 187.001 9.78858C187.294 9.83975 187.555 9.91784 187.782 10.0228C188.009 10.1278 188.2 10.2598 188.354 10.4187C188.514 10.5708 188.635 10.7499 188.716 10.956C188.797 11.1554 188.838 11.3785 188.839 11.6251C188.84 11.8584 188.804 12.072 188.732 12.2659C188.659 12.4531 188.55 12.6173 188.404 12.7583C188.258 12.8994 188.075 13.0174 187.856 13.1124C187.636 13.2007 187.38 13.2625 187.086 13.298L187.087 13.448C187.427 13.4789 187.698 13.5569 187.898 13.6821C188.105 13.8006 188.266 13.9627 188.38 14.1685C188.501 14.3743 188.606 14.6302 188.694 14.9363L189.1 16.2833L187.51 16.295L187.194 15.0473C187.133 14.7811 187.045 14.575 186.932 14.4292C186.818 14.2767 186.674 14.1711 186.5 14.1124C186.326 14.047 186.116 14.0152 185.87 14.017L184.8 14.0248L184.81 16.3148L183.37 16.3254ZM184.795 12.9449L185.935 12.9365C186.388 12.9331 186.738 12.8439 186.984 12.6688C187.23 12.4936 187.352 12.2227 187.35 11.8561C187.349 11.4961 187.231 11.2336 186.997 11.0686C186.769 10.897 186.425 10.8128 185.965 10.8162L184.786 10.8249L184.795 12.9449ZM193.861 16.2483L193.832 9.64839L195.272 9.63781L195.301 16.2377L193.861 16.2483ZM191.888 10.8727L191.882 9.66272L197.222 9.62349L197.227 10.8335L191.888 10.8727ZM198.174 16.2166L198.145 9.61671L199.615 9.60591L199.644 16.2058L198.174 16.2166ZM201.104 16.1951L201.075 9.59519L203.244 9.57925L205.106 14.5357L205.156 14.5353L206.934 9.55214L209.004 9.53693L209.034 16.1369L207.664 16.1469L207.731 11.0063L207.621 11.0071L205.644 16.1618L204.444 16.1706L202.451 11.0451L202.341 11.0459L202.454 16.1852L201.104 16.1951ZM210.498 16.1261L210.469 9.52618L211.919 9.51552L211.948 16.1155L210.498 16.1261ZM211.498 16.1188L211.493 14.9488L215.583 14.9187L215.588 16.0887L211.498 16.1188ZM211.486 13.3188L211.481 12.2488L215.071 12.2224L215.076 13.2924L211.486 13.3188ZM211.474 10.6788L211.469 9.51883L215.539 9.48893L215.544 10.6489L211.474 10.6788ZM216.709 16.0805L216.68 9.48055L218.12 9.46997L218.149 16.0699L216.709 16.0805ZM217.009 16.0783L217.003 14.8683L220.933 14.8394L220.939 16.0494L217.009 16.0783ZM221.787 16.0432L221.758 9.44325L223.228 9.43245L223.257 16.0324L221.787 16.0432ZM224.716 16.0217L224.687 9.42173L226.567 9.40791L229.578 14.0559L229.688 14.0551L229.577 9.3858L230.977 9.37552L231.006 15.9755L229.306 15.9879L226.125 11.1212L226.015 11.122L226.126 16.0113L224.716 16.0217ZM232.47 15.9647L232.441 9.36477L233.891 9.35411L233.92 15.954L232.47 15.9647ZM233.47 15.9574L233.465 14.7874L237.555 14.7573L237.56 15.9273L233.47 15.9574ZM233.458 13.1574L233.453 12.0874L237.043 12.061L237.048 13.131L233.458 13.1574ZM233.446 10.5174L233.441 9.35742L237.511 9.32752L237.516 10.4875L233.446 10.5174ZM239.277 16.0447C238.964 16.047 238.727 15.9821 238.567 15.8499C238.413 15.7177 238.335 15.5116 238.334 15.2316C238.333 14.9449 238.408 14.7344 238.561 14.5999C238.72 14.4654 238.957 14.397 239.27 14.3947C239.59 14.3924 239.827 14.4573 239.981 14.5895C240.142 14.7217 240.223 14.9311 240.224 15.2177C240.226 15.7644 239.911 16.04 239.277 16.0447Z" fill="#F6F1E4"/>
<path d="M273.5 13H328.5" stroke="url(#paint2_linear_223_12967)" stroke-linecap="round"/>
<defs>
<linearGradient id="paint0_linear_223_12967" x1="55.5" y1="13.5" x2="0.5" y2="13.5" gradientUnits="userSpaceOnUse">
<stop stop-color="#C58A1F"/>
<stop offset="1" stop-color="#170B01" stop-opacity="0"/>
</linearGradient>
<linearGradient id="paint1_linear_223_12967" x1="207.97" y1="25" x2="195.658" y2="-19.6012" gradientUnits="userSpaceOnUse">
<stop stop-color="#9D5315"/>
<stop offset="1" stop-color="#D4963F"/>
</linearGradient>
<linearGradient id="paint2_linear_223_12967" x1="273.5" y1="13.5" x2="328.5" y2="13.5" gradientUnits="userSpaceOnUse">
<stop stop-color="#C58A1F"/>
<stop offset="1" stop-color="#170B01" stop-opacity="0"/>
</linearGradient>
</defs>
</svg>
