<svg width="20" height="20" viewBox="0 0 20 20" fill="none" xmlns="http://www.w3.org/2000/svg">
<path d="M9.54307 0.189263C9.79543 -0.0630877 10.2046 -0.0630877 10.4569 0.189263L13.1985 5.43079C13.4509 5.68314 13.4509 6.09228 13.1985 6.34463L10.4569 9.08616C10.2046 9.33851 9.79543 9.33851 9.54307 9.08616L6.8015 6.34463C6.54915 6.09228 6.54915 5.68314 6.8015 5.43079L9.54307 0.189263Z" fill="url(#paint0_linear_223_12296)"/>
<path d="M5.43084 6.80155C5.68319 6.5492 6.09234 6.5492 6.34469 6.80155L9.08627 9.54308C9.33862 9.79543 9.33862 10.2046 9.08627 10.4569L6.34469 13.1984C6.09234 13.4508 5.68319 13.4508 5.43084 13.1984L0.189266 10.4569C-0.0630887 10.2046 -0.0630887 9.79543 0.189266 9.54308L5.43084 6.80155Z" fill="url(#paint1_linear_223_12296)"/>
<path d="M13.6553 6.80155C13.9077 6.5492 14.3168 6.5492 14.5692 6.80155L19.8107 9.54308C20.0631 9.79543 20.0631 10.2046 19.8107 10.4569L14.5692 13.1984C14.3168 13.4508 13.9077 13.4508 13.6553 13.1984L10.9137 10.4569C10.6614 10.2046 10.6614 9.79543 10.9137 9.54308L13.6553 6.80155Z" fill="url(#paint2_linear_223_12296)"/>
<path d="M9.54307 10.9138C9.79543 10.6615 10.2046 10.6615 10.4569 10.9138L13.1985 13.6554C13.4509 13.9077 13.4509 14.3169 13.1985 14.5692L10.4569 19.8107C10.2046 20.0631 9.79543 20.0631 9.54307 19.8107L6.8015 14.5692C6.54915 14.3169 6.54915 13.9077 6.8015 13.6554L9.54307 10.9138Z" fill="url(#paint3_linear_223_12296)"/>
<defs>
<linearGradient id="paint0_linear_223_12296" x1="13.9881" y1="20" x2="0.22476" y2="14.511" gradientUnits="userSpaceOnUse">
<stop stop-color="#C2712E"/>
<stop offset="1" stop-color="#D4963F"/>
</linearGradient>
<linearGradient id="paint1_linear_223_12296" x1="13.9881" y1="20" x2="0.22476" y2="14.511" gradientUnits="userSpaceOnUse">
<stop stop-color="#C2712E"/>
<stop offset="1" stop-color="#D4963F"/>
</linearGradient>
<linearGradient id="paint2_linear_223_12296" x1="13.9881" y1="20" x2="0.22476" y2="14.511" gradientUnits="userSpaceOnUse">
<stop stop-color="#C2712E"/>
<stop offset="1" stop-color="#D4963F"/>
</linearGradient>
<linearGradient id="paint3_linear_223_12296" x1="13.9881" y1="20" x2="0.22476" y2="14.511" gradientUnits="userSpaceOnUse">
<stop stop-color="#C2712E"/>
<stop offset="1" stop-color="#D4963F"/>
</linearGradient>
</defs>
</svg>
