<svg width="360" height="247" viewBox="0 0 360 247" fill="none" xmlns="http://www.w3.org/2000/svg">
<g clip-path="url(#clip0_214_1577)">
<rect width="360" height="246.854" fill="url(#paint0_linear_214_1577)"/>
<path d="M18.1135 0.000171809L-0.38916 18.4992L0.126468 19.0148L18.6291 0.5157L18.1135 0.000171809Z" fill="url(#paint1_linear_214_1577)"/>
<path d="M197.986 0.00121278L179.483 18.5003L179.999 19.0158L198.501 0.516741L197.986 0.00121278Z" fill="url(#paint2_linear_214_1577)"/>
<path d="M323.896 0.00207603L323.38 0.517605L341.883 19.0167L342.398 18.5011L323.896 0.00207603Z" fill="url(#paint3_linear_214_1577)"/>
<path d="M35.5857 18.4994L53.5731 36.4832L35.5857 54.467L36.1013 54.9825L54.6042 36.4832L36.6169 18.4994L54.0886 1.03097L72.0759 19.0148L90.5788 0.515517L90.0632 6.10352e-05L72.0759 17.9839L54.0886 6.10352e-05L35.5857 18.4994Z" fill="url(#paint4_linear_214_1577)"/>
<path d="M197.472 54.467L161.497 90.4347L180 108.934L197.987 90.9502L233.962 126.918L234.477 126.402L198.503 90.4347L233.962 54.9825L251.949 72.9663L270.452 54.467L269.936 53.9516L251.949 71.9354L234.477 54.467L287.924 1.03097L305.911 19.0148L306.427 18.4994L287.924 6.10352e-05L269.936 17.9839L251.949 6.10352e-05L251.433 0.515517L269.421 18.4994L251.949 35.9677L233.962 17.9839L233.446 18.4994L251.433 36.4832L215.974 71.9354L198.503 54.467L216.49 36.4832L198.503 18.4994L216.49 0.515517L215.974 6.10352e-05L180 35.9677L162.528 18.4994L180.515 0.515517L180 6.10352e-05L162.012 17.9839L144.025 6.10352e-05L143.51 0.515517L197.472 54.467ZM215.459 72.4509L180 107.903L162.528 90.4347L197.987 54.9825L215.459 72.4509ZM197.987 19.0148L215.459 36.4832L197.987 53.9516L180.515 36.4832L197.987 19.0148Z" fill="url(#paint5_linear_214_1577)"/>
<path d="M215.459 18.4994L233.446 36.4832L215.459 54.467L215.974 54.9825L234.477 36.4832L216.49 18.4994L233.961 1.03097L251.949 19.0148L252.464 18.4994L233.961 6.10352e-05L215.459 18.4994Z" fill="url(#paint6_linear_214_1577)"/>
<path d="M360.388 18.4994L341.885 6.10352e-05L341.37 0.515517L359.357 18.4994L341.885 35.9677L305.911 6.10352e-05L305.395 0.515517L323.382 18.4994L305.911 35.9677L287.923 17.9839L251.433 54.467L251.949 54.9825L269.936 36.9987L287.408 54.467L251.949 89.9193L233.961 71.9354L215.459 90.4347L251.433 126.402L233.961 143.871L197.987 107.903L179.999 125.887L144.54 90.4347L180.515 54.467L126.038 6.10352e-05L125.522 0.515517L143.509 18.4994L126.038 35.9677L108.05 17.9839L89.5474 36.4832L107.535 54.467L89.5474 72.4509L107.535 90.4347L53.5728 144.386L54.0883 144.902L108.566 90.4347L90.5785 72.4509L108.05 54.9825L161.497 108.419L143.509 126.402L161.497 144.386L144.025 161.855L126.038 143.871L125.522 144.386L161.497 180.354L144.025 197.822L108.05 161.855L107.535 162.37L125.522 180.354L107.535 198.338L108.05 198.853L126.038 180.869L144.025 198.853L179.999 162.886L197.471 180.354L179.484 198.338L179.999 198.853L197.987 180.869L215.974 198.853L269.936 144.902L287.923 162.886L306.426 144.386L305.911 143.871L287.923 161.855L269.936 143.871L251.949 161.855L234.477 144.386L252.464 126.402L216.49 90.4347L233.961 72.9663L269.936 108.934L270.452 108.419L252.464 90.4347L269.936 72.9663L287.923 90.9502L288.439 90.4347L270.452 72.4509L288.439 54.467L270.452 36.4832L287.923 19.0148L323.382 54.467L305.395 72.4509L341.37 108.419L323.382 126.402L323.898 126.918L341.885 108.934L359.873 126.918L360.388 126.402L342.401 108.419L360.388 90.4347L341.885 71.9354L323.898 89.9193L306.426 72.4509L341.885 36.9987L359.873 54.9825L360.388 54.467L342.401 36.4832L360.388 18.4994ZM179.484 54.467L162.012 71.9354L144.54 54.467L162.012 36.9987L179.484 54.467ZM90.5785 36.4832L108.05 19.0148L126.038 36.9987L144.025 19.0148L161.497 36.4832L126.038 71.9354L90.5785 36.4832ZM126.553 72.4509L144.025 54.9825L161.497 72.4509L144.025 89.9193L126.553 72.4509ZM233.446 144.386L215.974 161.855L198.502 144.386L215.974 126.918L233.446 144.386ZM197.987 108.934L215.459 126.402L197.987 143.871L180.515 126.402L197.987 108.934ZM197.471 144.386L179.999 161.855L162.528 144.386L179.999 126.918L197.471 144.386ZM144.54 126.402L162.012 108.934L179.484 126.402L162.012 143.871L144.54 126.402ZM162.012 179.838L144.54 162.37L162.012 144.902L179.484 162.37L162.012 179.838ZM180.515 162.37L197.987 144.902L215.459 162.37L197.987 179.838L180.515 162.37ZM251.433 162.37L215.974 197.822L198.502 180.354L233.961 144.902L251.433 162.37ZM341.885 72.9663L359.357 90.4347L341.885 107.903L324.414 90.4347L341.885 72.9663ZM323.898 53.9516L306.426 36.4832L323.898 19.0148L341.37 36.4832L323.898 53.9516Z" fill="url(#paint7_linear_214_1577)"/>
<path d="M144.025 35.9677L126.038 53.9515L108.05 35.9677L107.535 36.4831L126.038 54.9824L144.54 36.4831L144.025 35.9677Z" fill="url(#paint8_linear_214_1577)"/>
<path d="M341.885 53.9516L323.383 72.4509L323.898 72.9663L341.885 54.9825L359.873 72.9663L360.388 72.4509L341.885 53.9516Z" fill="url(#paint9_linear_214_1577)"/>
<path d="M197.985 71.9362L179.482 90.4353L179.998 90.9508L198.5 72.4518L197.985 71.9362Z" fill="url(#paint10_linear_214_1577)"/>
<path d="M-0.38916 126.402L18.1137 144.902L72.5912 90.4347L54.6039 72.4509L72.5912 54.4671L72.0756 53.9516L53.5728 72.4509L71.5601 90.4347L54.0883 107.903L36.101 89.9193L18.1137 107.903L0.126395 89.9193L-0.38916 90.4347L17.5981 108.419L-0.38916 126.402ZM36.101 90.9502L53.5728 108.419L36.101 125.887L18.6293 108.419L36.101 90.9502ZM18.1137 108.934L35.5855 126.402L18.1137 143.871L0.64195 126.402L18.1137 108.934Z" fill="url(#paint11_linear_214_1577)"/>
<path d="M126.553 108.418L126.038 107.903L89.5477 144.386L90.0632 144.902L126.553 108.418Z" fill="url(#paint12_linear_214_1577)"/>
<path d="M360.389 144.386L341.886 125.887L323.899 143.871L306.427 126.402L324.414 108.418L288.439 72.4508L306.427 54.467L287.924 35.9677L287.408 36.4831L305.396 54.467L287.408 72.4508L305.396 90.4347L287.924 107.903L269.937 89.9192L269.421 90.4347L287.408 108.418L269.937 125.887L233.962 89.9192L233.446 90.4347L269.421 126.402L251.434 144.386L251.949 144.902L269.937 126.918L287.924 144.902L305.911 126.918L323.383 144.386L287.924 179.838L269.937 161.855L233.446 198.338L233.962 198.853L269.937 162.885L287.408 180.354L269.421 198.338L269.937 198.853L287.924 180.869L305.911 198.853L306.427 198.338L288.439 180.354L305.911 162.885L323.899 180.869L324.414 180.354L306.427 162.37L323.899 144.902L359.358 180.354L341.37 198.338L341.886 198.853L360.389 180.354L342.401 162.37L360.389 144.386ZM305.911 90.9501L323.383 108.418L305.911 125.887L288.439 108.418L305.911 90.9501ZM287.924 143.871L270.452 126.402L287.924 108.934L305.396 126.402L287.924 143.871ZM341.886 161.855L324.414 144.386L341.886 126.918L359.358 144.386L341.886 161.855Z" fill="url(#paint13_linear_214_1577)"/>
<path d="M36.1012 162.886L54.0885 180.869L54.604 180.354L36.1012 161.855L17.5983 180.354L36.1012 198.853L36.6167 198.338L18.6294 180.354L36.1012 162.886Z" fill="url(#paint14_linear_214_1577)"/>
<path d="M233.959 161.855L215.456 180.354L215.972 180.87L234.474 162.371L233.959 161.855Z" fill="url(#paint15_linear_214_1577)"/>
<path d="M108.566 180.354L90.5788 162.37L108.051 144.902L144.025 180.869L144.541 180.354L108.566 144.386L126.038 126.918L144.025 144.902L144.541 144.386L126.553 126.402L144.541 108.419L108.051 71.9355L107.535 72.4509L125.522 90.4348L54.0886 161.855L36.6169 144.386L90.5788 90.4348L72.5915 72.4509L90.5788 54.4671L72.5915 36.4832L108.051 1.03101L126.038 19.0149L126.553 18.4994L108.051 9.95217e-05L72.0759 35.9678L54.0886 17.9839L53.5731 18.4994L71.5604 36.4832L36.1013 71.9355L18.6296 54.4671L36.6169 36.4832L18.6296 18.4994L36.6169 0.515555L36.1013 9.95217e-05L-0.388857 36.4832L17.5985 54.4671L-0.388857 72.4509L18.114 90.9502L36.1013 72.9664L54.0886 90.9502L54.6042 90.4348L36.6169 72.4509L72.0759 36.9987L89.5477 54.4671L71.5604 72.4509L89.5477 90.4348L18.114 161.855L0.126698 143.871L-0.388857 144.386L17.5985 162.37L-0.388857 180.354L18.114 198.853L18.6296 198.338L0.642253 180.354L36.1013 144.902L71.5604 180.354L54.0886 197.822L36.1013 179.838L35.5858 180.354L54.0886 198.853L72.0759 180.869L90.0632 198.853L108.566 180.354ZM0.642253 36.4832L18.114 19.0149L35.5858 36.4832L18.114 53.9516L0.642253 36.4832ZM18.114 89.9193L0.642253 72.4509L18.114 54.9825L35.5858 72.4509L18.114 89.9193ZM126.038 90.9502L143.51 108.419L90.0632 161.855L72.5915 144.386L126.038 90.9502ZM54.6042 162.37L72.0759 144.902L89.5477 162.37L72.0759 179.838L54.6042 162.37ZM90.0632 197.822L72.5915 180.354L90.0632 162.886L107.535 180.354L90.0632 197.822Z" fill="url(#paint16_linear_214_1577)"/>
<path d="M179.997 179.838L161.495 198.337L162.01 198.853L180.513 180.354L179.997 179.838Z" fill="url(#paint17_linear_214_1577)"/>
<path d="M269.933 179.839L251.43 198.338L251.946 198.854L270.448 180.355L269.933 179.839Z" fill="url(#paint18_linear_214_1577)"/>
<path d="M342.401 180.354L323.898 161.855L323.383 162.37L341.37 180.354L323.898 197.822L305.911 179.839L305.395 180.354L323.898 198.853L342.401 180.354Z" fill="url(#paint19_linear_214_1577)"/>
</g>
<defs>
<linearGradient id="paint0_linear_214_1577" x1="180" y1="0" x2="180" y2="246.854" gradientUnits="userSpaceOnUse">
<stop stop-color="#1A6B4F" stop-opacity="0.15"/>
<stop offset="1" stop-color="#1A6B4F" stop-opacity="0"/>
</linearGradient>
<linearGradient id="paint1_linear_214_1577" x1="180" y1="6.10352e-05" x2="180" y2="198.854" gradientUnits="userSpaceOnUse">
<stop stop-color="#1A6B4F" stop-opacity="0.15"/>
<stop offset="1" stop-color="#1A6B4F" stop-opacity="0.02"/>
</linearGradient>
<linearGradient id="paint2_linear_214_1577" x1="180" y1="6.10352e-05" x2="180" y2="198.854" gradientUnits="userSpaceOnUse">
<stop stop-color="#1A6B4F" stop-opacity="0.15"/>
<stop offset="1" stop-color="#1A6B4F" stop-opacity="0.02"/>
</linearGradient>
<linearGradient id="paint3_linear_214_1577" x1="180" y1="6.10352e-05" x2="180" y2="198.854" gradientUnits="userSpaceOnUse">
<stop stop-color="#1A6B4F" stop-opacity="0.15"/>
<stop offset="1" stop-color="#1A6B4F" stop-opacity="0.02"/>
</linearGradient>
<linearGradient id="paint4_linear_214_1577" x1="180" y1="6.10352e-05" x2="180" y2="198.854" gradientUnits="userSpaceOnUse">
<stop stop-color="#1A6B4F" stop-opacity="0.15"/>
<stop offset="1" stop-color="#1A6B4F" stop-opacity="0.02"/>
</linearGradient>
<linearGradient id="paint5_linear_214_1577" x1="180" y1="6.10352e-05" x2="180" y2="198.854" gradientUnits="userSpaceOnUse">
<stop stop-color="#1A6B4F" stop-opacity="0.15"/>
<stop offset="1" stop-color="#1A6B4F" stop-opacity="0.02"/>
</linearGradient>
<linearGradient id="paint6_linear_214_1577" x1="180" y1="6.10352e-05" x2="180" y2="198.854" gradientUnits="userSpaceOnUse">
<stop stop-color="#1A6B4F" stop-opacity="0.15"/>
<stop offset="1" stop-color="#1A6B4F" stop-opacity="0.02"/>
</linearGradient>
<linearGradient id="paint7_linear_214_1577" x1="180" y1="6.10352e-05" x2="180" y2="198.854" gradientUnits="userSpaceOnUse">
<stop stop-color="#1A6B4F" stop-opacity="0.15"/>
<stop offset="1" stop-color="#1A6B4F" stop-opacity="0.02"/>
</linearGradient>
<linearGradient id="paint8_linear_214_1577" x1="180" y1="6.10352e-05" x2="180" y2="198.854" gradientUnits="userSpaceOnUse">
<stop stop-color="#1A6B4F" stop-opacity="0.15"/>
<stop offset="1" stop-color="#1A6B4F" stop-opacity="0.02"/>
</linearGradient>
<linearGradient id="paint9_linear_214_1577" x1="180" y1="6.10352e-05" x2="180" y2="198.854" gradientUnits="userSpaceOnUse">
<stop stop-color="#1A6B4F" stop-opacity="0.15"/>
<stop offset="1" stop-color="#1A6B4F" stop-opacity="0.02"/>
</linearGradient>
<linearGradient id="paint10_linear_214_1577" x1="180" y1="6.10352e-05" x2="180" y2="198.854" gradientUnits="userSpaceOnUse">
<stop stop-color="#1A6B4F" stop-opacity="0.15"/>
<stop offset="1" stop-color="#1A6B4F" stop-opacity="0.02"/>
</linearGradient>
<linearGradient id="paint11_linear_214_1577" x1="180" y1="6.10352e-05" x2="180" y2="198.854" gradientUnits="userSpaceOnUse">
<stop stop-color="#1A6B4F" stop-opacity="0.15"/>
<stop offset="1" stop-color="#1A6B4F" stop-opacity="0.02"/>
</linearGradient>
<linearGradient id="paint12_linear_214_1577" x1="180" y1="6.10352e-05" x2="180" y2="198.854" gradientUnits="userSpaceOnUse">
<stop stop-color="#1A6B4F" stop-opacity="0.15"/>
<stop offset="1" stop-color="#1A6B4F" stop-opacity="0.02"/>
</linearGradient>
<linearGradient id="paint13_linear_214_1577" x1="180" y1="6.10352e-05" x2="180" y2="198.854" gradientUnits="userSpaceOnUse">
<stop stop-color="#1A6B4F" stop-opacity="0.15"/>
<stop offset="1" stop-color="#1A6B4F" stop-opacity="0.02"/>
</linearGradient>
<linearGradient id="paint14_linear_214_1577" x1="180" y1="6.10352e-05" x2="180" y2="198.854" gradientUnits="userSpaceOnUse">
<stop stop-color="#1A6B4F" stop-opacity="0.15"/>
<stop offset="1" stop-color="#1A6B4F" stop-opacity="0.02"/>
</linearGradient>
<linearGradient id="paint15_linear_214_1577" x1="180" y1="6.10352e-05" x2="180" y2="198.854" gradientUnits="userSpaceOnUse">
<stop stop-color="#1A6B4F" stop-opacity="0.15"/>
<stop offset="1" stop-color="#1A6B4F" stop-opacity="0.02"/>
</linearGradient>
<linearGradient id="paint16_linear_214_1577" x1="180" y1="6.10352e-05" x2="180" y2="198.854" gradientUnits="userSpaceOnUse">
<stop stop-color="#1A6B4F" stop-opacity="0.15"/>
<stop offset="1" stop-color="#1A6B4F" stop-opacity="0.02"/>
</linearGradient>
<linearGradient id="paint17_linear_214_1577" x1="180" y1="6.10352e-05" x2="180" y2="198.854" gradientUnits="userSpaceOnUse">
<stop stop-color="#1A6B4F" stop-opacity="0.15"/>
<stop offset="1" stop-color="#1A6B4F" stop-opacity="0.02"/>
</linearGradient>
<linearGradient id="paint18_linear_214_1577" x1="180" y1="6.10352e-05" x2="180" y2="198.854" gradientUnits="userSpaceOnUse">
<stop stop-color="#1A6B4F" stop-opacity="0.15"/>
<stop offset="1" stop-color="#1A6B4F" stop-opacity="0.02"/>
</linearGradient>
<linearGradient id="paint19_linear_214_1577" x1="180" y1="6.10352e-05" x2="180" y2="198.854" gradientUnits="userSpaceOnUse">
<stop stop-color="#1A6B4F" stop-opacity="0.15"/>
<stop offset="1" stop-color="#1A6B4F" stop-opacity="0.02"/>
</linearGradient>
<clipPath id="clip0_214_1577">
<rect width="360" height="246.854" fill="white"/>
</clipPath>
</defs>
</svg>
