<svg width="296" height="77" viewBox="0 0 296 77" fill="none" xmlns="http://www.w3.org/2000/svg">
<path d="M46.6589 26.8681C46.918 28.253 45.8195 29.6204 45.8195 29.6204C45.8195 29.6204 44.3013 28.7424 44.0422 27.3575C43.7831 25.9727 44.8816 24.6053 44.8816 24.6053C44.8816 24.6053 46.3998 25.4833 46.6589 26.8681Z" fill="#C8CACE"/>
<path d="M42.965 28.8656C44.368 28.7374 45.6267 29.9589 45.6267 29.9589C45.6267 29.9589 44.6104 31.3883 43.2075 31.5167C41.8045 31.6449 40.5459 30.4234 40.5459 30.4234C40.5459 30.4234 41.5621 28.9942 42.965 28.8656Z" fill="#C8CACE"/>
<path d="M40.3729 26.8067C41.7817 26.806 42.9247 28.1364 42.9247 28.1364C42.9247 28.1364 41.7833 29.4679 40.3743 29.4685C38.9655 29.4691 37.8226 28.1387 37.8226 28.1387C37.8226 28.1387 38.9639 26.8072 40.3729 26.8067Z" fill="#C8CACE"/>
<path d="M38.6057 24.1927C39.9832 24.4888 40.8203 26.0299 40.8203 26.0299C40.8203 26.0299 39.424 27.0911 38.0465 26.795C36.6691 26.4989 35.832 24.9578 35.832 24.9578C35.832 24.9578 37.2283 23.8966 38.6057 24.1927Z" fill="#C8CACE"/>
<path d="M37.3852 21.306C38.6526 21.9212 39.099 23.6174 39.099 23.6174C39.099 23.6174 37.4903 24.3159 36.2229 23.7008C34.9555 23.0856 34.5092 21.3893 34.5092 21.3893C34.5092 21.3893 36.1179 20.6909 37.3852 21.306Z" fill="#C8CACE"/>
<path d="M36.8854 17.9783C37.8851 18.9709 37.7577 20.7202 37.7577 20.7202C37.7577 20.7202 36.0094 20.86 35.0098 19.8672C34.0099 18.8745 34.1375 17.1253 34.1375 17.1253C34.1375 17.1253 35.8855 16.9857 36.8854 17.9783Z" fill="#C8CACE"/>
<path d="M36.9381 14.6965C37.7359 15.8577 37.2854 17.5527 37.2854 17.5527C37.2854 17.5527 35.5416 17.3649 34.7439 16.2037C33.9462 15.0425 34.3966 13.3475 34.3966 13.3475C34.3966 13.3475 36.1404 13.5352 36.9381 14.6965Z" fill="#C8CACE"/>
<path d="M37.6947 11.4713C38.1415 12.8075 37.2413 14.3125 37.2413 14.3125C37.2413 14.3125 35.6167 13.6514 35.1701 12.3153C34.7233 10.979 35.6235 9.47405 35.6235 9.47405C35.6235 9.47405 37.2479 10.135 37.6947 11.4713Z" fill="#C8CACE"/>
<path d="M39.0261 8.41476C39.1867 9.81452 37.9944 11.1008 37.9944 11.1008C37.9944 11.1008 36.5419 10.1178 36.3816 8.71815C36.221 7.3184 37.4133 6.03212 37.4133 6.03212C37.4133 6.03212 38.8655 7.01501 39.0261 8.41476Z" fill="#C8CACE"/>
<path d="M40.8627 5.43688C40.8224 6.84515 39.4593 7.94876 39.4593 7.94876C39.4593 7.94876 38.1617 6.76899 38.2018 5.36059C38.2421 3.95232 39.6052 2.84871 39.6052 2.84871C39.6052 2.84871 40.903 4.02862 40.8627 5.43688Z" fill="#C8CACE"/>
<path d="M44.228 24.7933C44.3264 26.1987 43.0783 27.4311 43.0783 27.4311C43.0783 27.4311 41.671 26.3845 41.5726 24.9791C41.4742 23.5736 42.7222 22.3415 42.7222 22.3415C42.7222 22.3415 44.1297 23.3878 44.228 24.7933Z" fill="#C8CACE"/>
<path d="M42.3612 22.1753C42.0451 23.5482 40.4919 24.3628 40.4919 24.3628C40.4919 24.3628 39.4511 22.9513 39.7669 21.5782C40.083 20.2053 41.6362 19.3907 41.6362 19.3907C41.6362 19.3907 42.6773 20.8023 42.3612 22.1753Z" fill="#C8CACE"/>
<path d="M41.1091 19.0896C40.5816 20.3959 38.9197 20.9567 38.9197 20.9567C38.9197 20.9567 38.1132 19.3993 38.6407 18.0928C39.1682 16.7865 40.8301 16.2257 40.8301 16.2257C40.8301 16.2257 41.6365 17.7833 41.1091 19.0896Z" fill="#C8CACE"/>
<path d="M40.6633 15.667C39.934 16.8723 38.2039 17.1606 38.2039 17.1606C38.2039 17.1606 37.6564 15.4944 38.3858 14.2889C39.1152 13.0834 40.8452 12.7953 40.8452 12.7953C40.8452 12.7953 41.3927 14.4615 40.6633 15.667Z" fill="#C8CACE"/>
<path d="M41.1475 12.2202C40.1726 13.2374 38.4213 13.1408 38.4213 13.1408C38.4213 13.1408 38.2507 11.3952 39.2257 10.3783C40.2005 9.36106 41.9518 9.45765 41.9518 9.45765C41.9518 9.45765 42.1225 11.2031 41.1475 12.2202Z" fill="#C8CACE"/>
<path d="M42.5943 8.44153C41.6572 9.41932 39.9736 9.32667 39.9736 9.32667C39.9736 9.32667 39.8096 7.64871 40.7469 6.6707C41.684 5.69292 43.3676 5.78557 43.3676 5.78557C43.3676 5.78557 43.5315 7.46375 42.5943 8.44153Z" fill="#C8CACE"/>
<path d="M43.7096 4.60871C42.9557 5.73388 41.2816 5.93379 41.2816 5.93379C41.2816 5.93379 40.8298 4.30936 41.5837 3.18419C42.3376 2.05902 44.0117 1.85911 44.0117 1.85911C44.0117 1.85911 44.4637 3.48367 43.7096 4.60871Z" fill="#C8CACE"/>
<path d="M40.0453 8.04076C38.0128 11.611 37.3762 15.8445 38.374 19.8414C39.4064 23.9763 42.0886 27.5098 45.761 29.6596C45.8617 29.7186 45.9524 29.9755 45.7749 29.8715C40.0715 26.5327 36.8259 19.9749 37.8392 13.4083C38.1415 11.4494 38.8192 9.57584 39.7988 7.85536C39.8627 7.74372 40.096 7.9514 40.0453 8.04076Z" fill="#C8CACE"/>
<path d="M66.1729 21V10.44H67.6609V21H66.1729ZM70.2953 21V15.864V12.728H71.6073L71.4633 15.352H71.7353C71.8846 14.7013 72.0819 14.168 72.3273 13.752C72.5833 13.336 72.9033 13.0267 73.2873 12.824C73.6713 12.6213 74.1193 12.52 74.6313 12.52C75.5486 12.52 76.2419 12.8507 76.7113 13.512C77.1913 14.1627 77.4313 15.1387 77.4313 16.44V21H75.9593V16.568C75.9593 15.6293 75.8099 14.936 75.5113 14.488C75.2233 14.04 74.7966 13.816 74.2313 13.816C73.7193 13.816 73.2819 13.976 72.9193 14.296C72.5673 14.616 72.2899 15.0373 72.0873 15.56C71.8846 16.0827 71.7726 16.648 71.7513 17.256V21H70.2953ZM82.7698 21.208C82.0658 21.208 81.4631 21.0213 80.9618 20.648C80.4604 20.2747 80.0764 19.7627 79.8098 19.112C79.5538 18.4613 79.4258 17.7147 79.4258 16.872C79.4258 16.0293 79.5538 15.2827 79.8098 14.632C80.0658 13.9813 80.4391 13.4693 80.9298 13.096C81.4204 12.7227 82.0231 12.536 82.7378 12.536C83.3244 12.536 83.8044 12.6587 84.1778 12.904C84.5511 13.1493 84.8498 13.4693 85.0738 13.864C85.3084 14.248 85.4791 14.6693 85.5858 15.128H85.8738C85.8204 14.8187 85.7724 14.4987 85.7298 14.168C85.6871 13.8267 85.6498 13.496 85.6178 13.176C85.5858 12.8453 85.5698 12.552 85.5698 12.296V9.8H87.0417V16.92V21H85.7298L85.8098 18.76H85.5538C85.4258 19.24 85.2444 19.6667 85.0098 20.04C84.7751 20.4027 84.4764 20.6907 84.1138 20.904C83.7511 21.1067 83.3031 21.208 82.7698 21.208ZM83.1058 19.928C83.4898 19.928 83.8364 19.8373 84.1458 19.656C84.4551 19.4747 84.7164 19.24 84.9298 18.952C85.1431 18.6533 85.3031 18.3333 85.4098 17.992C85.5271 17.6507 85.5858 17.32 85.5858 17V16.808C85.5858 16.584 85.5538 16.344 85.4898 16.088C85.4258 15.8213 85.3298 15.5547 85.2018 15.288C85.0844 15.0213 84.9244 14.776 84.7218 14.552C84.5298 14.3173 84.3004 14.136 84.0338 14.008C83.7671 13.8693 83.4684 13.8 83.1378 13.8C82.6578 13.8 82.2524 13.9387 81.9218 14.216C81.6018 14.4827 81.3564 14.8507 81.1858 15.32C81.0258 15.7893 80.9457 16.3173 80.9457 16.904C80.9457 17.512 81.0311 18.0453 81.2018 18.504C81.3724 18.952 81.6178 19.304 81.9378 19.56C82.2684 19.8053 82.6578 19.928 83.1058 19.928ZM89.5925 21V12.728H91.0485V21H89.5925ZM90.3285 11.288C89.9872 11.288 89.7312 11.2187 89.5605 11.08C89.3898 10.9413 89.3045 10.7333 89.3045 10.456C89.3045 10.1787 89.3898 9.97067 89.5605 9.832C89.7312 9.69333 89.9818 9.624 90.3125 9.624C90.6538 9.624 90.9098 9.69333 91.0805 9.832C91.2512 9.97067 91.3365 10.1787 91.3365 10.456C91.3365 10.7227 91.2512 10.9307 91.0805 11.08C90.9098 11.2187 90.6592 11.288 90.3285 11.288ZM95.4805 21.208C95.0325 21.208 94.6272 21.1227 94.2645 20.952C93.9018 20.7707 93.6138 20.5093 93.4005 20.168C93.1872 19.816 93.0805 19.3733 93.0805 18.84C93.0805 18.4453 93.1498 18.0987 93.2885 17.8C93.4378 17.5013 93.6618 17.2453 93.9605 17.032C94.2698 16.8187 94.6645 16.6427 95.1445 16.504C95.6245 16.3653 96.2112 16.248 96.9045 16.152C97.2992 16.0987 97.6192 16.0453 97.8645 15.992C98.1205 15.9387 98.3072 15.8533 98.4245 15.736C98.5418 15.608 98.6005 15.4213 98.6005 15.176C98.6005 14.7707 98.4618 14.4293 98.1845 14.152C97.9072 13.8747 97.4698 13.736 96.8725 13.736C96.5632 13.736 96.2485 13.7893 95.9285 13.896C95.6085 14.0027 95.3258 14.184 95.0805 14.44C94.8458 14.6853 94.6965 15.032 94.6325 15.48L93.2885 15.032C93.3738 14.648 93.5125 14.3013 93.7045 13.992C93.9072 13.6827 94.1632 13.4213 94.4725 13.208C94.7818 12.984 95.1392 12.8133 95.5445 12.696C95.9605 12.5787 96.4192 12.52 96.9205 12.52C97.6138 12.52 98.1898 12.6373 98.6485 12.872C99.1178 13.1067 99.4645 13.4693 99.6885 13.96C99.9232 14.44 100.041 15.0587 100.041 15.816V17.656C100.041 17.9867 100.046 18.3493 100.057 18.744C100.078 19.128 100.105 19.5173 100.137 19.912C100.169 20.296 100.201 20.6587 100.233 21H98.8885C98.8565 20.6587 98.8245 20.3173 98.7925 19.976C98.7712 19.6347 98.7552 19.2933 98.7445 18.952H98.5365C98.3765 19.3467 98.1632 19.7147 97.8965 20.056C97.6298 20.3973 97.2938 20.6747 96.8885 20.888C96.4938 21.1013 96.0245 21.208 95.4805 21.208ZM95.9125 20.024C96.1472 20.024 96.3818 19.9867 96.6165 19.912C96.8618 19.8373 97.1018 19.7147 97.3365 19.544C97.5818 19.3733 97.8112 19.1547 98.0245 18.888C98.2485 18.6213 98.4458 18.3013 98.6165 17.928V16.328L99.0325 16.408C98.8618 16.5787 98.6325 16.7067 98.3445 16.792C98.0672 16.8773 97.7578 16.9467 97.4165 17C97.0752 17.0533 96.7338 17.112 96.3925 17.176C96.0512 17.2293 95.7365 17.3147 95.4485 17.432C95.1712 17.5387 94.9472 17.6933 94.7765 17.896C94.6058 18.0987 94.5205 18.376 94.5205 18.728C94.5205 19.1547 94.6485 19.48 94.9045 19.704C95.1605 19.9173 95.4965 20.024 95.9125 20.024ZM101.131 13.288C101.323 12.7867 101.456 12.3387 101.531 11.944C101.616 11.5493 101.664 11.1813 101.675 10.84C101.696 10.488 101.707 10.1413 101.707 9.8H103.099C103.099 10.3547 103.062 10.8507 102.987 11.288C102.923 11.7147 102.832 12.0933 102.715 12.424C102.598 12.744 102.475 13.032 102.347 13.288H101.131ZM107.289 21.208C106.713 21.208 106.201 21.144 105.753 21.016C105.305 20.8987 104.932 20.728 104.633 20.504C104.334 20.2693 104.105 19.992 103.945 19.672C103.785 19.352 103.7 19 103.689 18.616L104.921 18.296C104.9 18.648 104.985 18.9573 105.177 19.224C105.38 19.48 105.662 19.6773 106.025 19.816C106.398 19.9547 106.846 20.024 107.369 20.024C107.998 20.024 108.484 19.9173 108.825 19.704C109.177 19.4907 109.353 19.1973 109.353 18.824C109.353 18.5253 109.257 18.296 109.065 18.136C108.873 17.9653 108.606 17.832 108.265 17.736C107.934 17.6293 107.54 17.5333 107.081 17.448C106.697 17.3627 106.313 17.2667 105.929 17.16C105.545 17.0533 105.193 16.9147 104.873 16.744C104.564 16.5627 104.313 16.328 104.121 16.04C103.929 15.752 103.833 15.3947 103.833 14.968C103.833 14.4667 103.966 14.0347 104.233 13.672C104.5 13.3093 104.878 13.0267 105.369 12.824C105.86 12.6213 106.446 12.52 107.129 12.52C107.812 12.52 108.393 12.6267 108.873 12.84C109.353 13.0427 109.732 13.3307 110.009 13.704C110.286 14.0773 110.441 14.5147 110.473 15.016L109.209 15.336C109.198 14.984 109.102 14.6853 108.921 14.44C108.75 14.1947 108.505 14.0133 108.185 13.896C107.865 13.768 107.492 13.704 107.065 13.704C106.5 13.704 106.052 13.8107 105.721 14.024C105.39 14.2373 105.225 14.5307 105.225 14.904C105.225 15.1813 105.321 15.4053 105.513 15.576C105.716 15.7467 105.988 15.88 106.329 15.976C106.67 16.072 107.049 16.168 107.465 16.264C107.892 16.3493 108.297 16.4453 108.681 16.552C109.076 16.6587 109.428 16.7973 109.737 16.968C110.046 17.1387 110.292 17.368 110.473 17.656C110.654 17.9333 110.745 18.2907 110.745 18.728C110.745 19.272 110.601 19.7307 110.313 20.104C110.025 20.4667 109.62 20.744 109.097 20.936C108.585 21.1173 107.982 21.208 107.289 21.208ZM116.748 21V15.88V12.728H118.044L117.9 15.352H118.172C118.311 14.7227 118.498 14.2 118.732 13.784C118.967 13.3573 119.255 13.0427 119.596 12.84C119.948 12.6267 120.348 12.52 120.796 12.52C121.33 12.52 121.767 12.6533 122.108 12.92C122.45 13.176 122.7 13.512 122.86 13.928C123.031 14.344 123.116 14.8027 123.116 15.304H123.372C123.49 14.7067 123.671 14.2 123.916 13.784C124.162 13.368 124.466 13.0533 124.828 12.84C125.191 12.6267 125.607 12.52 126.076 12.52C126.503 12.52 126.876 12.6053 127.196 12.776C127.516 12.9467 127.788 13.2027 128.012 13.544C128.236 13.8747 128.402 14.2853 128.508 14.776C128.615 15.2667 128.668 15.832 128.668 16.472V21H127.212V16.664C127.212 16.0347 127.154 15.512 127.036 15.096C126.919 14.6693 126.743 14.3547 126.508 14.152C126.284 13.9387 125.996 13.832 125.644 13.832C125.25 13.832 124.892 13.9707 124.572 14.248C124.263 14.5147 124.007 14.8933 123.804 15.384C123.612 15.864 123.484 16.4133 123.42 17.032V21H121.996V16.808C121.996 16.1467 121.938 15.5973 121.82 15.16C121.703 14.7227 121.527 14.392 121.292 14.168C121.068 13.944 120.775 13.832 120.412 13.832C119.986 13.832 119.618 13.9813 119.308 14.28C118.999 14.568 118.748 14.9573 118.556 15.448C118.375 15.9387 118.258 16.488 118.204 17.096V21H116.748ZM134.613 21.208C133.824 21.208 133.125 21.0373 132.517 20.696C131.92 20.344 131.45 19.8427 131.109 19.192C130.778 18.5413 130.613 17.752 130.613 16.824C130.613 15.864 130.789 15.0693 131.141 14.44C131.504 13.8 131.984 13.32 132.581 13C133.178 12.68 133.845 12.52 134.581 12.52C135.349 12.52 136.032 12.6907 136.629 13.032C137.237 13.3627 137.717 13.8533 138.069 14.504C138.421 15.144 138.597 15.9387 138.597 16.888C138.597 17.8373 138.421 18.632 138.069 19.272C137.728 19.912 137.253 20.3973 136.645 20.728C136.048 21.048 135.37 21.208 134.613 21.208ZM134.677 20.008C135.189 20.008 135.626 19.8853 135.989 19.64C136.362 19.384 136.645 19.0267 136.837 18.568C137.04 18.1093 137.141 17.5653 137.141 16.936C137.141 16.2853 137.034 15.7253 136.821 15.256C136.618 14.776 136.325 14.408 135.941 14.152C135.557 13.8853 135.093 13.752 134.549 13.752C134.058 13.752 133.626 13.8693 133.253 14.104C132.88 14.3387 132.592 14.6853 132.389 15.144C132.186 15.592 132.085 16.1413 132.085 16.792C132.085 17.7947 132.314 18.584 132.773 19.16C133.242 19.7253 133.877 20.008 134.677 20.008ZM143.774 21.208C143.198 21.208 142.686 21.144 142.238 21.016C141.79 20.8987 141.416 20.728 141.118 20.504C140.819 20.2693 140.59 19.992 140.43 19.672C140.27 19.352 140.184 19 140.174 18.616L141.406 18.296C141.384 18.648 141.47 18.9573 141.662 19.224C141.864 19.48 142.147 19.6773 142.51 19.816C142.883 19.9547 143.331 20.024 143.854 20.024C144.483 20.024 144.968 19.9173 145.31 19.704C145.662 19.4907 145.838 19.1973 145.838 18.824C145.838 18.5253 145.742 18.296 145.55 18.136C145.358 17.9653 145.091 17.832 144.75 17.736C144.419 17.6293 144.024 17.5333 143.566 17.448C143.182 17.3627 142.798 17.2667 142.414 17.16C142.03 17.0533 141.678 16.9147 141.358 16.744C141.048 16.5627 140.798 16.328 140.606 16.04C140.414 15.752 140.318 15.3947 140.318 14.968C140.318 14.4667 140.451 14.0347 140.718 13.672C140.984 13.3093 141.363 13.0267 141.854 12.824C142.344 12.6213 142.931 12.52 143.614 12.52C144.296 12.52 144.878 12.6267 145.358 12.84C145.838 13.0427 146.216 13.3307 146.494 13.704C146.771 14.0773 146.926 14.5147 146.958 15.016L145.694 15.336C145.683 14.984 145.587 14.6853 145.406 14.44C145.235 14.1947 144.99 14.0133 144.67 13.896C144.35 13.768 143.976 13.704 143.549 13.704C142.984 13.704 142.536 13.8107 142.206 14.024C141.875 14.2373 141.71 14.5307 141.71 14.904C141.71 15.1813 141.806 15.4053 141.998 15.576C142.2 15.7467 142.472 15.88 142.814 15.976C143.155 16.072 143.534 16.168 143.95 16.264C144.376 16.3493 144.782 16.4453 145.166 16.552C145.56 16.6587 145.912 16.7973 146.222 16.968C146.531 17.1387 146.776 17.368 146.958 17.656C147.139 17.9333 147.23 18.2907 147.23 18.728C147.23 19.272 147.086 19.7307 146.798 20.104C146.51 20.4667 146.104 20.744 145.582 20.936C145.07 21.1173 144.467 21.208 143.774 21.208ZM151.762 21.16C150.994 21.16 150.423 20.952 150.05 20.536C149.677 20.12 149.49 19.4853 149.49 18.632V13.944H148.242L148.258 12.728H149.042C149.309 12.728 149.501 12.68 149.618 12.584C149.746 12.488 149.821 12.328 149.842 12.104L150.002 10.856H150.898V12.728H153.282V13.96H150.898V18.6C150.898 19.0267 150.994 19.336 151.186 19.528C151.389 19.7093 151.677 19.8 152.05 19.8C152.253 19.8 152.461 19.7733 152.674 19.72C152.898 19.6667 153.117 19.56 153.33 19.4V20.856C153.021 20.9733 152.733 21.0533 152.466 21.096C152.21 21.1387 151.975 21.16 151.762 21.16ZM162.242 21.208C161.666 21.208 161.154 21.144 160.706 21.016C160.258 20.8987 159.885 20.728 159.586 20.504C159.288 20.2693 159.058 19.992 158.898 19.672C158.738 19.352 158.653 19 158.642 18.616L159.874 18.296C159.853 18.648 159.938 18.9573 160.13 19.224C160.333 19.48 160.616 19.6773 160.978 19.816C161.352 19.9547 161.8 20.024 162.322 20.024C162.952 20.024 163.437 19.9173 163.778 19.704C164.13 19.4907 164.306 19.1973 164.306 18.824C164.306 18.5253 164.21 18.296 164.018 18.136C163.826 17.9653 163.56 17.832 163.218 17.736C162.888 17.6293 162.493 17.5333 162.034 17.448C161.65 17.3627 161.266 17.2667 160.882 17.16C160.498 17.0533 160.146 16.9147 159.826 16.744C159.517 16.5627 159.266 16.328 159.074 16.04C158.882 15.752 158.786 15.3947 158.786 14.968C158.786 14.4667 158.92 14.0347 159.186 13.672C159.453 13.3093 159.832 13.0267 160.322 12.824C160.813 12.6213 161.4 12.52 162.082 12.52C162.765 12.52 163.346 12.6267 163.826 12.84C164.306 13.0427 164.685 13.3307 164.962 13.704C165.24 14.0773 165.394 14.5147 165.426 15.016L164.162 15.336C164.152 14.984 164.056 14.6853 163.874 14.44C163.704 14.1947 163.458 14.0133 163.138 13.896C162.818 13.768 162.445 13.704 162.018 13.704C161.453 13.704 161.005 13.8107 160.674 14.024C160.344 14.2373 160.178 14.5307 160.178 14.904C160.178 15.1813 160.274 15.4053 160.466 15.576C160.669 15.7467 160.941 15.88 161.282 15.976C161.624 16.072 162.002 16.168 162.418 16.264C162.845 16.3493 163.25 16.4453 163.634 16.552C164.029 16.6587 164.381 16.7973 164.69 16.968C165 17.1387 165.245 17.368 165.426 17.656C165.608 17.9333 165.698 18.2907 165.698 18.728C165.698 19.272 165.554 19.7307 165.266 20.104C164.978 20.4667 164.573 20.744 164.05 20.936C163.538 21.1173 162.936 21.208 162.242 21.208ZM167.686 21V12.728H169.142V21H167.686ZM168.422 11.288C168.081 11.288 167.825 11.2187 167.654 11.08C167.484 10.9413 167.398 10.7333 167.398 10.456C167.398 10.1787 167.484 9.97067 167.654 9.832C167.825 9.69333 168.076 9.624 168.406 9.624C168.748 9.624 169.004 9.69333 169.174 9.832C169.345 9.97067 169.43 10.1787 169.43 10.456C169.43 10.7227 169.345 10.9307 169.174 11.08C169.004 11.2187 168.753 11.288 168.422 11.288ZM171.67 21V15.88V12.728H172.966L172.822 15.352H173.094C173.233 14.7227 173.42 14.2 173.654 13.784C173.889 13.3573 174.177 13.0427 174.518 12.84C174.87 12.6267 175.27 12.52 175.718 12.52C176.252 12.52 176.689 12.6533 177.03 12.92C177.372 13.176 177.622 13.512 177.782 13.928C177.953 14.344 178.038 14.8027 178.038 15.304H178.294C178.412 14.7067 178.593 14.2 178.838 13.784C179.084 13.368 179.388 13.0533 179.75 12.84C180.113 12.6267 180.529 12.52 180.998 12.52C181.425 12.52 181.798 12.6053 182.118 12.776C182.438 12.9467 182.71 13.2027 182.934 13.544C183.158 13.8747 183.324 14.2853 183.43 14.776C183.537 15.2667 183.59 15.832 183.59 16.472V21H182.134V16.664C182.134 16.0347 182.076 15.512 181.958 15.096C181.841 14.6693 181.665 14.3547 181.43 14.152C181.206 13.9387 180.918 13.832 180.566 13.832C180.172 13.832 179.814 13.9707 179.494 14.248C179.185 14.5147 178.929 14.8933 178.726 15.384C178.534 15.864 178.406 16.4133 178.342 17.032V21H176.918V16.808C176.918 16.1467 176.86 15.5973 176.742 15.16C176.625 14.7227 176.449 14.392 176.214 14.168C175.99 13.944 175.697 13.832 175.334 13.832C174.908 13.832 174.54 13.9813 174.23 14.28C173.921 14.568 173.67 14.9573 173.478 15.448C173.297 15.9387 173.18 16.488 173.126 17.096V21H171.67ZM185.983 23.592V16.872V12.728H187.295L187.215 14.856H187.455C187.583 14.3867 187.759 13.9813 187.983 13.64C188.217 13.288 188.516 13.016 188.879 12.824C189.241 12.6213 189.679 12.52 190.191 12.52C190.948 12.52 191.577 12.712 192.079 13.096C192.591 13.4693 192.975 13.9867 193.231 14.648C193.487 15.2987 193.615 16.04 193.615 16.872C193.615 17.704 193.487 18.4453 193.231 19.096C192.975 19.7467 192.596 20.264 192.095 20.648C191.604 21.0213 191.001 21.208 190.287 21.208C189.711 21.208 189.231 21.0907 188.847 20.856C188.473 20.6107 188.175 20.2907 187.951 19.896C187.727 19.5013 187.551 19.0907 187.423 18.664H187.151C187.215 18.952 187.268 19.2507 187.311 19.56C187.353 19.8693 187.385 20.1787 187.407 20.488C187.439 20.7867 187.455 21.0747 187.455 21.352V23.592H185.983ZM189.919 19.944C190.388 19.944 190.783 19.8107 191.103 19.544C191.423 19.2667 191.668 18.8933 191.839 18.424C192.009 17.9547 192.095 17.4267 192.095 16.84C192.095 16.2107 192.004 15.672 191.823 15.224C191.652 14.776 191.407 14.4293 191.087 14.184C190.767 13.928 190.377 13.8 189.919 13.8C189.524 13.8 189.172 13.8907 188.863 14.072C188.564 14.2427 188.308 14.4773 188.095 14.776C187.881 15.064 187.716 15.384 187.599 15.736C187.492 16.0773 187.439 16.4187 187.439 16.76V16.952C187.439 17.1653 187.471 17.4053 187.535 17.672C187.599 17.928 187.695 18.1893 187.823 18.456C187.951 18.7227 188.111 18.968 188.303 19.192C188.505 19.416 188.74 19.5973 189.007 19.736C189.273 19.8747 189.577 19.944 189.919 19.944ZM195.717 21V9.8H197.173V21H195.717ZM199.702 21V12.728H201.158V21H199.702ZM200.438 11.288C200.097 11.288 199.841 11.2187 199.67 11.08C199.499 10.9413 199.414 10.7333 199.414 10.456C199.414 10.1787 199.499 9.97067 199.67 9.832C199.841 9.69333 200.091 9.624 200.422 9.624C200.763 9.624 201.019 9.69333 201.19 9.832C201.361 9.97067 201.446 10.1787 201.446 10.456C201.446 10.7227 201.361 10.9307 201.19 11.08C201.019 11.2187 200.769 11.288 200.438 11.288ZM204.342 21V15.16H202.87V13.992L204.934 14.12V13.848C204.667 13.7413 204.443 13.5973 204.262 13.416C204.091 13.224 203.958 13.0053 203.862 12.76C203.777 12.5147 203.734 12.2533 203.734 11.976C203.734 11.528 203.83 11.1387 204.022 10.808C204.225 10.4773 204.507 10.216 204.87 10.024C205.243 9.832 205.686 9.736 206.198 9.736C206.603 9.736 206.966 9.79467 207.286 9.912C207.617 10.0187 207.889 10.1627 208.102 10.344L207.926 11.704C207.723 11.512 207.478 11.3627 207.19 11.256C206.902 11.1387 206.614 11.08 206.326 11.08C205.974 11.08 205.686 11.192 205.462 11.416C205.238 11.64 205.126 11.9867 205.126 12.456C205.126 12.7227 205.163 12.952 205.238 13.144C205.313 13.336 205.409 13.5013 205.526 13.64C205.654 13.768 205.782 13.8747 205.91 13.96H207.958L207.942 15.16H205.782V21H204.342ZM209.671 21V12.728H211.127V21H209.671ZM210.407 11.288C210.065 11.288 209.809 11.2187 209.639 11.08C209.468 10.9413 209.383 10.7333 209.383 10.456C209.383 10.1787 209.468 9.97067 209.639 9.832C209.809 9.69333 210.06 9.624 210.391 9.624C210.732 9.624 210.988 9.69333 211.159 9.832C211.329 9.97067 211.415 10.1787 211.415 10.456C211.415 10.7227 211.329 10.9307 211.159 11.08C210.988 11.2187 210.737 11.288 210.407 11.288ZM217.207 21.208C216.556 21.208 215.98 21.112 215.479 20.92C214.988 20.7173 214.572 20.4293 214.231 20.056C213.889 19.6827 213.633 19.24 213.463 18.728C213.292 18.216 213.207 17.64 213.207 17C213.207 16.3493 213.292 15.752 213.463 15.208C213.633 14.664 213.884 14.1893 214.215 13.784C214.545 13.3787 214.951 13.0693 215.431 12.856C215.911 12.632 216.46 12.52 217.079 12.52C217.623 12.52 218.119 12.6107 218.567 12.792C219.015 12.9733 219.393 13.256 219.703 13.64C220.023 14.0133 220.263 14.488 220.423 15.064C220.583 15.6293 220.647 16.296 220.615 17.064L214.119 17.112V16.12L219.735 16.072L219.239 16.744C219.292 16.072 219.228 15.5173 219.047 15.08C218.865 14.6427 218.604 14.312 218.263 14.088C217.932 13.864 217.537 13.752 217.079 13.752C216.588 13.752 216.156 13.88 215.783 14.136C215.409 14.392 215.121 14.76 214.919 15.24C214.727 15.72 214.631 16.3013 214.631 16.984C214.631 17.9653 214.849 18.7173 215.287 19.24C215.724 19.752 216.375 20.008 217.239 20.008C217.569 20.008 217.857 19.9707 218.103 19.896C218.359 19.8107 218.572 19.6987 218.743 19.56C218.924 19.4107 219.068 19.24 219.175 19.048C219.292 18.856 219.383 18.648 219.447 18.424L220.727 18.728C220.631 19.112 220.481 19.4587 220.279 19.768C220.087 20.0667 219.841 20.3227 219.543 20.536C219.255 20.7493 218.919 20.9147 218.535 21.032C218.151 21.1493 217.708 21.208 217.207 21.208ZM225.66 21.208C224.956 21.208 224.354 21.0213 223.852 20.648C223.351 20.2747 222.967 19.7627 222.7 19.112C222.444 18.4613 222.316 17.7147 222.316 16.872C222.316 16.0293 222.444 15.2827 222.7 14.632C222.956 13.9813 223.33 13.4693 223.82 13.096C224.311 12.7227 224.914 12.536 225.628 12.536C226.215 12.536 226.695 12.6587 227.068 12.904C227.442 13.1493 227.74 13.4693 227.964 13.864C228.199 14.248 228.37 14.6693 228.476 15.128H228.764C228.711 14.8187 228.663 14.4987 228.62 14.168C228.578 13.8267 228.54 13.496 228.508 13.176C228.476 12.8453 228.46 12.552 228.46 12.296V9.8H229.932V16.92V21H228.62L228.7 18.76H228.444C228.316 19.24 228.135 19.6667 227.9 20.04C227.666 20.4027 227.367 20.6907 227.004 20.904C226.642 21.1067 226.194 21.208 225.66 21.208ZM225.996 19.928C226.38 19.928 226.727 19.8373 227.036 19.656C227.346 19.4747 227.607 19.24 227.82 18.952C228.034 18.6533 228.194 18.3333 228.3 17.992C228.418 17.6507 228.476 17.32 228.476 17V16.808C228.476 16.584 228.444 16.344 228.38 16.088C228.316 15.8213 228.22 15.5547 228.092 15.288C227.975 15.0213 227.815 14.776 227.612 14.552C227.42 14.3173 227.191 14.136 226.924 14.008C226.658 13.8693 226.359 13.8 226.028 13.8C225.548 13.8 225.143 13.9387 224.812 14.216C224.492 14.4827 224.247 14.8507 224.076 15.32C223.916 15.7893 223.836 16.3173 223.836 16.904C223.836 17.512 223.922 18.0453 224.092 18.504C224.263 18.952 224.508 19.304 224.828 19.56C225.159 19.8053 225.548 19.928 225.996 19.928Z" fill="url(#paint0_linear_220_2130)"/>
<path d="M249.381 26.868C249.122 28.2529 250.221 29.6202 250.221 29.6202C250.221 29.6202 251.739 28.7423 251.998 27.3574C252.257 25.9725 251.158 24.6052 251.158 24.6052C251.158 24.6052 249.64 25.4831 249.381 26.868Z" fill="#C8CACE"/>
<path d="M253.075 28.8655C251.672 28.7373 250.413 29.9587 250.413 29.9587C250.413 29.9587 251.43 31.3882 252.832 31.5165C254.236 31.6447 255.494 30.4233 255.494 30.4233C255.494 30.4233 254.478 28.9941 253.075 28.8655Z" fill="#C8CACE"/>
<path d="M255.667 26.8066C254.258 26.8059 253.115 28.1363 253.115 28.1363C253.115 28.1363 254.257 29.4678 255.666 29.4683C257.075 29.469 258.217 28.1386 258.217 28.1386C258.217 28.1386 257.076 26.8071 255.667 26.8066Z" fill="#C8CACE"/>
<path d="M257.434 24.1926C256.057 24.4887 255.22 26.0298 255.22 26.0298C255.22 26.0298 256.616 27.091 257.994 26.7949C259.371 26.4988 260.208 24.9577 260.208 24.9577C260.208 24.9577 258.812 23.8965 257.434 24.1926Z" fill="#C8CACE"/>
<path d="M258.655 21.3059C257.387 21.921 256.941 23.6173 256.941 23.6173C256.941 23.6173 258.55 24.3158 259.817 23.7006C261.085 23.0855 261.531 21.3892 261.531 21.3892C261.531 21.3892 259.922 20.6908 258.655 21.3059Z" fill="#C8CACE"/>
<path d="M259.155 17.9782C258.155 18.9708 258.282 20.7201 258.282 20.7201C258.282 20.7201 260.031 20.8599 261.03 19.8671C262.03 18.8744 261.903 17.1252 261.903 17.1252C261.903 17.1252 260.155 16.9855 259.155 17.9782Z" fill="#C8CACE"/>
<path d="M259.102 14.6964C258.304 15.8576 258.755 17.5526 258.755 17.5526C258.755 17.5526 260.498 17.3648 261.296 16.2036C262.094 15.0423 261.643 13.3474 261.643 13.3474C261.643 13.3474 259.9 13.5351 259.102 14.6964Z" fill="#C8CACE"/>
<path d="M258.345 11.4712C257.899 12.8074 258.799 14.3124 258.799 14.3124C258.799 14.3124 260.423 13.6513 260.87 12.3151C261.317 10.9789 260.417 9.47393 260.417 9.47393C260.417 9.47393 258.792 10.1349 258.345 11.4712Z" fill="#C8CACE"/>
<path d="M257.014 8.41464C256.853 9.81439 258.046 11.1007 258.046 11.1007C258.046 11.1007 259.498 10.1177 259.658 8.71803C259.819 7.31827 258.627 6.032 258.627 6.032C258.627 6.032 257.174 7.01489 257.014 8.41464Z" fill="#C8CACE"/>
<path d="M255.177 5.43677C255.218 6.84504 256.581 7.94864 256.581 7.94864C256.581 7.94864 257.878 6.76887 257.838 5.36048C257.798 3.95221 256.435 2.8486 256.435 2.8486C256.435 2.8486 255.137 4.0285 255.177 5.43677Z" fill="#C8CACE"/>
<path d="M251.812 24.7932C251.714 26.1986 252.962 27.431 252.962 27.431C252.962 27.431 254.369 26.3844 254.467 24.9789C254.566 23.5735 253.318 22.3414 253.318 22.3414C253.318 22.3414 251.91 23.3877 251.812 24.7932Z" fill="#C8CACE"/>
<path d="M253.679 22.1751C253.995 23.5481 255.548 24.3626 255.548 24.3626C255.548 24.3626 256.589 22.9512 256.273 21.5781C255.957 20.2051 254.404 19.3906 254.404 19.3906C254.404 19.3906 253.363 20.8022 253.679 22.1751Z" fill="#C8CACE"/>
<path d="M254.931 19.0895C255.458 20.3958 257.12 20.9566 257.12 20.9566C257.12 20.9566 257.927 19.3992 257.399 18.0927C256.872 16.7864 255.21 16.2256 255.21 16.2256C255.21 16.2256 254.404 17.7832 254.931 19.0895Z" fill="#C8CACE"/>
<path d="M255.377 15.6669C256.106 16.8722 257.836 17.1605 257.836 17.1605C257.836 17.1605 258.384 15.4943 257.654 14.2888C256.925 13.0832 255.195 12.7952 255.195 12.7952C255.195 12.7952 254.647 14.4614 255.377 15.6669Z" fill="#C8CACE"/>
<path d="M254.893 12.2201C255.867 13.2373 257.619 13.1407 257.619 13.1407C257.619 13.1407 257.789 11.3951 256.814 10.3782C255.84 9.36094 254.088 9.45754 254.088 9.45754C254.088 9.45754 253.917 11.203 254.893 12.2201Z" fill="#C8CACE"/>
<path d="M253.445 8.44142C254.382 9.4192 256.066 9.32656 256.066 9.32656C256.066 9.32656 256.23 7.64859 255.293 6.67059C254.356 5.69281 252.672 5.78545 252.672 5.78545C252.672 5.78545 252.508 7.46363 253.445 8.44142Z" fill="#C8CACE"/>
<path d="M252.33 4.6086C253.084 5.73376 254.758 5.93367 254.758 5.93367C254.758 5.93367 255.21 4.30924 254.456 3.18407C253.702 2.05891 252.028 1.859 252.028 1.859C252.028 1.859 251.576 3.48355 252.33 4.6086Z" fill="#C8CACE"/>
<path d="M255.995 8.04064C258.027 11.6108 258.664 15.8444 257.666 19.8413C256.634 23.9762 253.951 27.5097 250.279 29.6595C250.178 29.7185 250.088 29.9754 250.265 29.8714C255.969 26.5325 259.214 19.9747 258.201 13.4082C257.899 11.4493 257.221 9.57572 256.241 7.85525C256.177 7.74361 255.944 7.95128 255.995 8.04064Z" fill="#C8CACE"/>
<path d="M68.3 49.12V58H67.148V51.112L65.48 51.124V50.452L65.78 50.356C66.204 50.22 66.544 50.072 66.8 49.912C67.064 49.752 67.308 49.532 67.532 49.252L67.64 49.12H68.3ZM74.6212 58V55.936L70.2772 55.924V54.856L74.3572 49.12H75.7972V54.916H77.3452V55.936H75.7972V58H74.6212ZM71.4892 54.916H74.6212V50.5L71.4892 54.916ZM79.0727 59.476L79.9367 58.084C79.7447 58.068 79.5807 57.988 79.4447 57.844C79.3167 57.7 79.2527 57.524 79.2527 57.316C79.2527 57.084 79.3327 56.9 79.4927 56.764C79.6527 56.628 79.8327 56.56 80.0327 56.56C80.2567 56.56 80.4447 56.628 80.5967 56.764C80.7567 56.9 80.8367 57.092 80.8367 57.34C80.8367 57.564 80.7487 57.82 80.5727 58.108C80.4047 58.396 80.1327 58.812 79.7567 59.356L79.6727 59.476H79.0727ZM85.6695 58.12C85.1655 58.12 84.7335 58.056 84.3735 57.928C84.0215 57.792 83.7295 57.62 83.4975 57.412C83.2735 57.204 83.0935 56.984 82.9575 56.752C82.8295 56.52 82.7335 56.3 82.6695 56.092C82.6135 55.884 82.5775 55.716 82.5615 55.588C82.5455 55.452 82.5375 55.384 82.5375 55.384H83.6415C83.6415 55.384 83.6495 55.444 83.6655 55.564C83.6815 55.676 83.7215 55.82 83.7855 55.996C83.8575 56.164 83.9655 56.336 84.1095 56.512C84.2535 56.68 84.4495 56.824 84.6975 56.944C84.9535 57.056 85.2775 57.112 85.6695 57.112C86.1335 57.112 86.5175 57.012 86.8215 56.812C87.1255 56.612 87.3535 56.356 87.5055 56.044C87.6575 55.732 87.7335 55.404 87.7335 55.06C87.7335 54.708 87.6575 54.372 87.5055 54.052C87.3535 53.724 87.1255 53.46 86.8215 53.26C86.5255 53.052 86.1575 52.948 85.7175 52.948C85.3735 52.948 85.0855 53.004 84.8535 53.116C84.6215 53.228 84.4375 53.356 84.3015 53.5C84.1735 53.644 84.0815 53.772 84.0255 53.884C83.9695 53.996 83.9415 54.052 83.9415 54.052H82.7895L83.4855 49.12H88.2615V50.164H84.3615L84.0015 52.708H84.0375C84.1335 52.604 84.2535 52.496 84.3975 52.384C84.5495 52.264 84.7455 52.164 84.9855 52.084C85.2255 51.996 85.5255 51.952 85.8855 51.952C86.5415 51.952 87.0895 52.104 87.5295 52.408C87.9695 52.704 88.3015 53.088 88.5255 53.56C88.7575 54.024 88.8735 54.516 88.8735 55.036C88.8735 55.42 88.8055 55.796 88.6695 56.164C88.5415 56.532 88.3455 56.864 88.0815 57.16C87.8175 57.448 87.4855 57.68 87.0855 57.856C86.6855 58.032 86.2135 58.12 85.6695 58.12ZM93.9154 58.12C93.3474 58.12 92.8514 58.012 92.4274 57.796C92.0114 57.58 91.6674 57.284 91.3954 56.908C91.1234 56.524 90.9194 56.088 90.7834 55.6C90.6554 55.112 90.5914 54.6 90.5914 54.064C90.5914 53.624 90.6394 53.168 90.7354 52.696C90.8314 52.224 90.9794 51.768 91.1794 51.328C91.3874 50.888 91.6594 50.496 91.9954 50.152C92.3394 49.8 92.7514 49.52 93.2314 49.312C93.7194 49.104 94.2874 49 94.9354 49C95.1914 49 95.4234 49.016 95.6314 49.048C95.8474 49.072 96.0194 49.1 96.1474 49.132C96.2754 49.164 96.3394 49.18 96.3394 49.18V50.26C96.3394 50.26 96.2674 50.244 96.1234 50.212C95.9794 50.18 95.7954 50.152 95.5714 50.128C95.3554 50.096 95.1354 50.08 94.9114 50.08C94.4234 50.08 94.0034 50.156 93.6514 50.308C93.3074 50.452 93.0154 50.648 92.7754 50.896C92.5434 51.136 92.3554 51.4 92.2114 51.688C92.0754 51.968 91.9754 52.248 91.9114 52.528C91.8474 52.8 91.8114 53.036 91.8034 53.236C91.8594 53.14 91.9714 53.008 92.1394 52.84C92.3074 52.672 92.5434 52.52 92.8474 52.384C93.1514 52.248 93.5394 52.18 94.0114 52.18C94.6674 52.18 95.2114 52.324 95.6434 52.612C96.0754 52.892 96.3994 53.256 96.6154 53.704C96.8394 54.152 96.9514 54.624 96.9514 55.12C96.9514 55.616 96.8394 56.096 96.6154 56.56C96.3914 57.016 96.0554 57.392 95.6074 57.688C95.1594 57.976 94.5954 58.12 93.9154 58.12ZM93.8914 57.112C94.2114 57.112 94.5154 57.04 94.8034 56.896C95.0994 56.752 95.3394 56.536 95.5234 56.248C95.7154 55.952 95.8114 55.588 95.8114 55.156C95.8114 54.716 95.7154 54.352 95.5234 54.064C95.3394 53.768 95.0994 53.548 94.8034 53.404C94.5154 53.26 94.2114 53.188 93.8914 53.188C93.5714 53.188 93.2634 53.26 92.9674 53.404C92.6794 53.548 92.4394 53.768 92.2474 54.064C92.0634 54.352 91.9714 54.716 91.9714 55.156C91.9714 55.588 92.0634 55.952 92.2474 56.248C92.4394 56.536 92.6794 56.752 92.9674 56.896C93.2634 57.04 93.5714 57.112 93.8914 57.112ZM99.6564 58C99.6804 57.232 99.7804 56.504 99.9564 55.816C100.132 55.12 100.352 54.472 100.616 53.872C100.88 53.272 101.156 52.732 101.444 52.252C101.732 51.764 102.004 51.344 102.26 50.992C102.524 50.64 102.74 50.364 102.908 50.164H98.1444V49.12H104.252V49.996C104.252 49.996 104.172 50.088 104.012 50.272C103.852 50.448 103.644 50.704 103.388 51.04C103.14 51.376 102.872 51.784 102.584 52.264C102.304 52.736 102.032 53.272 101.768 53.872C101.512 54.464 101.296 55.108 101.12 55.804C100.944 56.492 100.84 57.224 100.808 58H99.6564ZM107.777 56.476V54.724H106.025V53.764H107.777V52.012H108.737V53.764H110.489V54.724H108.737V56.476H107.777Z" fill="#1E2029"/>
<path d="M41.54 74L44.672 65.12H46.148L49.292 74H48.044L47.3 71.876H43.532L42.788 74H41.54ZM43.892 70.82H46.94L45.416 66.464L43.892 70.82ZM53.5016 76.52C52.9736 76.52 52.5336 76.448 52.1816 76.304C51.8296 76.168 51.5456 75.992 51.3296 75.776C51.1216 75.568 50.9656 75.36 50.8616 75.152C50.7576 74.944 50.6896 74.768 50.6576 74.624C50.6256 74.488 50.6096 74.42 50.6096 74.42H51.7496C51.7496 74.42 51.7696 74.476 51.8096 74.588C51.8496 74.7 51.9256 74.828 52.0376 74.972C52.1576 75.116 52.3336 75.244 52.5656 75.356C52.7976 75.468 53.1096 75.524 53.5016 75.524C53.9656 75.524 54.3296 75.432 54.5936 75.248C54.8576 75.072 55.0456 74.84 55.1576 74.552C55.2776 74.264 55.3376 73.96 55.3376 73.64V72.908H55.2776C55.1976 73.044 55.0696 73.2 54.8936 73.376C54.7256 73.544 54.5016 73.692 54.2216 73.82C53.9416 73.94 53.5976 74 53.1896 74C52.7096 74 52.2896 73.908 51.9296 73.724C51.5696 73.54 51.2696 73.292 51.0296 72.98C50.7976 72.668 50.6216 72.32 50.5016 71.936C50.3816 71.552 50.3216 71.16 50.3216 70.76C50.3216 70.36 50.3816 69.968 50.5016 69.584C50.6216 69.2 50.7976 68.852 51.0296 68.54C51.2696 68.228 51.5696 67.98 51.9296 67.796C52.2896 67.612 52.7096 67.52 53.1896 67.52C53.5976 67.52 53.9416 67.584 54.2216 67.712C54.5016 67.832 54.7256 67.976 54.8936 68.144C55.0696 68.312 55.1976 68.468 55.2776 68.612H55.3376V67.64H56.4776V73.628C56.4776 74.516 56.2176 75.22 55.6976 75.74C55.1856 76.26 54.4536 76.52 53.5016 76.52ZM53.4056 73.028C53.8296 73.028 54.1816 72.92 54.4616 72.704C54.7496 72.48 54.9616 72.196 55.0976 71.852C55.2416 71.508 55.3136 71.144 55.3136 70.76C55.3136 70.376 55.2416 70.012 55.0976 69.668C54.9616 69.316 54.7496 69.032 54.4616 68.816C54.1816 68.6 53.8296 68.492 53.4056 68.492C52.9816 68.492 52.6256 68.6 52.3376 68.816C52.0496 69.032 51.8336 69.316 51.6896 69.668C51.5536 70.012 51.4856 70.376 51.4856 70.76C51.4856 71.144 51.5536 71.508 51.6896 71.852C51.8336 72.196 52.0496 72.48 52.3376 72.704C52.6256 72.92 52.9816 73.028 53.4056 73.028ZM60.8101 74.12C60.2901 74.12 59.8381 74.028 59.4541 73.844C59.0781 73.652 58.7661 73.396 58.5181 73.076C58.2781 72.756 58.0981 72.404 57.9781 72.02C57.8581 71.628 57.7981 71.228 57.7981 70.82C57.7981 70.42 57.8541 70.024 57.9661 69.632C58.0861 69.24 58.2661 68.884 58.5061 68.564C58.7541 68.244 59.0621 67.992 59.4301 67.808C59.8061 67.616 60.2501 67.52 60.7621 67.52C61.3061 67.52 61.7861 67.644 62.2021 67.892C62.6181 68.14 62.9461 68.508 63.1861 68.996C63.4261 69.484 63.5461 70.096 63.5461 70.832V71.168H58.9501C58.9741 71.528 59.0581 71.86 59.2021 72.164C59.3541 72.46 59.5661 72.7 59.8381 72.884C60.1101 73.06 60.4341 73.148 60.8101 73.148C61.1381 73.148 61.4021 73.096 61.6021 72.992C61.8101 72.88 61.9741 72.752 62.0941 72.608C62.2141 72.464 62.2941 72.34 62.3341 72.236C62.3821 72.124 62.4061 72.068 62.4061 72.068H63.4741C63.4741 72.068 63.4541 72.14 63.4141 72.284C63.3741 72.42 63.3021 72.588 63.1981 72.788C63.0941 72.988 62.9421 73.192 62.7421 73.4C62.5421 73.6 62.2861 73.772 61.9741 73.916C61.6621 74.052 61.2741 74.12 60.8101 74.12ZM58.9621 70.28H62.4301C62.4141 69.864 62.3261 69.528 62.1661 69.272C62.0061 69.008 61.8021 68.812 61.5541 68.684C61.3061 68.556 61.0421 68.492 60.7621 68.492C60.2581 68.492 59.8461 68.656 59.5261 68.984C59.2061 69.304 59.0181 69.736 58.9621 70.28ZM67.4297 74.12C66.9417 74.12 66.5377 74.052 66.2177 73.916C65.9057 73.78 65.6577 73.612 65.4737 73.412C65.2897 73.204 65.1537 73 65.0657 72.8C64.9777 72.592 64.9217 72.42 64.8977 72.284C64.8737 72.148 64.8617 72.08 64.8617 72.08H66.0137C66.0137 72.08 66.0257 72.136 66.0497 72.248C66.0817 72.352 66.1417 72.476 66.2297 72.62C66.3257 72.756 66.4697 72.88 66.6617 72.992C66.8617 73.096 67.1257 73.148 67.4537 73.148C67.8297 73.148 68.1217 73.06 68.3297 72.884C68.5377 72.7 68.6417 72.476 68.6417 72.212C68.6417 71.98 68.5577 71.796 68.3897 71.66C68.2297 71.524 67.9977 71.42 67.6937 71.348L66.8297 71.144C66.5097 71.064 66.2097 70.956 65.9297 70.82C65.6497 70.684 65.4217 70.5 65.2457 70.268C65.0777 70.028 64.9937 69.732 64.9937 69.38C64.9937 68.836 65.1977 68.392 65.6057 68.048C66.0137 67.696 66.5457 67.52 67.2017 67.52C67.6417 67.52 68.0057 67.584 68.2937 67.712C68.5817 67.832 68.8097 67.984 68.9777 68.168C69.1537 68.352 69.2817 68.536 69.3617 68.72C69.4497 68.904 69.5057 69.06 69.5297 69.188C69.5537 69.308 69.5657 69.368 69.5657 69.368H68.4617C68.4617 69.368 68.4497 69.324 68.4257 69.236C68.4017 69.14 68.3457 69.036 68.2577 68.924C68.1777 68.804 68.0537 68.7 67.8857 68.612C67.7177 68.516 67.4937 68.468 67.2137 68.468C66.8297 68.468 66.5497 68.556 66.3737 68.732C66.1977 68.908 66.1097 69.1 66.1097 69.308C66.1097 69.508 66.1897 69.672 66.3497 69.8C66.5177 69.92 66.7337 70.012 66.9977 70.076L67.8737 70.28C68.4177 70.408 68.8657 70.62 69.2177 70.916C69.5777 71.204 69.7577 71.62 69.7577 72.164C69.7577 72.516 69.6657 72.844 69.4817 73.148C69.2977 73.444 69.0337 73.68 68.6897 73.856C68.3457 74.032 67.9257 74.12 67.4297 74.12ZM76.9731 74.12C76.4531 74.12 75.9971 74.028 75.6051 73.844C75.2131 73.652 74.8851 73.4 74.6211 73.088C74.3651 72.768 74.1691 72.412 74.0331 72.02C73.9051 71.628 73.8411 71.228 73.8411 70.82C73.8411 70.412 73.9051 70.016 74.0331 69.632C74.1611 69.24 74.3531 68.884 74.6091 68.564C74.8731 68.244 75.2011 67.992 75.5931 67.808C75.9851 67.616 76.4451 67.52 76.9731 67.52C77.4851 67.52 77.9091 67.596 78.2451 67.748C78.5811 67.9 78.8491 68.092 79.0491 68.324C79.2571 68.548 79.4091 68.776 79.5051 69.008C79.6091 69.232 79.6771 69.42 79.7091 69.572C79.7411 69.724 79.7571 69.8 79.7571 69.8H78.6531C78.6531 69.8 78.6331 69.736 78.5931 69.608C78.5531 69.472 78.4771 69.32 78.3651 69.152C78.2531 68.984 78.0851 68.836 77.8611 68.708C77.6371 68.572 77.3411 68.504 76.9731 68.504C76.5331 68.504 76.1611 68.616 75.8571 68.84C75.5611 69.056 75.3371 69.34 75.1851 69.692C75.0411 70.044 74.9691 70.42 74.9691 70.82C74.9691 71.22 75.0411 71.596 75.1851 71.948C75.3371 72.3 75.5611 72.588 75.8571 72.812C76.1611 73.028 76.5331 73.136 76.9731 73.136C77.3411 73.136 77.6371 73.072 77.8611 72.944C78.0851 72.808 78.2531 72.656 78.3651 72.488C78.4771 72.32 78.5531 72.172 78.5931 72.044C78.6331 71.908 78.6531 71.84 78.6531 71.84H79.7571C79.7571 71.84 79.7411 71.916 79.7091 72.068C79.6771 72.22 79.6091 72.412 79.5051 72.644C79.4091 72.868 79.2571 73.096 79.0491 73.328C78.8491 73.552 78.5811 73.74 78.2451 73.892C77.9091 74.044 77.4851 74.12 76.9731 74.12ZM84.0805 67.52C84.4805 67.52 84.8165 67.584 85.0885 67.712C85.3605 67.84 85.5805 67.992 85.7485 68.168C85.9165 68.336 86.0445 68.496 86.1325 68.648H86.2045V67.64H87.3445V74H86.2045V72.992H86.1325C86.0445 73.144 85.9165 73.308 85.7485 73.484C85.5805 73.66 85.3605 73.812 85.0885 73.94C84.8165 74.06 84.4805 74.12 84.0805 74.12C83.6005 74.12 83.1805 74.028 82.8205 73.844C82.4605 73.652 82.1605 73.4 81.9205 73.088C81.6805 72.768 81.5005 72.412 81.3805 72.02C81.2605 71.628 81.2005 71.228 81.2005 70.82C81.2005 70.412 81.2605 70.012 81.3805 69.62C81.5005 69.228 81.6805 68.876 81.9205 68.564C82.1605 68.244 82.4605 67.992 82.8205 67.808C83.1805 67.616 83.6005 67.52 84.0805 67.52ZM84.2725 68.492C83.8485 68.492 83.4925 68.608 83.2045 68.84C82.9165 69.064 82.7005 69.352 82.5565 69.704C82.4205 70.056 82.3525 70.428 82.3525 70.82C82.3525 71.204 82.4205 71.576 82.5565 71.936C82.7005 72.288 82.9165 72.58 83.2045 72.812C83.4925 73.036 83.8485 73.148 84.2725 73.148C84.6965 73.148 85.0485 73.036 85.3285 72.812C85.6165 72.58 85.8285 72.288 85.9645 71.936C86.1085 71.576 86.1805 71.204 86.1805 70.82C86.1805 70.428 86.1085 70.056 85.9645 69.704C85.8285 69.352 85.6165 69.064 85.3285 68.84C85.0485 68.608 84.6965 68.492 84.2725 68.492ZM89.1397 74L89.1517 64.88H90.2797V74H89.1397ZM95.0903 74.12C94.5703 74.12 94.1143 74.028 93.7223 73.844C93.3303 73.652 93.0023 73.4 92.7383 73.088C92.4823 72.768 92.2863 72.412 92.1503 72.02C92.0223 71.628 91.9583 71.228 91.9583 70.82C91.9583 70.412 92.0223 70.016 92.1503 69.632C92.2783 69.24 92.4703 68.884 92.7263 68.564C92.9903 68.244 93.3183 67.992 93.7103 67.808C94.1023 67.616 94.5623 67.52 95.0903 67.52C95.6023 67.52 96.0263 67.596 96.3623 67.748C96.6983 67.9 96.9663 68.092 97.1663 68.324C97.3743 68.548 97.5263 68.776 97.6223 69.008C97.7263 69.232 97.7943 69.42 97.8263 69.572C97.8583 69.724 97.8743 69.8 97.8743 69.8H96.7703C96.7703 69.8 96.7503 69.736 96.7103 69.608C96.6703 69.472 96.5943 69.32 96.4823 69.152C96.3703 68.984 96.2023 68.836 95.9783 68.708C95.7543 68.572 95.4583 68.504 95.0903 68.504C94.6503 68.504 94.2783 68.616 93.9743 68.84C93.6783 69.056 93.4543 69.34 93.3023 69.692C93.1583 70.044 93.0863 70.42 93.0863 70.82C93.0863 71.22 93.1583 71.596 93.3023 71.948C93.4543 72.3 93.6783 72.588 93.9743 72.812C94.2783 73.028 94.6503 73.136 95.0903 73.136C95.4583 73.136 95.7543 73.072 95.9783 72.944C96.2023 72.808 96.3703 72.656 96.4823 72.488C96.5943 72.32 96.6703 72.172 96.7103 72.044C96.7503 71.908 96.7703 71.84 96.7703 71.84H97.8743C97.8743 71.84 97.8583 71.916 97.8263 72.068C97.7943 72.22 97.7263 72.412 97.6223 72.644C97.5263 72.868 97.3743 73.096 97.1663 73.328C96.9663 73.552 96.6983 73.74 96.3623 73.892C96.0263 74.044 95.6023 74.12 95.0903 74.12ZM101.514 74.12C100.882 74.12 100.378 73.924 100.002 73.532C99.6257 73.14 99.4377 72.596 99.4377 71.9V67.64H100.578V71.84C100.578 72.256 100.69 72.576 100.914 72.8C101.146 73.024 101.45 73.136 101.826 73.136C102.21 73.136 102.518 73.036 102.75 72.836C102.982 72.636 103.15 72.38 103.254 72.068C103.358 71.756 103.41 71.436 103.41 71.108V67.64H104.55V74H103.41V73.088H103.338C103.29 73.184 103.198 73.316 103.062 73.484C102.926 73.644 102.734 73.792 102.486 73.928C102.238 74.056 101.914 74.12 101.514 74.12ZM106.355 74L106.367 64.88H107.495V74H106.355ZM112.053 67.52C112.453 67.52 112.789 67.584 113.061 67.712C113.333 67.84 113.553 67.992 113.721 68.168C113.889 68.336 114.017 68.496 114.105 68.648H114.177V67.64H115.317V74H114.177V72.992H114.105C114.017 73.144 113.889 73.308 113.721 73.484C113.553 73.66 113.333 73.812 113.061 73.94C112.789 74.06 112.453 74.12 112.053 74.12C111.573 74.12 111.153 74.028 110.793 73.844C110.433 73.652 110.133 73.4 109.893 73.088C109.653 72.768 109.473 72.412 109.353 72.02C109.233 71.628 109.173 71.228 109.173 70.82C109.173 70.412 109.233 70.012 109.353 69.62C109.473 69.228 109.653 68.876 109.893 68.564C110.133 68.244 110.433 67.992 110.793 67.808C111.153 67.616 111.573 67.52 112.053 67.52ZM112.245 68.492C111.821 68.492 111.465 68.608 111.177 68.84C110.889 69.064 110.673 69.352 110.529 69.704C110.393 70.056 110.325 70.428 110.325 70.82C110.325 71.204 110.393 71.576 110.529 71.936C110.673 72.288 110.889 72.58 111.177 72.812C111.465 73.036 111.821 73.148 112.245 73.148C112.669 73.148 113.021 73.036 113.301 72.812C113.589 72.58 113.801 72.288 113.937 71.936C114.081 71.576 114.153 71.204 114.153 70.82C114.153 70.428 114.081 70.056 113.937 69.704C113.801 69.352 113.589 69.064 113.301 68.84C113.021 68.608 112.669 68.492 112.245 68.492ZM119.458 74.12C118.802 74.12 118.306 73.952 117.97 73.616C117.642 73.28 117.478 72.808 117.478 72.2V68.576H116.338V67.64H117.478V66.044H118.618V67.64H120.166V68.576H118.618V72.2C118.618 72.52 118.706 72.756 118.882 72.908C119.058 73.052 119.314 73.124 119.65 73.124C119.826 73.124 119.994 73.112 120.154 73.088C120.314 73.064 120.394 73.052 120.394 73.052V74.024C120.394 74.024 120.302 74.04 120.118 74.072C119.934 74.104 119.714 74.12 119.458 74.12ZM124.548 74.12C124.028 74.12 123.576 74.028 123.192 73.844C122.816 73.652 122.504 73.396 122.256 73.076C122.016 72.756 121.836 72.404 121.716 72.02C121.596 71.628 121.536 71.228 121.536 70.82C121.536 70.42 121.592 70.024 121.704 69.632C121.824 69.24 122.004 68.884 122.244 68.564C122.492 68.244 122.8 67.992 123.168 67.808C123.544 67.616 123.988 67.52 124.5 67.52C125.044 67.52 125.524 67.644 125.94 67.892C126.356 68.14 126.684 68.508 126.924 68.996C127.164 69.484 127.284 70.096 127.284 70.832V71.168H122.688C122.712 71.528 122.796 71.86 122.94 72.164C123.092 72.46 123.304 72.7 123.576 72.884C123.848 73.06 124.172 73.148 124.548 73.148C124.876 73.148 125.14 73.096 125.34 72.992C125.548 72.88 125.712 72.752 125.832 72.608C125.952 72.464 126.032 72.34 126.072 72.236C126.12 72.124 126.144 72.068 126.144 72.068H127.212C127.212 72.068 127.192 72.14 127.152 72.284C127.112 72.42 127.04 72.588 126.936 72.788C126.832 72.988 126.68 73.192 126.48 73.4C126.28 73.6 126.024 73.772 125.712 73.916C125.4 74.052 125.012 74.12 124.548 74.12ZM122.7 70.28H126.168C126.152 69.864 126.064 69.528 125.904 69.272C125.744 69.008 125.54 68.812 125.292 68.684C125.044 68.556 124.78 68.492 124.5 68.492C123.996 68.492 123.584 68.656 123.264 68.984C122.944 69.304 122.756 69.736 122.7 70.28ZM131.541 74.12C131.061 74.12 130.641 74.028 130.281 73.844C129.921 73.652 129.621 73.4 129.381 73.088C129.141 72.768 128.961 72.412 128.841 72.02C128.721 71.628 128.661 71.228 128.661 70.82C128.661 70.412 128.721 70.012 128.841 69.62C128.961 69.228 129.141 68.876 129.381 68.564C129.621 68.244 129.921 67.992 130.281 67.808C130.641 67.616 131.061 67.52 131.541 67.52C131.941 67.52 132.277 67.584 132.549 67.712C132.821 67.84 133.041 67.992 133.209 68.168C133.377 68.336 133.505 68.496 133.593 68.648H133.665V64.88H134.805V74H133.665V72.992H133.593C133.505 73.144 133.377 73.308 133.209 73.484C133.041 73.66 132.821 73.812 132.549 73.94C132.277 74.06 131.941 74.12 131.541 74.12ZM131.733 73.148C132.157 73.148 132.509 73.036 132.789 72.812C133.077 72.58 133.289 72.288 133.425 71.936C133.569 71.576 133.641 71.204 133.641 70.82C133.641 70.428 133.569 70.056 133.425 69.704C133.289 69.352 133.077 69.064 132.789 68.84C132.509 68.608 132.157 68.492 131.733 68.492C131.309 68.492 130.953 68.608 130.665 68.84C130.377 69.064 130.161 69.352 130.017 69.704C129.881 70.056 129.813 70.428 129.813 70.82C129.813 71.204 129.881 71.576 130.017 71.936C130.161 72.288 130.377 72.58 130.665 72.812C130.953 73.036 131.309 73.148 131.733 73.148Z" fill="#8E8F94"/>
<rect x="160" y="50" width="1" height="24" fill="#E5E2DC"/>
<path d="M207.004 58V55.936L202.66 55.924V54.856L206.74 49.12H208.18V54.916H209.728V55.936H208.18V58H207.004ZM203.872 54.916H207.004V50.5L203.872 54.916ZM212.236 58.12C212.012 58.12 211.824 58.044 211.672 57.892C211.528 57.732 211.456 57.548 211.456 57.34C211.456 57.124 211.528 56.94 211.672 56.788C211.824 56.636 212.012 56.56 212.236 56.56C212.46 56.56 212.644 56.636 212.788 56.788C212.94 56.94 213.016 57.124 213.016 57.34C213.016 57.556 212.94 57.74 212.788 57.892C212.644 58.044 212.46 58.12 212.236 58.12ZM217.757 58.12C217.133 58.12 216.589 58.008 216.125 57.784C215.669 57.552 215.313 57.244 215.057 56.86C214.801 56.468 214.673 56.028 214.673 55.54C214.673 55.108 214.749 54.752 214.901 54.472C215.053 54.184 215.229 53.956 215.429 53.788C215.637 53.612 215.817 53.488 215.969 53.416C216.121 53.344 216.197 53.308 216.197 53.308V53.248C216.197 53.248 216.133 53.22 216.005 53.164C215.877 53.1 215.725 52.996 215.549 52.852C215.381 52.708 215.233 52.516 215.105 52.276C214.977 52.036 214.913 51.74 214.913 51.388C214.913 50.932 215.029 50.524 215.261 50.164C215.493 49.804 215.821 49.52 216.245 49.312C216.677 49.104 217.181 49 217.757 49C218.333 49 218.833 49.104 219.257 49.312C219.689 49.52 220.021 49.804 220.253 50.164C220.485 50.524 220.601 50.932 220.601 51.388C220.601 51.74 220.537 52.036 220.409 52.276C220.281 52.516 220.129 52.708 219.953 52.852C219.785 52.996 219.637 53.1 219.509 53.164C219.381 53.22 219.317 53.248 219.317 53.248V53.308C219.317 53.308 219.393 53.344 219.545 53.416C219.697 53.488 219.873 53.612 220.073 53.788C220.281 53.956 220.461 54.184 220.613 54.472C220.765 54.752 220.841 55.108 220.841 55.54C220.841 56.028 220.713 56.468 220.457 56.86C220.201 57.244 219.841 57.552 219.377 57.784C218.921 58.008 218.381 58.12 217.757 58.12ZM217.757 52.852C218.141 52.852 218.461 52.78 218.717 52.636C218.973 52.492 219.165 52.308 219.293 52.084C219.421 51.86 219.485 51.632 219.485 51.4C219.485 51.152 219.421 50.916 219.293 50.692C219.165 50.468 218.973 50.288 218.717 50.152C218.461 50.008 218.141 49.936 217.757 49.936C217.381 49.936 217.061 50.008 216.797 50.152C216.541 50.288 216.349 50.468 216.221 50.692C216.093 50.916 216.029 51.152 216.029 51.4C216.029 51.632 216.093 51.86 216.221 52.084C216.349 52.308 216.541 52.492 216.797 52.636C217.061 52.78 217.381 52.852 217.757 52.852ZM217.757 57.172C218.189 57.172 218.549 57.088 218.837 56.92C219.133 56.752 219.353 56.536 219.497 56.272C219.649 56 219.725 55.72 219.725 55.432C219.725 55.152 219.653 54.888 219.509 54.64C219.365 54.384 219.145 54.176 218.849 54.016C218.561 53.848 218.197 53.764 217.757 53.764C217.317 53.764 216.949 53.848 216.653 54.016C216.365 54.176 216.149 54.384 216.005 54.64C215.861 54.888 215.789 55.152 215.789 55.432C215.789 55.72 215.861 56 216.005 56.272C216.157 56.536 216.377 56.752 216.665 56.92C216.961 57.088 217.325 57.172 217.757 57.172Z" fill="#1E2029"/>
<path d="M231.62 49.1708C231.739 48.8023 232.261 48.8023 232.38 49.1708L233.257 51.8695C233.311 52.0343 233.464 52.1459 233.638 52.1459H236.475C236.863 52.1459 237.024 52.6417 236.71 52.8695L234.415 54.5374C234.275 54.6392 234.216 54.8198 234.269 54.9846L235.146 57.6833C235.266 58.0518 234.844 58.3583 234.531 58.1305L232.235 56.4626C232.095 56.3608 231.905 56.3608 231.765 56.4626L229.469 58.1305C229.156 58.3583 228.734 58.0518 228.854 57.6833L229.731 54.9846C229.784 54.8198 229.725 54.6392 229.585 54.5374L227.29 52.8695C226.976 52.6417 227.137 52.1459 227.525 52.1459H230.362C230.536 52.1459 230.689 52.0343 230.743 51.8695L231.62 49.1708Z" fill="url(#paint1_linear_220_2130)"/>
<path d="M188.3 65.12V74H187.148V67.112L185.48 67.124V66.452L185.78 66.356C186.204 66.22 186.544 66.072 186.8 65.912C187.064 65.752 187.308 65.532 187.532 65.252L187.64 65.12H188.3ZM190.589 74V73.172L192.533 71.372C193.077 70.868 193.553 70.428 193.961 70.052C194.377 69.668 194.701 69.296 194.933 68.936C195.165 68.576 195.281 68.18 195.281 67.748C195.281 67.388 195.193 67.084 195.017 66.836C194.849 66.588 194.629 66.4 194.357 66.272C194.093 66.136 193.817 66.068 193.529 66.068C193.153 66.068 192.845 66.132 192.605 66.26C192.365 66.388 192.181 66.548 192.053 66.74C191.925 66.924 191.833 67.112 191.777 67.304C191.721 67.488 191.689 67.644 191.681 67.772C191.673 67.9 191.669 67.964 191.669 67.964H190.541C190.541 67.964 190.545 67.892 190.553 67.748C190.561 67.604 190.589 67.42 190.637 67.196C190.693 66.972 190.781 66.736 190.901 66.488C191.021 66.232 191.189 65.992 191.405 65.768C191.629 65.544 191.913 65.36 192.257 65.216C192.609 65.072 193.037 65 193.541 65C194.053 65 194.529 65.108 194.969 65.324C195.417 65.532 195.777 65.84 196.049 66.248C196.321 66.648 196.457 67.14 196.457 67.724C196.457 68.26 196.321 68.748 196.049 69.188C195.785 69.62 195.433 70.044 194.993 70.46C194.553 70.876 194.073 71.324 193.553 71.804L192.329 72.932H196.649V74H190.589ZM198.394 74V64.88H199.534V70.184L202.066 67.64H203.554L200.626 70.532L203.614 74H202.162L199.534 70.94V74H198.394ZM207.258 72.476V70.724H205.506V69.764H207.258V68.012H208.218V69.764H209.97V70.724H208.218V72.476H207.258ZM214.996 74V67.64H216.136V68.432H216.184C216.32 68.192 216.52 67.98 216.784 67.796C217.048 67.612 217.42 67.52 217.9 67.52C218.036 67.52 218.16 67.528 218.272 67.544C218.384 67.552 218.44 67.556 218.44 67.556V68.648C218.44 68.648 218.376 68.644 218.248 68.636C218.128 68.62 218 68.612 217.864 68.612C217.312 68.612 216.884 68.772 216.58 69.092C216.284 69.404 216.136 69.916 216.136 70.628V74H214.996ZM221.975 67.52C222.375 67.52 222.711 67.584 222.983 67.712C223.255 67.84 223.475 67.992 223.643 68.168C223.811 68.336 223.939 68.496 224.027 68.648H224.099V67.64H225.239V74H224.099V72.992H224.027C223.939 73.144 223.811 73.308 223.643 73.484C223.475 73.66 223.255 73.812 222.983 73.94C222.711 74.06 222.375 74.12 221.975 74.12C221.495 74.12 221.075 74.028 220.715 73.844C220.355 73.652 220.055 73.4 219.815 73.088C219.575 72.768 219.395 72.412 219.275 72.02C219.155 71.628 219.095 71.228 219.095 70.82C219.095 70.412 219.155 70.012 219.275 69.62C219.395 69.228 219.575 68.876 219.815 68.564C220.055 68.244 220.355 67.992 220.715 67.808C221.075 67.616 221.495 67.52 221.975 67.52ZM222.167 68.492C221.743 68.492 221.387 68.608 221.099 68.84C220.811 69.064 220.595 69.352 220.451 69.704C220.315 70.056 220.247 70.428 220.247 70.82C220.247 71.204 220.315 71.576 220.451 71.936C220.595 72.288 220.811 72.58 221.099 72.812C221.387 73.036 221.743 73.148 222.167 73.148C222.591 73.148 222.943 73.036 223.223 72.812C223.511 72.58 223.723 72.288 223.859 71.936C224.003 71.576 224.075 71.204 224.075 70.82C224.075 70.428 224.003 70.056 223.859 69.704C223.723 69.352 223.511 69.064 223.223 68.84C222.943 68.608 222.591 68.492 222.167 68.492ZM229.38 74.12C228.724 74.12 228.228 73.952 227.892 73.616C227.564 73.28 227.4 72.808 227.4 72.2V68.576H226.26V67.64H227.4V66.044H228.54V67.64H230.088V68.576H228.54V72.2C228.54 72.52 228.628 72.756 228.804 72.908C228.98 73.052 229.236 73.124 229.572 73.124C229.748 73.124 229.916 73.112 230.076 73.088C230.236 73.064 230.316 73.052 230.316 73.052V74.024C230.316 74.024 230.224 74.04 230.04 74.072C229.856 74.104 229.636 74.12 229.38 74.12ZM232.557 66.428C232.341 66.428 232.161 66.356 232.017 66.212C231.881 66.068 231.813 65.896 231.813 65.696C231.813 65.488 231.881 65.312 232.017 65.168C232.161 65.024 232.341 64.952 232.557 64.952C232.765 64.952 232.941 65.024 233.085 65.168C233.229 65.312 233.301 65.488 233.301 65.696C233.301 65.896 233.229 66.068 233.085 66.212C232.941 66.356 232.765 66.428 232.557 66.428ZM231.993 74V67.64H233.133V74H231.993ZM234.977 74V67.64H236.117V68.564H236.189C236.245 68.468 236.337 68.336 236.465 68.168C236.601 68 236.793 67.852 237.041 67.724C237.289 67.588 237.601 67.52 237.977 67.52C238.441 67.52 238.837 67.628 239.165 67.844C239.493 68.052 239.741 68.336 239.909 68.696C240.085 69.056 240.173 69.46 240.173 69.908V74H239.033V69.98C239.033 69.556 238.913 69.204 238.673 68.924C238.441 68.644 238.101 68.504 237.653 68.504C237.293 68.504 237.001 68.596 236.777 68.78C236.553 68.956 236.385 69.192 236.273 69.488C236.169 69.776 236.117 70.084 236.117 70.412V74H234.977ZM244.916 76.52C244.388 76.52 243.948 76.448 243.596 76.304C243.244 76.168 242.96 75.992 242.744 75.776C242.536 75.568 242.38 75.36 242.276 75.152C242.172 74.944 242.104 74.768 242.072 74.624C242.04 74.488 242.024 74.42 242.024 74.42H243.164C243.164 74.42 243.184 74.476 243.224 74.588C243.264 74.7 243.34 74.828 243.452 74.972C243.572 75.116 243.748 75.244 243.98 75.356C244.212 75.468 244.524 75.524 244.916 75.524C245.38 75.524 245.744 75.432 246.008 75.248C246.272 75.072 246.46 74.84 246.572 74.552C246.692 74.264 246.752 73.96 246.752 73.64V72.908H246.692C246.612 73.044 246.484 73.2 246.308 73.376C246.14 73.544 245.916 73.692 245.636 73.82C245.356 73.94 245.012 74 244.604 74C244.124 74 243.704 73.908 243.344 73.724C242.984 73.54 242.684 73.292 242.444 72.98C242.212 72.668 242.036 72.32 241.916 71.936C241.796 71.552 241.736 71.16 241.736 70.76C241.736 70.36 241.796 69.968 241.916 69.584C242.036 69.2 242.212 68.852 242.444 68.54C242.684 68.228 242.984 67.98 243.344 67.796C243.704 67.612 244.124 67.52 244.604 67.52C245.012 67.52 245.356 67.584 245.636 67.712C245.916 67.832 246.14 67.976 246.308 68.144C246.484 68.312 246.612 68.468 246.692 68.612H246.752V67.64H247.892V73.628C247.892 74.516 247.632 75.22 247.112 75.74C246.6 76.26 245.868 76.52 244.916 76.52ZM244.82 73.028C245.244 73.028 245.596 72.92 245.876 72.704C246.164 72.48 246.376 72.196 246.512 71.852C246.656 71.508 246.728 71.144 246.728 70.76C246.728 70.376 246.656 70.012 246.512 69.668C246.376 69.316 246.164 69.032 245.876 68.816C245.596 68.6 245.244 68.492 244.82 68.492C244.396 68.492 244.04 68.6 243.752 68.816C243.464 69.032 243.248 69.316 243.104 69.668C242.968 70.012 242.9 70.376 242.9 70.76C242.9 71.144 242.968 71.508 243.104 71.852C243.248 72.196 243.464 72.48 243.752 72.704C244.04 72.92 244.396 73.028 244.82 73.028ZM251.895 74.12C251.407 74.12 251.003 74.052 250.683 73.916C250.371 73.78 250.123 73.612 249.939 73.412C249.755 73.204 249.619 73 249.531 72.8C249.443 72.592 249.387 72.42 249.363 72.284C249.339 72.148 249.327 72.08 249.327 72.08H250.479C250.479 72.08 250.491 72.136 250.515 72.248C250.547 72.352 250.607 72.476 250.695 72.62C250.791 72.756 250.935 72.88 251.127 72.992C251.327 73.096 251.591 73.148 251.919 73.148C252.295 73.148 252.587 73.06 252.795 72.884C253.003 72.7 253.107 72.476 253.107 72.212C253.107 71.98 253.023 71.796 252.855 71.66C252.695 71.524 252.463 71.42 252.159 71.348L251.295 71.144C250.975 71.064 250.675 70.956 250.395 70.82C250.115 70.684 249.887 70.5 249.711 70.268C249.543 70.028 249.459 69.732 249.459 69.38C249.459 68.836 249.663 68.392 250.071 68.048C250.479 67.696 251.011 67.52 251.667 67.52C252.107 67.52 252.471 67.584 252.759 67.712C253.047 67.832 253.275 67.984 253.443 68.168C253.619 68.352 253.747 68.536 253.827 68.72C253.915 68.904 253.971 69.06 253.995 69.188C254.019 69.308 254.031 69.368 254.031 69.368H252.927C252.927 69.368 252.915 69.324 252.891 69.236C252.867 69.14 252.811 69.036 252.723 68.924C252.643 68.804 252.519 68.7 252.351 68.612C252.183 68.516 251.959 68.468 251.679 68.468C251.295 68.468 251.015 68.556 250.839 68.732C250.663 68.908 250.575 69.1 250.575 69.308C250.575 69.508 250.655 69.672 250.815 69.8C250.983 69.92 251.199 70.012 251.463 70.076L252.339 70.28C252.883 70.408 253.331 70.62 253.683 70.916C254.043 71.204 254.223 71.62 254.223 72.164C254.223 72.516 254.131 72.844 253.947 73.148C253.763 73.444 253.499 73.68 253.155 73.856C252.811 74.032 252.391 74.12 251.895 74.12Z" fill="#8E8F94"/>
<defs>
<linearGradient id="paint0_linear_220_2130" x1="181.301" y1="26" x2="170.282" y2="-10.6913" gradientUnits="userSpaceOnUse">
<stop stop-color="#C2712E"/>
<stop offset="1" stop-color="#D4963F"/>
</linearGradient>
<linearGradient id="paint1_linear_220_2130" x1="234.393" y1="60" x2="226.135" y2="56.7066" gradientUnits="userSpaceOnUse">
<stop stop-color="#1A6B4F"/>
<stop offset="1" stop-color="#238C66"/>
</linearGradient>
</defs>
</svg>
