<svg width="329" height="26" viewBox="0 0 329 26" fill="none" xmlns="http://www.w3.org/2000/svg">
<path d="M0.5 13H83.5312" stroke="url(#paint0_linear_258_16481)" stroke-linecap="round"/>
<path d="M242.929 0.5C244.291 0.5 244.948 2.16907 243.952 3.09766L234.203 12.1826C233.997 12.3749 233.99 12.7 234.188 12.9004L244.137 22.9443C245.075 23.8912 244.404 25.4996 243.071 25.5H85.9375C84.6029 25.5 83.9326 23.8874 84.874 22.9414L94.418 13.3525C94.6118 13.1575 94.6118 12.8425 94.418 12.6475L84.874 3.05859C83.9326 2.11262 84.6029 0.5 85.9375 0.5H242.929Z" fill="url(#paint1_linear_258_16481)" stroke="white"/>
<path d="M108.021 16.9816L108.012 14.9217L105.562 10.3996L107.282 10.3869L108.706 13.6165L108.766 13.6161L110.152 10.3658L111.852 10.3533L109.462 14.901L109.471 16.971L108.021 16.9816ZM115.166 17.0692C114.686 17.0727 114.256 17.0025 113.875 16.8586C113.495 16.7081 113.167 16.4905 112.892 16.2058C112.625 15.9145 112.416 15.5593 112.268 15.1404C112.126 14.7148 112.054 14.2286 112.051 13.682C112.048 12.902 112.182 12.2576 112.453 11.749C112.724 11.2336 113.095 10.8476 113.568 10.5907C114.046 10.3272 114.586 10.1933 115.186 10.1889C115.652 10.1854 116.076 10.259 116.457 10.4095C116.837 10.5534 117.162 10.771 117.43 11.0624C117.704 11.347 117.916 11.7055 118.064 12.1377C118.213 12.5633 118.289 13.0528 118.291 13.6061C118.294 14.1728 118.222 14.67 118.078 15.0977C117.933 15.5255 117.721 15.887 117.442 16.1824C117.17 16.4711 116.841 16.6902 116.455 16.8397C116.069 16.9892 115.64 17.0657 115.166 17.0692ZM115.201 15.9189C115.555 15.9163 115.851 15.8274 116.09 15.6523C116.329 15.4772 116.512 15.2259 116.637 14.8983C116.762 14.5707 116.823 14.1702 116.821 13.6969C116.819 13.2036 116.751 12.7841 116.616 12.4384C116.488 12.0927 116.3 11.8307 116.052 11.6525C115.805 11.4677 115.504 11.3765 115.151 11.3791C114.804 11.3817 114.508 11.4739 114.262 11.6557C114.023 11.8308 113.838 12.0855 113.706 12.4198C113.581 12.754 113.519 13.1678 113.521 13.6612C113.523 14.0212 113.561 14.3442 113.636 14.6303C113.717 14.9098 113.828 15.1456 113.969 15.3379C114.11 15.5302 114.283 15.6756 114.491 15.7741C114.698 15.8726 114.935 15.9208 115.201 15.9189ZM122.443 17.0157C122.036 17.0187 121.673 16.978 121.352 16.8937C121.039 16.816 120.765 16.7013 120.531 16.5497C120.297 16.3914 120.099 16.2029 119.938 15.9841C119.784 15.7585 119.666 15.5061 119.585 15.2267C119.51 14.9472 119.472 14.6408 119.471 14.3075L119.453 10.2975L120.903 10.2869L120.921 14.2468C120.922 14.5868 120.977 14.8698 121.084 15.0956C121.199 15.3148 121.366 15.4769 121.587 15.582C121.807 15.687 122.087 15.7383 122.427 15.7358C122.774 15.7332 123.057 15.6778 123.277 15.5695C123.503 15.4612 123.669 15.2967 123.774 15.0759C123.887 14.8484 123.942 14.5646 123.941 14.2246L123.923 10.2647L125.353 10.2542L125.371 14.2641C125.375 15.1308 125.131 15.8059 124.64 16.2895C124.155 16.7664 123.423 17.0085 122.443 17.0157ZM126.798 16.8437L126.768 10.2438L129.448 10.2241C129.808 10.2214 130.135 10.249 130.429 10.3069C130.722 10.3581 130.983 10.4361 131.21 10.5411C131.437 10.6462 131.627 10.7781 131.781 10.937C131.942 11.0891 132.063 11.2682 132.144 11.4743C132.225 11.6737 132.266 11.8968 132.267 12.1434C132.268 12.3768 132.232 12.5904 132.16 12.7842C132.087 12.9714 131.978 13.1356 131.832 13.2766C131.686 13.4177 131.503 13.5357 131.283 13.6307C131.064 13.719 130.807 13.7808 130.514 13.8163L130.515 13.9663C130.855 13.9972 131.125 14.0752 131.326 14.2004C131.533 14.3189 131.694 14.481 131.808 14.6868C131.929 14.8926 132.033 15.1485 132.121 15.4546L132.527 16.8016L130.937 16.8133L130.622 15.5656C130.561 15.2994 130.473 15.0933 130.359 14.9475C130.245 14.795 130.101 14.6894 129.928 14.6307C129.754 14.5653 129.544 14.5335 129.297 14.5353L128.227 14.5431L128.238 16.8331L126.798 16.8437ZM128.223 13.4632L129.363 13.4548C129.816 13.4515 130.165 13.3622 130.411 13.1871C130.657 13.0119 130.779 12.741 130.778 12.3744C130.776 12.0144 130.658 11.7519 130.424 11.5869C130.197 11.4153 129.853 11.3311 129.393 11.3345L128.213 11.3432L128.223 13.4632ZM136.879 16.7696L135.36 10.1807L136.93 10.1691L137.934 15.5319L138.044 15.5311L139.18 10.1526L141.01 10.1391L142.194 15.5006L142.314 15.4997L143.27 10.1225L144.76 10.1116L143.279 16.7226L141.269 16.7374L140.125 11.3757L140.035 11.3763L138.939 16.7545L136.879 16.7696ZM145.752 16.7045L145.723 10.1045L147.173 10.0939L147.202 16.6938L145.752 16.7045ZM146.752 16.6971L146.747 15.5271L150.837 15.4971L150.842 16.6671L146.752 16.6971ZM146.74 13.8971L146.735 12.8272L150.325 12.8008L150.33 13.8708L146.74 13.8971ZM146.728 11.2572L146.723 10.0972L150.793 10.0673L150.798 11.2273L146.728 11.2572ZM151.452 16.6626L153.683 10.0461L155.783 10.0306L158.072 16.614L156.512 16.6254L154.818 11.1777L154.668 11.1788L153.012 16.6511L151.452 16.6626ZM152.716 15.3533L152.712 14.3733L157.002 14.3418L157.006 15.3218L152.716 15.3533ZM158.984 16.6073L158.955 10.0073L160.395 9.99674L160.424 16.5967L158.984 16.6073ZM159.284 16.6051L159.279 15.3951L163.209 15.3662L163.214 16.5762L159.284 16.6051ZM164.691 16.5653L164.661 9.9654L166.101 9.95482L166.131 16.5548L164.691 16.5653ZM162.717 11.1897L162.711 9.97972L168.051 9.9405L168.057 11.1505L162.717 11.1897ZM173.333 16.5018L173.304 9.90191L174.734 9.89141L174.763 16.4913L173.333 16.5018ZM169.003 16.5337L168.974 9.93372L170.414 9.92314L170.443 16.5231L169.003 16.5337ZM169.841 13.7774L169.836 12.5974L173.886 12.5677L173.891 13.7477L169.841 13.7774ZM178.025 16.5374L177.929 15.2181C178.002 15.2309 178.076 15.2403 178.149 15.2464C178.222 15.2459 178.282 15.2455 178.329 15.2451C178.609 15.2431 178.822 15.2015 178.969 15.1204C179.121 15.0393 179.228 14.9118 179.287 14.7381C179.346 14.5643 179.375 14.3374 179.374 14.0574L179.355 9.85746L180.795 9.84688L180.814 14.0568C180.816 14.5968 180.738 15.0541 180.58 15.4286C180.428 15.7964 180.186 16.0782 179.854 16.2739C179.528 16.4697 179.098 16.5695 178.565 16.5734C178.505 16.5739 178.432 16.5711 178.345 16.565C178.265 16.559 178.158 16.5497 178.025 16.5374ZM185.106 16.5554C184.626 16.5589 184.196 16.4887 183.815 16.3448C183.434 16.1943 183.107 15.9767 182.832 15.692C182.564 15.4007 182.356 15.0455 182.207 14.6266C182.065 14.201 181.993 13.7148 181.991 13.1682C181.987 12.3882 182.121 11.7438 182.392 11.2352C182.663 10.7198 183.035 10.3338 183.507 10.077C183.986 9.81344 184.525 9.67947 185.125 9.67507C185.592 9.67164 186.016 9.74519 186.396 9.89573C186.777 10.0396 187.101 10.2572 187.369 10.5486C187.644 10.8333 187.855 11.1917 188.004 11.624C188.153 12.0495 188.228 12.539 188.231 13.0923C188.233 13.659 188.162 14.1562 188.017 14.5839C187.872 15.0117 187.661 15.3732 187.382 15.6686C187.11 15.9573 186.781 16.1764 186.395 16.3259C186.009 16.4754 185.579 16.5519 185.106 16.5554ZM185.141 15.4051C185.494 15.4025 185.79 15.3136 186.03 15.1385C186.269 14.9635 186.451 14.7121 186.576 14.3845C186.701 14.0569 186.763 13.6565 186.761 13.1831C186.759 12.6898 186.69 12.2703 186.555 11.9246C186.427 11.5789 186.239 11.3169 185.992 11.1387C185.744 10.9539 185.444 10.8628 185.091 10.8653C184.744 10.8679 184.448 10.9601 184.202 11.1419C183.963 11.317 183.777 11.5717 183.645 11.906C183.52 12.2403 183.459 12.654 183.461 13.1474C183.462 13.5074 183.5 13.8304 183.575 14.1166C183.656 14.396 183.767 14.6318 183.908 14.8241C184.049 15.0164 184.223 15.1618 184.43 15.2603C184.637 15.3588 184.874 15.407 185.141 15.4051ZM192.382 16.5019C191.976 16.5049 191.612 16.4642 191.292 16.3799C190.978 16.3022 190.704 16.1876 190.47 16.0359C190.236 15.8777 190.039 15.6891 189.878 15.4703C189.724 15.2447 189.606 14.9923 189.525 14.7129C189.45 14.4334 189.412 14.127 189.41 13.7937L189.393 9.78372L190.843 9.77307L190.86 13.733C190.862 14.073 190.916 14.356 191.024 14.5818C191.138 14.801 191.306 14.9631 191.526 15.0682C191.747 15.1732 192.027 15.2245 192.367 15.222C192.713 15.2195 192.997 15.164 193.216 15.0558C193.442 14.9474 193.608 14.7829 193.714 14.5621C193.826 14.3346 193.882 14.0508 193.88 13.7108L193.863 9.75088L195.292 9.74038L195.31 13.7503C195.314 14.617 195.07 15.2921 194.579 15.7758C194.095 16.2527 193.362 16.4947 192.382 16.5019ZM196.737 16.3299L196.708 9.72998L199.388 9.7103C199.748 9.70765 200.075 9.73525 200.368 9.7931C200.662 9.84427 200.922 9.92236 201.149 10.0274C201.376 10.1324 201.567 10.2643 201.721 10.4232C201.882 10.5753 202.002 10.7544 202.083 10.9605C202.164 11.1599 202.205 11.383 202.206 11.6296C202.207 11.863 202.172 12.0766 202.099 12.2704C202.027 12.4576 201.917 12.6218 201.771 12.7629C201.625 12.9039 201.442 13.0219 201.223 13.1169C201.003 13.2052 200.747 13.2671 200.454 13.3025L200.454 13.4525C200.795 13.4834 201.065 13.5614 201.265 13.6866C201.473 13.8051 201.633 13.9672 201.748 14.1731C201.868 14.3788 201.973 14.6347 202.061 14.9408L202.467 16.2878L200.877 16.2995L200.561 15.0518C200.5 14.7856 200.413 14.5795 200.299 14.4337C200.185 14.2812 200.041 14.1756 199.867 14.1169C199.694 14.0515 199.484 14.0197 199.237 14.0215L198.167 14.0294L198.177 16.3193L196.737 16.3299ZM198.162 12.9494L199.302 12.941C199.755 12.9377 200.105 12.8484 200.351 12.6733C200.597 12.4981 200.719 12.2272 200.717 11.8606C200.716 11.5006 200.598 11.2381 200.364 11.0732C200.136 10.9015 199.793 10.8173 199.333 10.8207L198.153 10.8294L198.162 12.9494ZM203.524 16.2801L203.495 9.68012L205.375 9.66631L208.385 14.3143L208.495 14.3135L208.385 9.6442L209.785 9.63392L209.814 16.2339L208.114 16.2463L204.932 11.3796L204.822 11.3804L204.934 16.2697L203.524 16.2801ZM211.278 16.2231L211.248 9.62317L212.698 9.61251L212.728 16.2124L211.278 16.2231ZM212.278 16.2158L212.273 15.0458L216.362 15.0157L216.368 16.1857L212.278 16.2158ZM212.265 13.4158L212.261 12.3458L215.85 12.3194L215.855 13.3894L212.265 13.4158ZM212.254 10.7758L212.248 9.61582L216.318 9.58592L216.323 10.7459L212.254 10.7758ZM219.336 16.1639L219.327 14.1039L216.877 9.58182L218.597 9.56918L220.021 12.7988L220.081 12.7984L221.467 9.5481L223.167 9.53561L220.777 14.0833L220.786 16.1532L219.336 16.1639Z" fill="#F6F1E4"/>
<path d="M245.469 13H328.5" stroke="url(#paint2_linear_258_16481)" stroke-linecap="round"/>
<defs>
<linearGradient id="paint0_linear_258_16481" x1="83.5312" y1="13.5" x2="0.5" y2="13.5" gradientUnits="userSpaceOnUse">
<stop stop-color="#C58A1F"/>
<stop offset="1" stop-color="#170B01" stop-opacity="0"/>
</linearGradient>
<linearGradient id="paint1_linear_258_16481" x1="206.001" y1="25" x2="193.689" y2="-19.6012" gradientUnits="userSpaceOnUse">
<stop stop-color="#9D5315"/>
<stop offset="1" stop-color="#D4963F"/>
</linearGradient>
<linearGradient id="paint2_linear_258_16481" x1="245.469" y1="13.5" x2="328.5" y2="13.5" gradientUnits="userSpaceOnUse">
<stop stop-color="#C58A1F"/>
<stop offset="1" stop-color="#170B01" stop-opacity="0"/>
</linearGradient>
</defs>
</svg>
